<svg width="41" height="40" viewBox="0 0 41 40" fill="none" xmlns="http://www.w3.org/2000/svg">
<circle cx="20.3091" cy="20.2193" r="19.7505" fill="#3464AF"/>
<g clip-path="url(#clip0_186_4365)">
<path d="M20.9466 25.1572C22.613 25.1572 23.7777 24.3733 24.4587 23.6386C24.8574 23.2041 25.5383 23.1727 25.9773 23.5759C26.4118 23.9791 26.4387 24.66 26.0355 25.0945C25.0545 26.1652 23.3522 27.3075 20.9466 27.3075C18.541 27.3075 16.8387 26.1652 15.8576 25.0945C15.4544 24.66 15.441 23.9791 15.9159 23.5759C16.3549 23.1727 17.0358 23.2041 17.4345 23.6386C18.1154 24.3733 19.2801 25.1572 20.9466 25.1572ZM18.8142 18.7065C18.8142 19.4994 18.1692 20.14 17.3807 20.14C16.5878 20.14 15.9472 19.4994 15.9472 18.7065C15.9472 17.9136 16.5878 17.273 17.3807 17.273C18.1692 17.273 18.8142 17.9136 18.8142 18.7065ZM23.1147 18.7065C23.1147 17.9136 23.7553 17.273 24.5483 17.273C25.3367 17.273 25.9818 17.9136 25.9818 18.7065C25.9818 19.4994 25.3367 20.14 24.5483 20.14C23.7553 20.14 23.1147 19.4994 23.1147 18.7065ZM32.4146 20.8567C32.4146 27.191 27.2809 32.3248 20.9466 32.3248C14.6123 32.3248 9.47852 27.191 9.47852 20.8567C9.47852 14.5224 14.6123 9.38867 20.9466 9.38867C27.2809 9.38867 32.4146 14.5224 32.4146 20.8567ZM20.9466 11.5389C15.7994 11.5389 11.6288 15.7095 11.6288 20.8567C11.6288 26.0039 15.7994 30.1745 20.9466 30.1745C26.0938 30.1745 30.2644 26.0039 30.2644 20.8567C30.2644 15.7095 26.0938 11.5389 20.9466 11.5389Z" fill="#5D98F4"/>
</g>
<defs>
<clipPath id="clip0_186_4365">
<rect width="22.9361" height="22.9361" fill="white" transform="translate(9.47852 9.38867)"/>
</clipPath>
</defs>
</svg>
