<svg width="40" height="40" viewBox="0 0 40 40" fill="none" xmlns="http://www.w3.org/2000/svg">
<circle cx="20.0845" cy="19.7505" r="19.7505" fill="#3464AF" fill-opacity="0.02"/>
<path d="M9.25392 20.388C9.25392 14.0542 14.3882 8.91992 20.722 8.91992C27.0558 8.91992 32.19 14.0542 32.19 20.388C32.19 26.7218 27.0558 31.856 20.722 31.856H9.25392L12.6129 28.497C11.5464 27.4333 10.7007 26.1693 10.1242 24.7777C9.54776 23.3861 9.252 21.8943 9.25392 20.388ZM14.7907 29.5624H20.722C22.5365 29.5624 24.3103 29.0243 25.819 28.0162C27.3277 27.0081 28.5037 25.5753 29.198 23.8989C29.8924 22.2225 30.0741 20.3778 29.7201 18.5981C29.3661 16.8185 28.4923 15.1837 27.2093 13.9007C25.9262 12.6176 24.2915 11.7438 22.5118 11.3898C20.7321 11.0358 18.8875 11.2175 17.2111 11.9119C15.5346 12.6063 14.1018 13.7822 13.0937 15.2909C12.0856 16.7997 11.5475 18.5734 11.5475 20.388C11.5475 22.8559 12.5235 25.1644 14.2345 26.8755L15.8561 28.497L14.7907 29.5624ZM16.1347 21.5348H25.3092C25.3092 22.7514 24.8259 23.9182 23.9656 24.7784C23.1053 25.6387 21.9386 26.122 20.722 26.122C19.5054 26.122 18.3386 25.6387 17.4783 24.7784C16.618 23.9182 16.1347 22.7514 16.1347 21.5348Z" fill="#5D98F4"/>
</svg>
