<svg width="35" height="35" viewBox="0 0 35 35" fill="none" xmlns="http://www.w3.org/2000/svg">
<path d="M0 17.5C0 7.83502 7.83502 0 17.5 0C27.165 0 35 7.83502 35 17.5C35 27.165 27.165 35 17.5 35C7.83502 35 0 27.165 0 17.5Z" fill="#004280"/>
<path d="M28.3455 13.1463C28.2183 12.699 27.9703 12.2912 27.6261 11.9635C27.2819 11.6358 26.8535 11.3997 26.3836 11.2786C24.6633 10.832 17.7397 10.832 17.7397 10.832C17.7397 10.832 10.8157 10.8455 9.09541 11.2922C8.6255 11.4132 8.19711 11.6494 7.8529 11.9771C7.50868 12.3047 7.26065 12.7126 7.13351 13.1599C6.61316 16.0695 6.41131 20.5032 7.1478 23.2964C7.27495 23.7437 7.52299 24.1515 7.8672 24.4792C8.21142 24.8069 8.6398 25.043 9.1097 25.1641C10.83 25.6107 17.7538 25.6107 17.7538 25.6107C17.7538 25.6107 24.6775 25.6107 26.3977 25.1641C26.8676 25.043 27.296 24.8069 27.6403 24.4792C27.9845 24.1515 28.2325 23.7437 28.3597 23.2964C28.9085 20.3827 29.0777 15.9518 28.3455 13.1464V13.1463Z" fill="white"/>
<path d="M20.7742 17.8861L16.2398 21.0857L16.2398 14.6864L20.7742 17.8861Z" fill="#1890FF"/>
</svg>
