<svg width="35" height="35" viewBox="0 0 35 35" fill="none" xmlns="http://www.w3.org/2000/svg">
<path d="M0 17.5C0 7.83502 7.83502 0 17.5 0C27.165 0 35 7.83502 35 17.5C35 27.165 27.165 35 17.5 35C7.83502 35 0 27.165 0 17.5Z" fill="white"/>
<path d="M14.52 6.22946C14.3815 6.24818 14.2492 6.29437 14.1326 6.36475C14.1326 6.36475 12.9253 7.05509 11.6275 7.8018C10.3296 8.54765 8.88566 9.36981 8.55546 9.53632C8.53509 9.54436 8.51504 9.55304 8.49533 9.56234C7.29669 10.2345 7.04761 11.3324 7.00467 11.9482C7.0018 11.9768 7.00467 12.0002 7.00467 12.0306C6.99417 12.2613 7.00467 12.4096 7.00467 12.4096V23.7386C7.00467 25.3846 9.11661 26.1764 11.1207 26.1764C11.7887 26.1764 12.4568 26.0784 13.0294 25.905C13.4111 25.7315 13.685 25.3846 13.685 25.0377V15.9315C13.685 13.9368 14.1622 13.0002 15.5937 12.2196C15.9754 12.0462 19.9779 9.53546 19.9779 9.53546C20.1687 9.362 20.3653 9.0099 20.3653 8.74972V8.6682C20.3653 8.32129 20.1745 8.05591 19.8882 7.88246C19.6019 7.70901 19.2201 7.70901 18.9338 7.88246C18.8384 7.96918 13.017 11.531 11.7763 12.1381C10.5357 12.8319 9.37809 12.9993 9.09179 12.6524C9.00304 12.5717 8.92574 12.3246 8.91333 12.0835V12.0566V12.0288C8.91429 11.7929 8.98109 11.3489 9.50979 11.0532C10.0461 10.7817 11.3774 10.009 12.6715 9.26487C13.2183 8.95006 13.2861 8.91623 13.7146 8.6682C13.771 8.88006 13.9131 9.06486 14.1127 9.18579C14.3122 9.30673 14.5546 9.35494 14.7915 9.32082C15.0284 9.28671 15.2425 9.17277 15.3911 9.0017C15.5398 8.83062 15.6121 8.61495 15.5937 8.39761V7.09672C15.5947 6.97311 15.5667 6.85071 15.5115 6.73774C15.4562 6.62478 15.3751 6.52385 15.2734 6.44172C15.1717 6.35959 15.0519 6.29816 14.922 6.26156C14.792 6.22495 14.655 6.21401 14.52 6.22946ZM22.1547 9.26487C22.0029 9.28781 21.8595 9.34374 21.7367 9.42792C21.7367 9.42792 16.9326 12.3653 16.1004 12.8692C16.0903 12.8783 16.0805 12.8875 16.0708 12.897C15.3799 13.3679 14.9705 13.9281 14.7882 14.4407C14.6594 14.8041 14.6403 15.1007 14.6393 15.3357V15.6071C14.638 15.634 14.638 15.6609 14.6393 15.6878V26.1764C14.6393 27.8242 16.7274 28.7782 18.6361 28.7782C19.495 28.7782 20.2699 28.61 20.8425 28.2631C21.9877 27.656 27.5228 23.7377 27.5228 23.7377C27.8091 23.5642 28 23.3197 28 23.0595V11.7851C28 11.3515 27.8149 11.0913 27.4331 10.9179C27.1468 10.7444 26.6763 10.8259 26.39 10.9994C24.8631 12.0401 20.7528 14.9784 19.7985 15.4987C18.4624 16.1925 17.2036 16.366 16.7265 15.9324C16.5356 15.7589 16.548 15.5959 16.548 15.3357C16.5537 15.1865 16.5719 15.0582 16.6081 14.9558C16.6616 14.8049 16.7704 14.6193 17.174 14.3331C17.1931 14.3193 17.1836 14.3201 17.2036 14.3063C17.8936 13.8874 20.0036 12.5804 21.3798 11.7305C21.4578 11.9206 21.6066 12.0798 21.8004 12.1805C21.9941 12.2812 22.2206 12.3169 22.4404 12.2816C22.6602 12.2462 22.8594 12.1419 23.0034 11.9869C23.1473 11.8319 23.2269 11.6359 23.2283 11.433V10.1321C23.2294 10.0085 23.2014 9.88612 23.1461 9.77315C23.0909 9.66019 23.0097 9.55925 22.9081 9.47713C22.8064 9.395 22.6866 9.33357 22.5566 9.29696C22.4267 9.26036 22.2897 9.24941 22.1547 9.26487ZM26.0913 15.6071V17.3417L21.3197 20.7014V18.9669L26.0913 15.6071Z" fill="#1890FF"/>
</svg>
