<svg width="40" height="40" viewBox="0 0 40 40" fill="none" xmlns="http://www.w3.org/2000/svg">
<circle cx="19.8599" cy="20.2193" r="19.7505" fill="#3464AF" fill-opacity="0.02"/>
<path fill-rule="evenodd" clip-rule="evenodd" d="M31.9592 14.3237C31.8442 12.2827 30.1283 10.6621 28.031 10.6621H11.6891L11.4651 10.6676C9.39665 10.7823 7.75488 12.4738 7.75488 14.5449V25.8928L7.76094 26.1139C7.87593 28.155 9.59184 29.7755 11.6891 29.7755H28.031L28.2535 29.7701C30.3235 29.6554 31.9652 27.9639 31.9652 25.8928V14.5449L31.9592 14.3237ZM11.916 12.0274H27.8041L27.9856 12.0342C29.3626 12.127 30.4521 13.2684 30.4521 14.6623V25.7754L30.446 25.9583C30.3522 27.3277 29.2052 28.4103 27.8041 28.4103H11.916L11.7345 28.4048C10.3575 28.312 9.26803 27.1706 9.26803 25.7767V14.6609L9.27408 14.4807C9.3679 13.11 10.5149 12.0274 11.916 12.0274ZM21.2254 16.8747C21.2254 16.2652 20.7612 15.7598 20.2014 15.7598C19.6417 15.7598 19.1775 16.2652 19.1775 16.8747V23.5644C19.1775 24.1739 19.6417 24.6794 20.2014 24.6794C20.7612 24.6794 21.2254 24.1739 21.2254 23.5644V16.8747ZM16.1057 15.7598C16.6654 15.7598 17.1296 16.2652 17.1296 16.8747C17.1296 17.4842 16.6654 17.9897 16.1057 17.9897H12.3513V22.4495H15.0818V21.3345C15.0818 20.725 15.5459 20.2196 16.1057 20.2196C16.6654 20.2196 17.1296 20.725 17.1296 21.3345V23.1928C17.1296 23.9361 16.5835 24.6794 15.7644 24.6794H11.6687C10.8495 24.6794 10.3034 23.9361 10.3034 23.1928V17.2464C10.3034 16.5031 10.8495 15.7598 11.6687 15.7598H16.1057ZM28.3929 15.7598C28.9526 15.7598 29.4168 16.2652 29.4168 16.8747C29.4168 17.4842 28.9526 17.9897 28.3929 17.9897H25.3211V19.4763H27.0277C27.5874 19.4763 28.0516 19.9817 28.0516 20.5912C28.0516 21.2007 27.5874 21.7062 27.0277 21.7062H25.3211V23.5644C25.3211 24.1739 24.8569 24.6794 24.2972 24.6794C23.7374 24.6794 23.2732 24.1739 23.2732 23.5644V17.2464C23.2732 16.4287 23.8876 15.7598 24.6385 15.7598H28.3929Z" fill="#5D98F4"/>
</svg>
