<svg width="45" height="45" viewBox="0 0 45 45" fill="none" xmlns="http://www.w3.org/2000/svg">
<circle cx="22.5" cy="22.5" r="22.5" fill="#FEB25E"/>
<g clip-path="url(#clip0_28_7916)">
<g clip-path="url(#clip1_28_7916)">
<path d="M19.2425 16.0156L18.3545 19.2758H20.1305L19.2425 16.0156Z" fill="white"/>
<path d="M30.4988 9.90039H13.6019C12.7625 9.90039 12.0796 10.5833 12.0796 11.4227V24.7176H32.0212V11.4227C32.0212 10.5833 31.3382 9.90039 30.4988 9.90039ZM22.3875 22.378C22.1238 22.5321 21.8502 22.6091 21.5664 22.6091C21.2175 22.6091 21.0108 22.4916 20.946 22.2563L20.5323 20.7357H17.9655L17.5518 22.2563C17.4869 22.4916 17.28 22.6091 16.9315 22.6091C16.6475 22.6091 16.3738 22.5321 16.1103 22.378C15.8466 22.224 15.7149 22.0416 15.7149 21.8306C15.7149 21.8062 15.7229 21.7618 15.7393 21.6967L18.002 14.2761C18.0668 14.0736 18.2149 13.9173 18.446 13.8078C18.6772 13.6984 18.9427 13.6436 19.2428 13.6436C19.5428 13.6436 19.8085 13.6983 20.0396 13.8078C20.2707 13.9173 20.4186 14.0736 20.4837 14.2761L22.7585 21.6967C22.7746 21.7617 22.7828 21.8062 22.7828 21.8306C22.7828 22.0416 22.6509 22.224 22.3875 22.378ZM28.2204 22.0252C28.2204 22.1875 28.1332 22.3253 27.9589 22.4388C27.7844 22.5525 27.5635 22.6092 27.2959 22.6092C27.0606 22.6092 26.8619 22.5486 26.6998 22.4273C26.5374 22.306 26.4565 22.1589 26.4565 21.9857V21.6998C25.897 22.3872 25.2806 22.7308 24.6075 22.7308C24.1614 22.7308 23.7904 22.5873 23.4944 22.2999C23.1983 22.0127 23.0504 21.5946 23.0504 21.0454C23.0504 20.3971 23.2956 19.9401 23.7864 19.6744C24.2769 19.4089 24.9804 19.276 25.897 19.276H26.3349V19.1486C26.3349 18.8937 26.2619 18.6728 26.1159 18.4858C25.9699 18.299 25.7388 18.2055 25.4225 18.2055C25.0333 18.2055 24.7128 18.2805 24.4615 18.4305C24.21 18.5807 24.0558 18.6555 23.9992 18.6555C23.8046 18.6555 23.6504 18.5603 23.5369 18.3697C23.4232 18.1792 23.3666 17.9621 23.3666 17.7188C23.3666 17.4512 23.5916 17.2221 24.0418 17.0315C24.4919 16.841 24.9602 16.7456 25.4468 16.7456C26.3793 16.7456 27.0748 16.9728 27.5331 17.4269C27.9912 17.8812 28.2204 18.4487 28.2204 19.13V22.0252H28.2204Z" fill="white"/>
<path d="M26.2864 20.1875C26.0187 20.1875 25.7976 20.1989 25.6234 20.2214C25.4488 20.244 25.2928 20.3024 25.155 20.3962C25.017 20.4901 24.9482 20.6236 24.9482 20.7966C24.9482 21.1125 25.1064 21.2702 25.4227 21.2702C25.6252 21.2702 25.8281 21.1651 26.0309 20.9545C26.2335 20.7439 26.3351 20.5032 26.3351 20.2325V20.1875H26.2864Z" fill="white"/>
<path d="M12.0796 26.1953V33.5776C12.0796 34.4171 12.7625 35.1 13.6019 35.1H30.4988C31.3382 35.1 32.0212 34.4171 32.0212 33.5776V26.1953H12.0796ZM16.3021 27.9469H20.1356C20.5437 27.9469 20.8746 28.2778 20.8746 28.6859C20.8746 29.0941 20.5437 29.425 20.1356 29.425H16.3021C15.8939 29.425 15.563 29.0941 15.563 28.6859C15.563 28.2778 15.8939 27.9469 16.3021 27.9469ZM23.1085 31.7774H16.3021C15.8939 31.7774 15.563 31.4465 15.563 31.0383C15.563 30.6302 15.8939 30.2993 16.3021 30.2993H23.1085C23.5166 30.2993 23.8475 30.6302 23.8475 31.0383C23.8475 31.4465 23.5167 31.7774 23.1085 31.7774ZM27.7476 31.7774H25.9091C25.501 31.7774 25.1701 31.4465 25.1701 31.0383C25.1701 30.6302 25.501 30.2993 25.9091 30.2993H27.7476C28.1558 30.2993 28.4867 30.6302 28.4867 31.0383C28.4867 31.4465 28.1558 31.7774 27.7476 31.7774Z" fill="white"/>
</g>
</g>
<defs>
<clipPath id="clip0_28_7916">
<rect width="18.9" height="25.2" fill="white" transform="translate(12.6001 9.90039)"/>
</clipPath>
<clipPath id="clip1_28_7916">
<rect width="25.2" height="25.2" fill="white" transform="translate(9.4502 9.90039)"/>
</clipPath>
</defs>
</svg>
