<svg width="89" height="91" viewBox="0 0 89 91" fill="none" xmlns="http://www.w3.org/2000/svg">
<circle cx="44.5" cy="46.5" r="41.5" fill="#FEB25E"/>
<g clip-path="url(#clip0_166_5134)">
<path d="M38.4915 34.5391L36.8535 40.5522H40.1294L38.4915 34.5391Z" fill="white"/>
<path d="M59.253 23.2598H28.0876C26.5394 23.2598 25.2798 24.5194 25.2798 26.0676V50.5893H62.0609V26.0676C62.0609 24.5194 60.8013 23.2598 59.253 23.2598ZM44.2921 46.274C43.8058 46.5582 43.301 46.7003 42.7776 46.7003C42.1342 46.7003 41.7529 46.4836 41.6333 46.0496L40.8704 43.2449H36.136L35.373 46.0496C35.2532 46.4836 34.8716 46.7003 34.2288 46.7003C33.705 46.7003 33.2002 46.5582 32.7142 46.274C32.2279 45.99 31.985 45.6535 31.985 45.2643C31.985 45.2194 31.9997 45.1375 32.0299 45.0175L36.2033 31.3306C36.3228 30.9569 36.5959 30.6687 37.0223 30.4668C37.4487 30.2649 37.9384 30.1639 38.492 30.1639C39.0452 30.1639 39.5353 30.2648 39.9617 30.4668C40.3879 30.6687 40.6607 30.9569 40.7807 31.3306L44.9764 45.0175C45.0062 45.1373 45.0213 45.2194 45.0213 45.2643C45.0213 45.6535 44.7781 45.99 44.2921 46.274ZM55.0507 45.6233C55.0507 45.9226 54.8897 46.1768 54.5683 46.3862C54.2464 46.5959 53.839 46.7004 53.3454 46.7004C52.9114 46.7004 52.545 46.5886 52.246 46.3649C51.9465 46.1412 51.7973 45.8698 51.7973 45.5505V45.0232C50.7652 46.291 49.6282 46.9247 48.3868 46.9247C47.5639 46.9247 46.8796 46.66 46.3338 46.13C45.7875 45.6003 45.5147 44.829 45.5147 43.8162C45.5147 42.6203 45.967 41.7775 46.8723 41.2874C47.7771 40.7976 49.0746 40.5525 50.7652 40.5525H51.5729V40.3176C51.5728 39.8474 51.4382 39.4401 51.169 39.0951C50.8997 38.7505 50.4735 38.578 49.89 38.578C49.1721 38.578 48.5811 38.7165 48.1174 38.9931C47.6536 39.27 47.3693 39.4081 47.2648 39.4081C46.9059 39.4081 46.6215 39.2325 46.4122 38.8809C46.2025 38.5295 46.098 38.1292 46.098 37.6805C46.098 37.1868 46.5131 36.7643 47.3433 36.4127C48.1735 36.0614 49.0374 35.8854 49.9349 35.8854C51.6548 35.8854 52.9377 36.3044 53.7829 37.1419C54.6278 37.9799 55.0506 39.0267 55.0506 40.2832V45.6233H55.0507Z" fill="white"/>
<path d="M51.4833 42.2363C50.9894 42.2363 50.5817 42.2574 50.2604 42.2988C49.9385 42.3405 49.6507 42.4482 49.3965 42.6213C49.142 42.7945 49.0151 43.0407 49.0151 43.3597C49.0151 43.9424 49.3068 44.2333 49.8902 44.2333C50.2638 44.2333 50.638 44.0395 51.0121 43.651C51.3857 43.2625 51.5731 42.8187 51.5731 42.3194V42.2363H51.4833Z" fill="white"/>
<path d="M25.2798 53.3164V66.9327C25.2798 68.481 26.5394 69.7405 28.0876 69.7405H59.253C60.8013 69.7405 62.0609 68.481 62.0609 66.9327V53.3164H25.2798ZM33.0679 56.547H40.1386C40.8914 56.547 41.5018 57.1574 41.5018 57.9102C41.5018 58.6631 40.8914 59.2734 40.1386 59.2734H33.0679C32.3151 59.2734 31.7047 58.6631 31.7047 57.9102C31.7047 57.1574 32.3151 56.547 33.0679 56.547ZM45.622 63.6123H33.0679C32.3151 63.6123 31.7047 63.0019 31.7047 62.2491C31.7047 61.4962 32.3151 60.8859 33.0679 60.8859H45.622C46.3748 60.8859 46.9851 61.4962 46.9851 62.2491C46.9851 63.0019 46.3749 63.6123 45.622 63.6123ZM54.1786 63.6123H50.7876C50.0347 63.6123 49.4244 63.0019 49.4244 62.2491C49.4244 61.4962 50.0347 60.8859 50.7876 60.8859H54.1786C54.9315 60.8859 55.5418 61.4962 55.5418 62.2491C55.5418 63.0019 54.9315 63.6123 54.1786 63.6123Z" fill="white"/>
</g>
<circle cx="44.5" cy="46.5" r="40.5" fill="#002252" fill-opacity="0.8"/>
<circle cx="44.5" cy="46.5" r="41.5" stroke="#ECF3FE" stroke-width="6" stroke-linecap="round"/>
<path d="M44.5001 5L45 5" stroke="#1890FF" stroke-width="10" stroke-linecap="round" stroke-linejoin="round"/>
<path d="M44 47L36.5224 40.9467C35.4115 40.0474 34.856 39.5977 34.4566 39.0464C34.1028 38.558 33.84 38.013 33.6803 37.4363C33.5 36.7854 33.5 36.0829 33.5 34.6781V30M44 47L51.4775 40.9467C52.5885 40.0474 53.144 39.5977 53.5434 39.0464C53.8972 38.558 54.16 38.013 54.3197 37.4363C54.5 36.7854 54.5 36.0829 54.5 34.6781V30M44 47L36.5225 53.0533C35.4115 53.9526 34.856 54.4023 34.4566 54.9536C34.1028 55.442 33.84 55.987 33.6803 56.5637C33.5 57.2146 33.5 57.9171 33.5 59.3219V64M44 47L51.4776 53.0533C52.5885 53.9526 53.144 54.4023 53.5434 54.9536C53.8972 55.442 54.16 55.987 54.3197 56.5637C54.5 57.2146 54.5 57.9171 54.5 59.3219V64M30 30H58M30 64H58" stroke="white" stroke-width="2" stroke-linecap="round" stroke-linejoin="round"/>
<path d="M44.0001 44.5996C39.4395 40.9004 35.8823 37.9465 36.2345 37.9996L51.7912 37.9996C52.2315 37.8344 48.0627 41.2123 44.0001 44.5996Z" fill="#1890FF"/>
<rect x="35.5" y="60" width="17" height="2" fill="#1890FF"/>
<defs>
<clipPath id="clip0_166_5134">
<rect width="46.48" height="46.48" fill="white" transform="translate(20.4302 23.2598)"/>
</clipPath>
</defs>
</svg>
