<svg width="89" height="91" viewBox="0 0 89 91" fill="none" xmlns="http://www.w3.org/2000/svg">
<circle cx="44" cy="46" r="41" transform="rotate(-180 44 46)" fill="#FF455D"/>
<path d="M28.0384 42.3367H33.7624C36.0664 42.3367 37.2184 41.3167 37.2184 39.2767C37.2184 37.3087 35.9224 36.3247 33.3304 36.3247H28.0384V42.3367ZM22.3864 31.9327H34.4824C39.9544 31.9327 42.6904 34.0567 42.6904 38.3047C42.6904 40.7527 41.5264 42.5407 39.1984 43.6687C40.7584 44.1007 41.9344 44.8927 42.7264 46.0447C43.5184 47.1727 43.9144 48.5527 43.9144 50.1847C43.9144 52.6327 43.0384 54.4927 41.2864 55.7647C39.5344 57.0127 37.3864 57.6367 34.8424 57.6367H22.3864V31.9327ZM28.0384 53.2447H34.0864C36.8704 53.2447 38.2624 52.1167 38.2624 49.8607C38.2624 47.4127 36.9064 46.1887 34.1944 46.1887H28.0384V53.2447ZM60.8381 48.3487C60.8381 46.6447 60.4661 45.2287 59.7221 44.1007C59.0021 42.9487 57.9221 42.3727 56.4821 42.3727C55.0421 42.3727 53.9501 42.9487 53.2061 44.1007C52.4861 45.2287 52.1261 46.6447 52.1261 48.3487C52.1261 50.0287 52.4981 51.4447 53.2421 52.5967C53.9861 53.7247 55.0661 54.2887 56.4821 54.2887C57.8981 54.2887 58.9781 53.7247 59.7221 52.5967C60.4661 51.4447 60.8381 50.0287 60.8381 48.3487ZM47.1941 31.9327H52.3061V41.2927H52.3781C53.6021 39.4447 55.5581 38.5207 58.2461 38.5207C60.3101 38.5207 62.1101 39.3607 63.6461 41.0407C65.1821 42.7207 65.9501 45.1447 65.9501 48.3127C65.9501 51.4807 65.1821 53.9047 63.6461 55.5847C62.1101 57.2647 60.3101 58.1047 58.2461 58.1047C55.1981 58.1047 53.1581 57.1567 52.1261 55.2607H52.0541V57.6367H47.1941V31.9327Z" fill="white"/>
<circle cx="44.5" cy="46.5" r="41.5" transform="rotate(-180 44.5 46.5)" stroke="#ECF3FE" stroke-width="6" stroke-linecap="round"/>
<path d="M44.5001 5C45.5 5 43.5 5 45 5" stroke="#1890FF" stroke-width="10" stroke-linecap="round" stroke-linejoin="round"/>
</svg>
