<svg width="96" height="96" viewBox="0 0 96 96" fill="none" xmlns="http://www.w3.org/2000/svg">
<circle cx="48" cy="48" r="48" fill="#001839"/>
<path d="M61.5383 45.2937H58.8306V37.1706C58.8306 31.2137 53.9567 26.3398 47.9998 26.3398C42.0429 26.3398 37.169 31.2137 37.169 37.1706V45.2937H34.4614C33.1075 45.2937 31.7537 46.6475 31.7537 48.0014V66.9552C31.7537 68.3091 33.1075 69.6629 34.4614 69.6629H61.5383C62.8921 69.6629 64.246 68.3091 64.246 66.9552V48.0014C64.246 46.6475 62.8921 45.2937 61.5383 45.2937ZM50.7075 64.2475H45.2921L46.3752 58.2906C45.0214 57.7491 43.9383 56.1245 43.9383 54.7706C43.9383 52.6045 45.8337 50.7091 47.9998 50.7091C50.166 50.7091 52.0614 52.6045 52.0614 54.7706C52.0614 56.3952 51.249 57.7491 49.6244 58.2906L50.7075 64.2475ZM53.4152 45.2937H42.5844V37.1706C42.5844 34.1922 45.0214 31.7552 47.9998 31.7552C50.9783 31.7552 53.4152 34.1922 53.4152 37.1706V45.2937Z" fill="#A5C8E8"/>
</svg>
