<svg width="51" height="51" viewBox="0 0 51 51" fill="none" xmlns="http://www.w3.org/2000/svg">
<path d="M14.1159 4.55273C12.5459 4.55273 11.0403 5.17641 9.93011 6.28656C8.81996 7.39671 8.19629 8.90239 8.19629 10.4724L8.19629 40.5259C8.19629 42.0959 8.81996 43.6016 9.93011 44.7118C11.0403 45.8219 12.5459 46.4456 14.1159 46.4456L41.4374 46.4456C41.7997 46.4456 42.1471 46.3017 42.4033 46.0455C42.6595 45.7893 42.8034 45.4418 42.8034 45.0795C42.8034 44.7172 42.6595 44.3697 42.4033 44.1136C42.1471 43.8574 41.7997 43.7134 41.4374 43.7134L14.1159 43.7134C13.3495 43.7134 12.6087 43.4372 12.0293 42.9354C11.4499 42.4337 11.0707 41.7399 10.9612 40.9813L41.4374 40.9813C41.7997 40.9813 42.1471 40.8374 42.4033 40.5812C42.6595 40.325 42.8034 39.9775 42.8034 39.6152L42.8034 10.4724C42.8034 8.90239 42.1798 7.39671 41.0696 6.28656C39.9595 5.17641 38.4538 4.55273 36.8838 4.55273L14.1159 4.55273ZM29.1427 20.0294C29.1437 20.996 28.7606 21.9235 28.0778 22.6077C27.395 23.2918 26.4683 23.6768 25.5017 23.6777C24.5351 23.6787 23.6076 23.2956 22.9234 22.6128C22.2392 21.93 21.8543 21.0033 21.8534 20.0367C21.8529 19.5581 21.9467 19.084 22.1294 18.6417C22.3121 18.1993 22.5802 17.7972 22.9183 17.4585C23.6011 16.7743 24.5278 16.3893 25.4944 16.3884C26.461 16.3874 27.3884 16.7705 28.0726 17.4533C28.7568 18.1361 29.1418 19.0628 29.1427 20.0294ZM31.8749 26.98V27.9636C31.8749 29.9398 29.1609 31.4188 25.4999 31.4188C21.8388 31.4188 19.1249 29.938 19.1249 27.9654V26.98C19.1241 26.7861 19.1617 26.5939 19.2352 26.4146C19.3088 26.2352 19.4171 26.072 19.5538 25.9345C19.6904 25.797 19.8529 25.6877 20.0318 25.613C20.2108 25.5383 20.4027 25.4996 20.5966 25.4992H30.4031C30.597 25.4996 30.789 25.5383 30.9679 25.613C31.1468 25.6877 31.3093 25.797 31.446 25.9345C31.5826 26.072 31.6909 26.2352 31.7645 26.4146C31.8381 26.5939 31.8756 26.7861 31.8749 26.98Z" fill="white"/>
</svg>
