<svg width="45" height="45" viewBox="0 0 45 45" fill="none" xmlns="http://www.w3.org/2000/svg">
<path d="M35.625 5.625L27.7875 5.625C27 3.45 24.9375 1.875 22.5 1.875C20.0625 1.875 18 3.45 17.2125 5.625L9.375 5.625C7.3125 5.625 5.625 7.3125 5.625 9.375L5.625 35.625C5.625 37.6875 7.3125 39.375 9.375 39.375L35.625 39.375C37.6875 39.375 39.375 37.6875 39.375 35.625L39.375 9.375C39.375 7.3125 37.6875 5.625 35.625 5.625ZM22.5 5.15625C23.2687 5.15625 23.9062 5.79375 23.9062 6.5625C23.9062 7.33125 23.2687 7.96875 22.5 7.96875C21.7313 7.96875 21.0938 7.33125 21.0938 6.5625C21.0938 5.79375 21.7313 5.15625 22.5 5.15625ZM16.6875 31.875L14.0625 31.875C13.5375 31.875 13.125 31.4625 13.125 30.9375V28.2562C13.125 28.0125 13.2187 27.7688 13.4062 27.6L24.3 16.7062L28.275 20.6812L17.3437 31.6125C17.1676 31.7823 16.9321 31.8765 16.6875 31.875ZM31.5937 17.3813L29.6063 19.3687L25.6313 15.3938L27.6187 13.4063C27.9937 13.0313 28.575 13.0313 28.95 13.4063L31.5937 16.05C31.9687 16.425 31.9687 17.0063 31.5937 17.3813Z" fill="white" fill-opacity="0.5"/>
</svg>
