<svg width="38" height="38" viewBox="0 0 38 38" fill="none" xmlns="http://www.w3.org/2000/svg">
<path d="M22.4197 16.467L14.503 10.8145C13.3947 10.0228 11.9222 10.0228 10.8297 10.8145L2.91301 16.467C2.07384 17.0686 1.58301 18.0186 1.58301 19.0478L1.58301 31.667C1.58301 32.5378 2.29551 33.2503 3.16634 33.2503H9.49967L9.49967 23.7503H15.833L15.833 33.2503H22.1663C23.0372 33.2503 23.7497 32.5378 23.7497 31.667L23.7497 19.0478C23.7497 18.0186 23.2588 17.0686 22.4197 16.467Z" fill="white" fill-opacity="0.5"/>
<path d="M33.2972 4.75L18.9522 4.75C17.2263 4.75 15.833 6.14333 15.833 7.86917L15.9755 8.01167C16.1022 8.09083 16.2288 8.15417 16.3555 8.23333L24.2722 13.8858C25.4755 14.7408 26.3305 16.0075 26.7105 17.4167H30.083V20.5833H26.9163L26.9163 23.75H30.083V26.9167H26.9163L26.9163 33.25H33.2972C35.023 33.25 36.4163 31.8567 36.4163 30.1308V7.86917C36.4163 6.14333 35.023 4.75 33.2972 4.75ZM30.083 14.25H26.9163V11.0833L30.083 11.0833V14.25Z" fill="white" fill-opacity="0.5"/>
</svg>
