<svg width="19" height="14" viewBox="0 0 19 14" fill="none" xmlns="http://www.w3.org/2000/svg">
<path d="M1.21989 7.42765C1.1064 7.24795 1.04966 7.1581 1.01789 7.01951C0.994035 6.91542 0.994035 6.75125 1.01789 6.64715C1.04966 6.50857 1.1064 6.41872 1.21989 6.23902C2.15773 4.75403 4.94929 1 9.20346 1C13.4576 1 16.2492 4.75403 17.187 6.23902C17.3005 6.41872 17.3573 6.50857 17.389 6.64715C17.4129 6.75125 17.4129 6.91542 17.389 7.01951C17.3573 7.1581 17.3005 7.24795 17.187 7.42765C16.2492 8.91263 13.4576 12.6667 9.20346 12.6667C4.94929 12.6667 2.15773 8.91263 1.21989 7.42765Z" stroke="#CACACA" stroke-width="2" stroke-linecap="round" stroke-linejoin="round"/>
<path d="M9.20346 9.33333C10.5842 9.33333 11.7035 8.21404 11.7035 6.83333C11.7035 5.45262 10.5842 4.33333 9.20346 4.33333C7.82275 4.33333 6.70346 5.45262 6.70346 6.83333C6.70346 8.21404 7.82275 9.33333 9.20346 9.33333Z" stroke="#CACACA" stroke-width="2" stroke-linecap="round" stroke-linejoin="round"/>
</svg>
