<svg width="22" height="22" viewBox="0 0 22 22" fill="none" xmlns="http://www.w3.org/2000/svg">
<path d="M14.7715 14.7725C12.6887 16.8553 9.31184 16.8553 7.22905 14.7725M14.7715 14.7725C16.8543 12.6897 16.8543 9.31286 14.7715 7.23007M14.7715 14.7725L17.6 17.601M7.22905 14.7725C5.14625 12.6897 5.14625 9.31286 7.22905 7.23007M7.22905 14.7725L4.40066 17.601M14.7715 7.23007C12.6887 5.14727 9.31184 5.14727 7.22905 7.23007M14.7715 7.23007L17.6 4.40164M7.22905 7.23007L4.40066 4.40164M17.6 17.601C13.9551 21.2459 8.04556 21.2459 4.40066 17.601M17.6 17.601C21.2449 13.9561 21.2449 8.04653 17.6 4.40164M4.40066 17.601C0.755769 13.9561 0.755769 8.04653 4.40066 4.40164M17.6 4.40164C13.9551 0.756746 8.04556 0.756745 4.40066 4.40164" stroke="url(#paint0_linear_186_4240)" stroke-width="1.5"/>
<defs>
<linearGradient id="paint0_linear_186_4240" x1="0.314336" y1="-3.1215" x2="15.6051" y2="25.677" gradientUnits="userSpaceOnUse">
<stop stop-color="#1890FF"/>
<stop offset="1" stop-color="#0069CC"/>
</linearGradient>
</defs>
</svg>
