<svg width="14" height="14" viewBox="0 0 14 14" fill="none" xmlns="http://www.w3.org/2000/svg">
<path d="M3.31024 9.98103C3.33926 9.98103 3.36828 9.97813 3.39729 9.97377L5.8377 9.54576C5.86671 9.53996 5.89428 9.5269 5.91459 9.50513L12.0649 3.3548C12.0784 3.34138 12.0891 3.32543 12.0963 3.30788C12.1036 3.29033 12.1074 3.27151 12.1074 3.25251C12.1074 3.23351 12.1036 3.21469 12.0963 3.19714C12.0891 3.17959 12.0784 3.16365 12.0649 3.15022L9.65354 0.737388C9.62598 0.709821 9.5897 0.695312 9.55053 0.695312C9.51136 0.695312 9.47508 0.709821 9.44752 0.737388L3.29718 6.88772C3.27542 6.90949 3.26236 6.9356 3.25656 6.96462L2.82854 9.40502C2.81443 9.48275 2.81947 9.56274 2.84324 9.63808C2.867 9.71342 2.90877 9.78183 2.96493 9.83739C3.06069 9.93025 3.18111 9.98103 3.31024 9.98103ZM4.28814 7.45067L9.55053 2.18973L10.614 3.25324L5.35165 8.51418L4.0618 8.74196L4.28814 7.45067ZM12.3391 11.1998H1.66057C1.40377 11.1998 1.19629 11.4073 1.19629 11.6641V12.1864C1.19629 12.2502 1.24852 12.3025 1.31236 12.3025H12.6874C12.7512 12.3025 12.8034 12.2502 12.8034 12.1864V11.6641C12.8034 11.4073 12.596 11.1998 12.3391 11.1998Z" fill="white" fill-opacity="0.9"/>
</svg>
