<svg width="16" height="16" viewBox="0 0 16 16" fill="none" xmlns="http://www.w3.org/2000/svg">
<path d="M14.1606 1.30469H1.83918C1.54286 1.30469 1.30347 1.54408 1.30347 1.8404V14.1618C1.30347 14.4581 1.54286 14.6975 1.83918 14.6975H14.1606C14.4569 14.6975 14.6963 14.4581 14.6963 14.1618V1.8404C14.6963 1.54408 14.4569 1.30469 14.1606 1.30469ZM13.491 13.4922H2.50882V2.51004H13.491V13.4922ZM7.66507 6.12612H10.7454C10.8191 6.12612 10.8794 6.06585 10.8794 5.99219V5.18862C10.8794 5.11496 10.8191 5.05469 10.7454 5.05469H7.66507C7.59141 5.05469 7.53115 5.11496 7.53115 5.18862V5.99219C7.53115 6.06585 7.59141 6.12612 7.66507 6.12612ZM7.66507 8.53683H10.7454C10.8191 8.53683 10.8794 8.47656 10.8794 8.4029V7.59933C10.8794 7.52567 10.8191 7.4654 10.7454 7.4654H7.66507C7.59141 7.4654 7.53115 7.52567 7.53115 7.59933V8.4029C7.53115 8.47656 7.59141 8.53683 7.66507 8.53683ZM7.66507 10.9475H10.7454C10.8191 10.9475 10.8794 10.8873 10.8794 10.8136V10.01C10.8794 9.93638 10.8191 9.87612 10.7454 9.87612H7.66507C7.59141 9.87612 7.53115 9.93638 7.53115 10.01V10.8136C7.53115 10.8873 7.59141 10.9475 7.66507 10.9475ZM5.12043 5.5904C5.12043 5.768 5.19098 5.93833 5.31657 6.06391C5.44215 6.18949 5.61247 6.26005 5.79007 6.26005C5.96767 6.26005 6.138 6.18949 6.26358 6.06391C6.38917 5.93833 6.45972 5.768 6.45972 5.5904C6.45972 5.4128 6.38917 5.24248 6.26358 5.11689C6.138 4.99131 5.96767 4.92076 5.79007 4.92076C5.61247 4.92076 5.44215 4.99131 5.31657 5.11689C5.19098 5.24248 5.12043 5.4128 5.12043 5.5904ZM5.12043 8.00112C5.12043 8.17872 5.19098 8.34904 5.31657 8.47463C5.44215 8.60021 5.61247 8.67076 5.79007 8.67076C5.96767 8.67076 6.138 8.60021 6.26358 8.47463C6.38917 8.34904 6.45972 8.17872 6.45972 8.00112C6.45972 7.82352 6.38917 7.65319 6.26358 7.52761C6.138 7.40203 5.96767 7.33147 5.79007 7.33147C5.61247 7.33147 5.44215 7.40203 5.31657 7.52761C5.19098 7.65319 5.12043 7.82352 5.12043 8.00112ZM5.12043 10.4118C5.12043 10.5894 5.19098 10.7598 5.31657 10.8853C5.44215 11.0109 5.61247 11.0815 5.79007 11.0815C5.96767 11.0815 6.138 11.0109 6.26358 10.8853C6.38917 10.7598 6.45972 10.5894 6.45972 10.4118C6.45972 10.2342 6.38917 10.0639 6.26358 9.93832C6.138 9.81274 5.96767 9.74219 5.79007 9.74219C5.61247 9.74219 5.44215 9.81274 5.31657 9.93832C5.19098 10.0639 5.12043 10.2342 5.12043 10.4118Z" fill="white" fill-opacity="0.9"/>
</svg>
