<svg width="56" height="56" viewBox="0 0 56 56" fill="none" xmlns="http://www.w3.org/2000/svg">
<path fill-rule="evenodd" clip-rule="evenodd" d="M39.924 53.0612C36.3277 54.7722 32.3041 55.7305 28.056 55.7305C17.6867 55.7305 8.65163 50.0252 3.91406 41.5826L5.90352 40.675C7.00143 40.1254 7.98113 40.5381 8.82727 41.2727L14.6728 46.7549C14.0777 46.9018 13.4774 47.0714 12.8723 47.2651C18.3992 46.7676 19.7903 46.7589 25.6291 46.264C22.9258 45.8306 19.5472 45.7471 15.8889 46.4824C10.6491 43.5072 7.11362 37.8788 7.11362 31.4229C7.11362 24.4494 11.2321 18.4417 17.1751 15.7022L19.4411 24.7747L18.1642 15.2828L18.1695 15.2808C18.1749 15.2795 18.1375 15.0678 18.1114 14.8601C18.0453 14.3292 18.235 14.1816 18.7826 14.1148L23.0139 13.6921C23.7899 13.6493 24.021 13.6781 23.9162 14.4848L22.1705 27.9542C25.169 28.3409 27.5378 30.7411 27.8844 33.757L41.7071 32.1455C41.4179 39.1951 36.9114 45.1568 30.6432 47.575C34.0979 48.7951 37.242 50.6744 39.924 53.0612V53.0612ZM20.6645 41.7996C22.654 41.7996 24.4371 40.9187 25.6492 39.5263C24.4892 40.5347 22.9752 41.1451 21.3197 41.1451C17.6686 41.1451 14.7088 38.18 14.7088 34.523C14.7088 32.8574 15.3232 31.3361 16.3357 30.1721C14.9392 31.3862 14.0557 33.178 14.0557 35.1768C14.0557 38.8345 17.0142 41.7996 20.6645 41.7996ZM12.6466 24.2898C11.7851 24.2898 11.0865 24.9891 11.0865 25.8505C11.0865 26.712 11.7851 27.4106 12.6466 27.4106C12.9999 27.4106 13.3264 27.2931 13.5882 27.0954C15.9957 28.9346 17.9298 31.3107 19.0851 33.3456C18.9001 33.6969 18.7946 34.0976 18.7946 34.523C18.7946 35.9174 19.9246 37.048 21.3197 37.048C22.7134 37.048 23.844 35.9174 23.844 34.523C23.844 33.1973 22.8223 32.1101 21.5233 32.0066C21.7891 32.3872 22.0262 32.7485 22.2967 33.208C21.9574 32.8046 21.6409 32.3652 21.2776 31.9986H21.2749C19.6053 29.7961 16.4031 27.5662 14.1238 26.3548C14.1779 26.1965 14.2073 26.0269 14.2073 25.8505C14.2073 24.9891 13.5081 24.2898 12.6466 24.2898V24.2898ZM28.7532 3.65597L30.3894 4.18956L31.5468 2.91602L31.5441 4.63701L33.1128 5.34424L31.4753 5.87449L31.2876 7.5848L30.2779 6.19104L28.593 6.54098L29.6067 5.1499L28.7532 3.65597V3.65597ZM36.1054 5.23338L37.5559 6.15899L38.9944 5.21401L38.563 6.88024L39.906 7.95678L38.1883 8.06163L37.5792 9.67109L36.9495 8.06964L35.2292 7.9875L36.5581 6.8936L36.1054 5.23338V5.23338ZM50.1411 22.494L50.8269 24.0728L52.5473 24.0942L51.2584 25.2335L51.7699 26.877L50.2867 26.0028L48.8822 26.9972L49.2562 25.3176L47.8758 24.2885L49.5888 24.1242L50.1411 22.494ZM47.4411 15.4565L48.3867 16.895L50.0857 16.6225L49.0098 17.9655L49.7945 19.4975L48.1843 18.8891L46.9696 20.1086L47.0504 18.3896L45.5164 17.6109L47.1759 17.1568L47.4411 15.4565V15.4565ZM42.6354 9.67911L43.9503 10.789L45.503 10.0457L44.8526 11.6392L46.04 12.8847L44.323 12.7585L43.5055 14.2731L43.0948 12.6029L41.4019 12.2923L42.8638 11.3847L42.6354 9.67911V9.67911ZM28.0033 16.137C28.3519 16.1029 28.7045 16.0849 29.0618 16.0849C34.9694 16.0849 39.757 20.8739 39.757 26.7795C39.757 27.1368 39.739 27.4914 39.7049 27.84C38.0501 22.2209 33.621 17.7919 28.0033 16.137V16.137Z" fill="#FEFEFE"/>
<path fill-rule="evenodd" clip-rule="evenodd" d="M28.0007 0C43.4635 0 56 12.5358 56 27.9993C56 43.4636 43.4635 55.9993 28.0007 55.9993C12.5365 55.9993 0 43.4636 0 27.9993C0 12.5358 12.5365 0 28.0007 0ZM47.4338 8.56556C42.4605 3.59291 35.5892 0.516231 28.0007 0.516231C20.4108 0.516231 13.5395 3.59291 8.56622 8.56556C3.59358 13.5395 0.516898 20.4108 0.516898 27.9993C0.516898 35.5892 3.59358 42.4605 8.56622 47.4338C13.5395 52.4064 20.4108 55.4831 28.0007 55.4831C35.5892 55.4831 42.4605 52.4064 47.4338 47.4338C52.4071 42.4605 55.4831 35.5892 55.4831 27.9993C55.4831 20.4108 52.4071 13.5395 47.4338 8.56556Z" fill="#FEFEFE"/>
</svg>
