<svg width="70" height="58" viewBox="0 0 70 58" fill="none" xmlns="http://www.w3.org/2000/svg">
<g clip-path="url(#clip0_186_4637)">
<path fill-rule="evenodd" clip-rule="evenodd" d="M42.7461 47.1147C42.4684 47.1549 42.2106 47.2352 41.9924 47.3556C42.5081 47.8373 43.0635 48.299 43.6387 48.7004C43.9363 48.9012 44.2338 49.1019 44.5313 49.2825C44.69 49.3628 44.8487 49.4632 45.0074 49.5435C45.1661 49.6438 45.3248 49.7241 45.5033 49.7843C45.1661 49.684 44.8289 49.5234 44.5115 49.3829C44.1743 49.2223 43.8569 49.0617 43.5594 48.9012C43.242 48.7205 42.9445 48.5399 42.6469 48.3391C42.3494 48.1384 42.0717 47.9377 41.794 47.7169C41.8337 48.3391 42.0519 49.0417 42.4883 49.684C42.7065 50.0252 42.9643 50.3463 43.2817 50.6274C43.5991 50.9284 43.9561 51.2095 44.3726 51.4102C44.7892 51.651 45.2454 51.8317 45.6818 51.9321C45.9 51.9923 46.1182 52.0324 46.3364 52.0525C46.5546 52.0726 46.7529 52.0726 46.9711 52.0726C47.8042 52.0525 48.5183 51.7514 48.9944 51.3098C48.915 50.6474 48.558 49.9851 47.9827 49.3829C47.705 49.0617 47.3877 48.7807 47.0108 48.5198C46.8323 48.3793 46.6537 48.2588 46.4554 48.1384C46.257 48.018 46.0587 47.9176 45.8405 47.7972C45.4636 47.5965 45.0669 47.4359 44.7099 47.3355C44.5313 47.2753 44.3528 47.2352 44.1743 47.195C43.9958 47.1549 43.8371 47.1147 43.6586 47.0947C43.5197 47.0746 43.3809 47.0746 43.242 47.0746C43.0635 47.0746 42.9048 47.0746 42.7461 47.1147ZM14.5795 4.01975L14.3018 4.36098L14.0241 4.70221C13.9249 4.80257 13.8456 4.923 13.7464 5.04344C13.5679 5.2843 13.3894 5.5051 13.2307 5.74596L12.715 6.48863L12.5959 6.66928L12.4769 6.84993L12.2587 7.2313L12.0207 7.61268C11.9414 7.73311 11.8819 7.87361 11.8025 7.99405C11.6637 8.25498 11.5248 8.51592 11.386 8.77686L10.9893 9.57975C9.99747 11.7074 9.28338 13.9956 8.90651 16.3441C8.847 16.6251 8.80733 16.9262 8.76766 17.2272C8.72799 17.5083 8.68832 17.8093 8.66848 18.1104L8.58914 18.9936C8.5693 19.2947 8.5693 19.5757 8.54947 19.8768C8.52963 21.061 8.54947 22.2654 8.68832 23.4496L8.72799 23.8912L8.78749 24.3328C8.82717 24.6138 8.86684 24.9149 8.92634 25.216C9.02552 25.7981 9.1247 26.3802 9.28338 26.9623C9.4024 27.5444 9.58092 28.1064 9.7396 28.6885C9.83878 28.9695 9.93796 29.2505 10.0371 29.5315L10.176 29.953L10.3347 30.3545C10.7512 31.4785 11.267 32.5624 11.8223 33.6061L12.2587 34.389L12.3579 34.5696L12.4769 34.7703L12.715 35.1517C13.0125 35.6535 13.3695 36.1352 13.7067 36.617C13.7861 36.7374 13.8654 36.8779 13.9646 36.9983L14.2423 37.3396L14.7779 38.0421C14.9762 38.2629 15.1746 38.5038 15.3729 38.7246C15.5713 38.9454 15.7498 39.1661 15.968 39.3869C16.3647 39.8085 16.7813 40.25 17.2176 40.6314C17.4358 40.8321 17.654 41.0529 17.8722 41.2537L18.5665 41.8157L18.9037 42.0967L19.2607 42.3777L19.9748 42.8996C20.2128 43.0802 20.4509 43.2408 20.7087 43.4014C20.9467 43.562 21.1848 43.7426 21.4426 43.8831L22.2162 44.3448C22.3352 44.4251 22.4741 44.4853 22.5931 44.5656L22.9898 44.7663L23.3865 44.9871L23.5849 45.0874C23.6444 45.1075 23.7237 45.1477 23.7832 45.1878L24.5965 45.5491C24.8544 45.6896 25.1321 45.79 25.4098 45.9104C25.6875 46.0108 25.9652 46.1312 26.2429 46.2316L27.076 46.5126C27.2148 46.5527 27.3537 46.6129 27.5123 46.6531L27.9289 46.7735C28.2264 46.8538 28.5041 46.9341 28.7818 47.0144L29.6546 47.2151C29.7934 47.2552 29.9521 47.2753 30.091 47.3154L30.5274 47.3957L31.1621 47.4961C32.2927 47.6968 33.3639 48.0983 34.316 48.7004C33.8002 49.1219 33.344 49.5836 32.9275 50.0854L32.749 50.3263L33.3639 50.8482L33.5622 50.6073C33.9788 50.0653 34.4747 49.6037 35.0102 49.1822C35.5259 49.6037 36.0218 50.0653 36.4582 50.6073L36.6367 50.8482L37.2715 50.3263L37.0731 50.0854C36.6566 49.5836 36.2004 49.1219 35.6846 48.7004C36.6367 48.0983 37.7079 47.6968 38.8385 47.4961L39.4732 47.3957L39.9096 47.3154C40.0485 47.2753 40.2072 47.2552 40.346 47.2151L41.2188 47.0144C41.4965 46.9341 41.794 46.8538 42.0717 46.7735L42.5081 46.6531C42.6469 46.6129 42.7858 46.5527 42.9246 46.5126L43.7577 46.2316C44.0354 46.1312 44.3131 46.0108 44.5908 45.9104C44.8685 45.79 45.1462 45.6896 45.4041 45.5491L46.2174 45.1878C46.2769 45.1477 46.3562 45.1075 46.4157 45.0874L46.6141 44.9871L47.0108 44.7663L47.4075 44.5656C47.5265 44.4853 47.6654 44.4251 47.7844 44.3448L48.558 43.8831C48.8158 43.7426 49.0539 43.562 49.2919 43.4014C49.5497 43.2408 49.7878 43.0802 50.0456 42.8996L50.7399 42.3777L51.0969 42.0967L51.454 41.8157L52.1284 41.2537C52.3466 41.0529 52.5648 40.8321 52.783 40.6314C53.2193 40.25 53.6359 39.8085 54.0326 39.3869C54.2508 39.1661 54.4492 38.9454 54.6277 38.7246C54.826 38.5038 55.0244 38.2629 55.2227 38.0421L55.7583 37.3396L56.036 36.9983C56.1352 36.8779 56.2145 36.7374 56.2939 36.617C56.6311 36.1352 56.9881 35.6535 57.2856 35.1517L57.5237 34.7703L57.6427 34.5696L57.7617 34.389L58.1783 33.6061C58.7337 32.5624 59.2494 31.4785 59.6659 30.3545L59.8246 29.953L59.9833 29.5315C60.0626 29.2505 60.1618 28.9695 60.261 28.6885C60.4197 28.1064 60.5982 27.5444 60.7172 26.9623C60.8759 26.3802 60.9751 25.7981 61.0743 25.216C61.1338 24.9149 61.1734 24.6138 61.2131 24.3328L61.2726 23.8912L61.3123 23.4496C61.4511 22.2654 61.471 21.061 61.4511 19.8768C61.4313 19.5757 61.4313 19.2947 61.4115 18.9936L61.3321 18.1104C61.3123 17.8093 61.2726 17.5083 61.2329 17.2272C61.1933 16.9262 61.1536 16.6251 61.0941 16.3441C60.7172 13.9956 60.0031 11.7074 59.0114 9.57975L58.6146 8.77686C58.4758 8.51592 58.3369 8.25498 58.1981 7.99405C58.1187 7.87361 58.0592 7.73311 57.9799 7.61268L57.7419 7.2313L57.5237 6.84993L57.4047 6.66928L57.2856 6.48863L56.7898 5.74596C56.6112 5.5051 56.4327 5.2843 56.2542 5.04344C56.155 4.923 56.0757 4.80257 55.9765 4.70221L55.6988 4.36098L55.4211 4.01975C55.3219 3.89932 55.2426 3.77889 55.1236 3.67853C55.2426 3.77889 55.3219 3.89932 55.4211 4.01975L55.6988 4.36098L55.9765 4.70221C56.0558 4.82264 56.1352 4.94308 56.2344 5.06351C56.4129 5.30437 56.5914 5.52517 56.7501 5.76603L57.2261 6.50871L57.365 6.68935L57.4642 6.89008L57.7022 7.27145L57.9204 7.65282C57.9997 7.77325 58.0592 7.91376 58.1386 8.03419C58.2576 8.29513 58.3964 8.55607 58.5353 8.81701L58.9122 9.61989C59.8841 11.7676 60.5585 14.0358 60.8957 16.3641C60.9552 16.6652 60.9949 16.9462 61.0148 17.2473C61.0544 17.5484 61.0941 17.8294 61.1139 18.1305L61.1734 19.0137C61.1933 19.2947 61.1933 19.5958 61.1933 19.8968C61.2131 21.061 61.1734 22.2453 61.0148 23.4095L60.9751 23.8511L60.8957 24.2726C60.8561 24.5737 60.8164 24.8547 60.7569 25.1558C60.6379 25.7178 60.5387 26.2999 60.38 26.8619C60.2412 27.444 60.0626 28.006 59.904 28.568C59.8048 28.849 59.7056 29.11 59.6064 29.391L59.4676 29.8125L59.2891 30.214C58.8725 31.3179 58.3568 32.3617 57.8014 33.3854L57.3452 34.1481L57.246 34.3287L57.127 34.5094L56.8889 34.8908C56.5914 35.3926 56.2344 35.8542 55.8972 36.336C55.8178 36.4363 55.7385 36.5568 55.6393 36.6772L55.3616 37.0184L54.826 37.7009C54.6277 37.9217 54.4293 38.1425 54.231 38.3633C54.0326 38.564 53.8541 38.8048 53.6359 39.0056C53.2392 39.407 52.8425 39.8285 52.3862 40.2099C52.1681 40.4106 51.9697 40.6113 51.7515 40.792L51.0771 41.3339L50.7399 41.6149L50.3828 41.8759L49.6886 42.3777C49.4307 42.5583 49.1927 42.6988 48.9547 42.8594C48.7167 43.02 48.4786 43.1806 48.2208 43.3211L47.467 43.7627C47.348 43.843 47.2091 43.9032 47.0901 43.9634L46.6934 44.1641L46.3165 44.3648L46.1182 44.4652C46.0587 44.4853 45.9793 44.5254 45.9198 44.5455L45.1264 44.9068C44.8685 45.0272 44.5908 45.1276 44.333 45.2279C44.0553 45.3283 43.7974 45.4487 43.5197 45.529L42.7065 45.81C42.5676 45.8502 42.4287 45.8903 42.2899 45.9305L41.8734 46.0509C41.5957 46.1111 41.318 46.1914 41.0403 46.2717L40.1873 46.4523C40.0485 46.4724 39.9096 46.5126 39.7708 46.5326L39.3344 46.6129L38.6996 46.7133V46.6932C38.6798 46.7133 38.66 46.7133 38.6401 46.7133L38.4815 46.7334V46.7534C37.2318 46.9943 36.0417 47.476 35.0102 48.1986C33.9589 47.476 32.7688 46.9943 31.5191 46.7534V46.7334L31.3605 46.7133C31.3406 46.7133 31.3208 46.7133 31.301 46.6932V46.7133L30.6662 46.6129L30.2298 46.5326C30.091 46.5126 29.9521 46.4724 29.8133 46.4523L28.9603 46.2717C28.6826 46.1914 28.405 46.1111 28.1273 46.0509L27.7107 45.9305C27.5719 45.8903 27.433 45.8502 27.314 45.81L26.4809 45.529C26.2032 45.4487 25.9453 45.3283 25.6676 45.2279C25.4098 45.1276 25.1321 45.0272 24.8742 44.9068L24.0808 44.5455C24.0213 44.5254 23.9419 44.4853 23.8824 44.4652L23.6841 44.3648L23.3072 44.1641L22.9105 43.9634C22.7915 43.9032 22.6526 43.843 22.5336 43.7627L21.7798 43.3211C21.522 43.1806 21.284 43.02 21.0459 42.8594C20.8079 42.6988 20.5699 42.5583 20.3318 42.3777L19.6178 41.8759L19.2607 41.6149L18.9235 41.3339L18.2491 40.792C18.0309 40.6113 17.8326 40.4106 17.6144 40.2099C17.178 39.8285 16.7614 39.407 16.3647 39.0056C16.1465 38.8048 15.968 38.564 15.7696 38.3633C15.5713 38.1425 15.3729 37.9217 15.1944 37.7009L14.639 37.0184L14.3613 36.6772C14.282 36.5568 14.2026 36.4363 14.1034 36.336C13.7662 35.8542 13.429 35.3926 13.1117 34.8908L12.8736 34.5094L12.7546 34.3287L12.6554 34.1481L12.1992 33.3854C11.6438 32.3617 11.1281 31.3179 10.7116 30.214L10.533 29.8125L10.3942 29.391C10.295 29.11 10.1958 28.849 10.0966 28.568C9.93796 28.006 9.75944 27.444 9.62059 26.8619C9.46191 26.2999 9.36273 25.7178 9.24371 25.1558C9.18421 24.8547 9.14454 24.5737 9.10486 24.2726L9.02552 23.8511L8.98585 23.4095C8.82717 22.2453 8.78749 21.061 8.80733 19.8968C8.80733 19.5958 8.82717 19.2947 8.82717 19.0137L8.88667 18.1305C8.90651 17.8294 8.94618 17.5484 8.98585 17.2473C9.02552 16.9462 9.04536 16.6652 9.10486 16.3641C9.44207 14.0358 10.1165 11.7676 11.0884 9.61989L11.4653 8.81701C11.6042 8.55607 11.743 8.29513 11.8819 8.03419C11.9414 7.91376 12.0009 7.77325 12.0802 7.65282L12.3182 7.27145L12.5364 6.89008L12.6554 6.68935L12.7745 6.50871L13.2505 5.76603C13.4092 5.52517 13.6076 5.30437 13.7662 5.06351C13.8654 4.94308 13.9448 4.82264 14.0241 4.70221L14.3018 4.36098L14.5795 4.01975C14.6787 3.89932 14.7779 3.77889 14.877 3.67853C14.7779 3.77889 14.6787 3.89932 14.5795 4.01975ZM11.5645 0.426834C11.4851 0.507123 11.4256 0.607484 11.3661 0.707845C11.3066 0.808206 11.2669 0.928639 11.2074 1.029C11.1281 1.26987 11.0686 1.5308 11.0488 1.81181C11.0289 2.09283 11.0289 2.39391 11.0884 2.69499C11.3066 3.83911 11.981 4.72228 12.715 5.06351C12.5761 4.62192 12.4769 4.18033 12.3976 3.73874C12.3777 3.63838 12.3579 3.51795 12.3579 3.39752C12.3381 3.29716 12.3182 3.17672 12.3182 3.07636C12.2984 2.85557 12.2786 2.63477 12.2786 2.39391C12.3381 2.85557 12.4174 3.29716 12.5364 3.73874C12.6554 4.18033 12.7943 4.60185 12.953 5.02336C13.0918 4.923 13.191 4.7825 13.2902 4.62192C13.3695 4.46134 13.429 4.28069 13.4885 4.07997C13.5877 3.65846 13.5877 3.15665 13.5084 2.6147C13.3497 1.45052 12.7745 0.38669 12.0207 0.0253906C11.862 0.105679 11.7033 0.246185 11.5645 0.426834ZM8.33127 6.70943C8.52963 7.27145 8.86684 7.77325 9.24371 8.13455C9.62059 8.51592 10.0371 8.75679 10.4339 8.87722C10.0173 8.01412 9.71977 7.11087 9.50158 6.18755C9.66026 6.64921 9.83878 7.0908 10.0173 7.53239C10.1165 7.73311 10.2355 7.9539 10.3347 8.15462C10.4537 8.37542 10.5727 8.57614 10.6917 8.77686C10.9099 8.51592 11.0488 8.15462 11.0686 7.69296C11.0884 7.47217 11.0686 7.2313 11.0289 6.99044C10.9893 6.7295 10.9297 6.46856 10.8504 6.18755C10.7512 5.88647 10.6322 5.58538 10.4735 5.32445C10.3347 5.06351 10.1958 4.82264 10.0173 4.60185C9.66026 4.18033 9.26355 3.85918 8.847 3.73874C8.15275 4.24055 7.89489 5.48502 8.33127 6.70943ZM5.63363 9.51953C5.63363 9.80054 5.65346 10.1016 5.7328 10.4027C5.81215 10.7038 5.951 11.0049 6.10968 11.306C6.74442 12.4501 7.81555 13.0924 8.68832 13.1727C8.39078 12.7712 8.13292 12.3497 7.87505 11.9081C7.75604 11.6873 7.63703 11.4665 7.53785 11.2257C7.41883 11.0049 7.33949 10.7841 7.24031 10.5432C7.35933 10.764 7.47834 10.9848 7.59735 11.2056C7.7362 11.4264 7.87505 11.6472 8.0139 11.8479C8.31144 12.2694 8.60897 12.6508 8.94618 13.0322C9.1247 12.711 9.18421 12.3096 9.1247 11.8278C9.08503 11.3662 8.90651 10.8443 8.62881 10.2823C8.0139 9.11809 7.02212 8.21484 6.10968 8.13455C5.81215 8.45571 5.61379 8.93744 5.63363 9.51953ZM4.18562 13.1927C4.06661 13.3935 3.98727 13.6343 3.9476 13.8752C3.90792 14.1361 3.88809 14.4372 3.9476 14.7182C4.06661 15.3204 4.32447 15.9426 4.80053 16.5047C5.23691 17.0265 5.75264 17.4079 6.26837 17.6488C6.80393 17.8896 7.33949 17.9699 7.79571 17.9298C7.59736 17.7491 7.41883 17.5685 7.24031 17.3678C7.06179 17.1871 6.90311 16.9864 6.72459 16.7857C6.5659 16.5649 6.38738 16.3641 6.24853 16.1434C6.08985 15.9226 5.951 15.7018 5.81215 15.481C6.44689 16.3441 7.22048 17.0867 8.03374 17.7291C8.17259 17.3678 8.15275 16.9462 8.0139 16.4645C7.87505 15.9828 7.59736 15.481 7.20064 14.9591C6.40722 13.9153 5.27658 13.1927 4.34431 13.1927C4.2848 13.1927 4.24513 13.1927 4.18562 13.1927ZM3.17401 18.7527C3.07483 18.9936 3.03516 19.2545 3.03516 19.5356C3.03516 19.656 3.05499 19.8166 3.07483 19.9571C3.1145 20.0976 3.15417 20.2381 3.19384 20.3987C3.31286 20.6797 3.47154 20.9807 3.6699 21.2618C3.76908 21.4023 3.86825 21.5428 3.98727 21.6833C4.12612 21.8238 4.26497 21.9442 4.40382 22.0646C4.95921 22.5263 5.55428 22.8274 6.14935 22.9679C6.74442 23.1084 7.31966 23.1084 7.77588 22.9679C7.53785 22.8073 7.31966 22.6668 7.10146 22.4862C6.88327 22.3256 6.66508 22.165 6.44689 21.9844C6.03034 21.6231 5.63363 21.2417 5.25675 20.8202C6.08985 21.5829 7.02212 22.2052 7.97423 22.727C8.05358 22.3256 7.9544 21.884 7.71637 21.4223C7.59736 21.1815 7.43867 20.9406 7.26015 20.7198C7.08163 20.4789 6.8436 20.2381 6.60557 20.0173C6.07001 19.5356 5.45511 19.1542 4.8402 18.9334C4.44349 18.7728 4.06661 18.6925 3.68973 18.6925C3.51121 18.6925 3.33269 18.7126 3.17401 18.7527ZM3.17401 24.674C3.1145 24.9149 3.1145 25.1959 3.17401 25.497C3.23351 25.778 3.33269 26.059 3.51121 26.3601C3.84842 26.9221 4.36414 27.4641 5.05839 27.8454C6.36755 28.5881 7.81555 28.568 8.70815 28.1064C8.17259 27.8856 7.65686 27.6447 7.16097 27.3637C6.90311 27.2031 6.66508 27.0626 6.40722 26.902C6.16919 26.7415 5.951 26.5809 5.71297 26.4002C5.97083 26.5407 6.20886 26.7013 6.46672 26.8418C6.72459 26.9623 7.00229 27.1028 7.26015 27.2232C7.79571 27.444 8.31144 27.6447 8.86684 27.8053C8.86684 27.3838 8.68832 26.9422 8.35111 26.5207C8.19242 26.2999 7.97423 26.0992 7.73621 25.8784C7.51801 25.6776 7.22048 25.497 6.92294 25.2963C6.2882 24.9149 5.57412 24.6339 4.91954 24.5135C4.68152 24.4733 4.44349 24.4532 4.2253 24.4532C3.82858 24.4532 3.47154 24.5135 3.17401 24.674ZM4.18562 30.7559C4.16579 31.8599 5.19724 33.1445 6.76426 33.6664C7.14114 33.7868 7.51801 33.8671 7.87505 33.9072C8.2321 33.9273 8.58914 33.9072 8.90651 33.8671C9.58092 33.7667 10.1363 33.5259 10.5529 33.1846C10.2752 33.1445 9.97763 33.0642 9.6801 33.004C9.38256 32.9237 9.10486 32.8434 8.82717 32.743C8.52963 32.6427 8.25193 32.5423 7.97423 32.4219C7.6767 32.3015 7.41883 32.181 7.14114 32.0405C7.43867 32.1409 7.71637 32.2412 8.0139 32.3416C8.31144 32.4219 8.58914 32.5022 8.88667 32.5825C9.48174 32.7029 10.057 32.8033 10.6719 32.8635C10.652 32.7631 10.6124 32.6427 10.5529 32.5423C10.5132 32.442 10.4537 32.3416 10.3942 32.2212C10.2553 32.0204 10.0966 31.8197 9.87845 31.6391C9.75944 31.5387 9.64043 31.4584 9.52141 31.3581C9.4024 31.2778 9.26355 31.1975 9.1247 31.1172C8.847 30.9566 8.52963 30.796 8.17259 30.6756C7.45851 30.3946 6.70475 30.2541 6.0105 30.2541C5.29642 30.2541 4.64184 30.4147 4.18562 30.7559ZM9.4024 35.7539C9.00569 35.7539 8.62881 35.794 8.27177 35.8542C7.55768 36.0148 6.94278 36.2958 6.54607 36.7374C6.64524 37.2994 7.00229 37.8815 7.59735 38.3231C7.87505 38.5238 8.19242 38.7246 8.5693 38.8851C8.94618 39.0256 9.34289 39.126 9.77928 39.1862C10.176 39.2464 10.5727 39.2464 10.9297 39.2063C11.3265 39.1661 11.6835 39.0859 12.0009 38.9654C12.6554 38.7246 13.191 38.3633 13.548 37.9417C13.2307 37.9417 12.9331 37.9217 12.6158 37.9217C12.2984 37.9016 11.981 37.8615 11.6835 37.8213C11.3661 37.7812 11.0488 37.741 10.7512 37.6808C10.5925 37.6407 10.4339 37.6005 10.2752 37.5804C10.1363 37.5403 9.97763 37.5002 9.81895 37.46C9.97763 37.4801 10.1363 37.5002 10.295 37.5202C10.4537 37.5403 10.6124 37.5604 10.7711 37.5804C11.0884 37.6005 11.4058 37.6206 11.7232 37.6407C12.3579 37.6607 12.9728 37.6407 13.5877 37.5804C13.548 37.46 13.4885 37.3596 13.429 37.2794C13.3497 37.179 13.2704 37.0786 13.191 36.9783C13.0125 36.7976 12.7943 36.6371 12.5364 36.4765C12.4174 36.4163 12.2786 36.336 12.1199 36.2757C11.981 36.2155 11.8223 36.1553 11.6637 36.0951C11.3463 35.9947 10.9893 35.8944 10.6124 35.8342C10.414 35.8141 10.1958 35.794 9.99747 35.7739C9.81895 35.7539 9.64043 35.7539 9.46191 35.7539C9.44207 35.7539 9.42223 35.7539 9.4024 35.7539ZM14.1233 40.5913C12.3976 40.6515 10.7512 41.2938 10.1363 42.3576C10.2553 42.6186 10.4339 42.8996 10.6719 43.1404C10.9099 43.3813 11.1876 43.582 11.5248 43.7627C11.8819 43.9233 12.2587 44.0437 12.6554 44.124C12.7546 44.1641 12.8538 44.1641 12.9728 44.1842C13.072 44.2043 13.1712 44.2043 13.2902 44.2043C13.5084 44.2243 13.7266 44.2243 13.9448 44.2043C15.6506 44.0838 16.9995 43.1404 17.5549 42.1168C16.9003 42.2773 16.2655 42.3576 15.611 42.3978C15.2936 42.4379 14.9564 42.4379 14.6192 42.4379C14.3018 42.4379 13.9844 42.4379 13.6472 42.3978C13.9844 42.3978 14.3018 42.3777 14.639 42.3375C14.9564 42.3175 15.2936 42.2573 15.611 42.2171C15.9482 42.1569 16.2655 42.0766 16.5829 42.0164C16.9003 41.9361 17.1978 41.8558 17.5152 41.7354C17.4358 41.6551 17.3763 41.5547 17.2772 41.4744C17.1978 41.3741 17.0986 41.2938 16.9796 41.2135C16.7614 41.073 16.5036 40.9526 16.206 40.8522C15.9283 40.7518 15.611 40.6916 15.2539 40.6314C14.9961 40.6113 14.7184 40.5913 14.4407 40.5913C14.3415 40.5913 14.2225 40.5913 14.1233 40.5913ZM20.3517 44.3648C20.193 44.3648 20.0541 44.3648 19.8955 44.3849C19.5186 44.405 19.1219 44.4853 18.7252 44.5856C17.8722 44.8064 17.0391 45.1677 16.3845 45.6294C16.0672 45.8502 15.7895 46.1111 15.5515 46.3721C15.3333 46.633 15.1547 46.9341 15.0556 47.2352C15.2341 47.4961 15.4721 47.7169 15.7696 47.9176C16.0473 48.1183 16.3845 48.2789 16.7813 48.3592C17.1581 48.4596 17.5747 48.5198 18.0111 48.4997C18.2293 48.4997 18.4475 48.4796 18.6656 48.4395C18.9037 48.3993 19.1219 48.3592 19.3401 48.299C19.7764 48.1585 20.1732 47.9979 20.5104 47.7972C20.8674 47.5764 21.1848 47.3355 21.4625 47.0746C21.998 46.5527 22.3749 45.9505 22.5336 45.3685C22.2361 45.509 21.9187 45.6495 21.6013 45.7699C21.284 45.8903 20.9666 45.9907 20.6492 46.091C20.312 46.1914 19.9946 46.2717 19.6574 46.352C19.3202 46.4323 18.983 46.4724 18.6458 46.5326C18.983 46.4523 19.3004 46.352 19.6376 46.2516C19.955 46.1513 20.2922 46.0308 20.6095 45.8903C20.9269 45.7699 21.2244 45.6294 21.5418 45.4688C21.6807 45.4086 21.8393 45.3283 21.9782 45.248C22.1369 45.1677 22.2757 45.0874 22.4344 44.9871C22.3352 44.9068 22.2361 44.8466 22.117 44.7663C22.0179 44.7061 21.8989 44.6459 21.7798 44.5856C21.522 44.4853 21.2244 44.4251 20.9071 44.3849C20.7286 44.3648 20.55 44.3648 20.3517 44.3648ZM14.758 5.10365C14.5597 5.18394 14.4208 5.2843 14.282 5.40474C14.163 5.52517 14.0836 5.66567 14.0241 5.80618C14.4605 5.84632 14.8969 5.88647 15.3134 5.92661C15.73 5.96676 16.1664 6.0069 16.5631 6.02697C16.3647 6.04705 16.1664 6.04704 15.968 6.04704C15.8688 6.04704 15.7498 6.04704 15.6506 6.04704C15.5514 6.04704 15.4523 6.04704 15.3531 6.04704C14.9365 6.06712 14.5002 6.06712 14.0638 6.04704C14.5993 6.62914 15.6506 7.01051 16.6622 7.07073C16.9399 7.0908 17.1978 7.0908 17.416 7.07073C17.6342 7.05065 17.8325 6.99044 18.0111 6.93022C18.0904 6.89008 18.1698 6.84993 18.2293 6.80979C18.3086 6.76964 18.3681 6.7295 18.4276 6.66928C18.5466 6.56892 18.6061 6.44849 18.6458 6.30798C18.1896 5.6456 17.2176 5.00329 16.087 4.90293C15.9878 4.90293 15.9085 4.88286 15.8291 4.88286C15.4126 4.88286 15.0556 4.96315 14.758 5.10365ZM14.2026 8.05426H14.1828C14.0836 8.05426 13.9844 8.05426 13.8654 8.05426C13.6076 8.07434 13.3497 8.13455 13.1117 8.21484C12.8736 8.27506 12.6951 8.39549 12.5166 8.51592C12.1794 8.73672 11.9414 9.0378 11.8819 9.37903C12.3381 9.33888 12.7943 9.29874 13.2505 9.25859C13.7067 9.23852 14.1431 9.17831 14.5597 9.13816C13.7662 9.31881 12.8736 9.45932 11.981 9.61989C12.3182 9.88083 12.7745 10.0414 13.2703 10.1418C13.7861 10.2421 14.3216 10.2622 14.877 10.202C15.1547 10.1819 15.4126 10.1217 15.6506 10.0615C15.7498 10.0213 15.849 9.98119 15.9482 9.94105C16.0672 9.9009 16.1465 9.86076 16.2259 9.82062C16.5631 9.61989 16.7416 9.35896 16.7813 9.05787C16.4837 8.75679 16.0473 8.47578 15.5515 8.29513C15.2936 8.19477 15.0159 8.13455 14.7382 8.07434C14.5597 8.05426 14.3811 8.05426 14.2026 8.05426ZM12.2587 11.7475C11.7033 11.8881 11.2471 12.149 10.9297 12.4501C10.6124 12.7712 10.4339 13.1125 10.4339 13.4738C10.9099 13.3533 11.386 13.2329 11.8223 13.0924C12.2786 12.9719 12.7348 12.8515 13.1712 12.7311C12.7546 12.8917 12.3381 13.0522 11.9215 13.2128C11.4653 13.3734 11.0289 13.534 10.5727 13.7146C11.3661 14.096 12.5959 14.096 13.6869 13.7748C13.9844 13.6945 14.2225 13.5942 14.4605 13.4738C14.6787 13.3734 14.877 13.253 15.0357 13.1125C15.3134 12.8515 15.4919 12.5705 15.4523 12.2493C14.9365 11.868 14.1431 11.607 13.2902 11.607C12.953 11.607 12.5959 11.6472 12.2587 11.7475ZM11.1479 15.762C10.5925 16.0229 10.1958 16.3842 9.89829 16.7455C9.64043 17.1269 9.52141 17.5484 9.58092 17.8896C10.533 17.4681 11.4058 17.0466 12.2786 16.6251C11.8819 16.866 11.4851 17.1068 11.0686 17.3477C10.8504 17.4882 10.652 17.6086 10.4339 17.7291C10.2157 17.8696 9.99747 17.99 9.77928 18.1104C10.2157 18.2509 10.7512 18.2509 11.3265 18.1506C11.8819 18.0502 12.4769 17.8696 13.0125 17.6086C13.5679 17.3276 14.0043 17.0065 14.2621 16.6652C14.401 16.5047 14.5002 16.3441 14.5398 16.1835C14.5993 16.0229 14.5993 15.8623 14.5597 15.7018C14.1233 15.481 13.5679 15.3605 12.9927 15.3605C12.3976 15.3605 11.743 15.481 11.1479 15.762ZM12.5563 19.3348C11.9612 19.4553 11.3066 19.6961 10.7512 20.0976C10.4934 20.2782 10.2752 20.4789 10.0966 20.6997C9.89829 20.9005 9.75944 21.1213 9.66026 21.342C9.44207 21.7836 9.42223 22.2252 9.54125 22.5865C10.4339 21.9643 11.267 21.342 12.0802 20.76C11.7232 21.0811 11.3463 21.4023 10.9694 21.7435C10.7711 21.9241 10.5727 22.0847 10.3743 22.2654C10.176 22.4259 9.97763 22.6066 9.77928 22.7872C10.2553 22.8274 10.8107 22.727 11.3661 22.5263C11.9414 22.3055 12.5166 22.0044 13.0125 21.6231C13.1513 21.5227 13.2704 21.4223 13.3695 21.322C13.4885 21.2216 13.6076 21.1213 13.6869 21.0209C13.8853 20.8202 14.0439 20.6194 14.1431 20.4388C14.1828 20.3384 14.2423 20.2381 14.2621 20.1578C14.3018 20.0574 14.3216 19.9571 14.3415 19.8768C14.3613 19.6961 14.3216 19.5356 14.2423 19.375C13.9844 19.2947 13.6671 19.2545 13.3497 19.2545C13.0918 19.2545 12.834 19.2746 12.5563 19.3348ZM12.8736 23.4496C12.2587 23.6905 11.6637 24.0518 11.1479 24.5737C10.9099 24.8145 10.7314 25.0755 10.5925 25.3163C10.4339 25.5773 10.3347 25.8382 10.2553 26.0791C10.1363 26.5809 10.176 27.0425 10.3743 27.3838C10.7711 26.9823 11.1678 26.5809 11.5446 26.1794C11.9017 25.778 12.2786 25.3766 12.6554 24.9952C12.4968 25.1959 12.3381 25.3966 12.1596 25.6174C12.0009 25.8181 11.8422 26.0189 11.6835 26.2397C11.3463 26.6612 11.0091 27.1028 10.6719 27.5444C11.6835 27.444 12.8736 26.6812 13.7662 25.6977C14.2225 25.1959 14.5597 24.6941 14.6985 24.2726C14.758 24.0518 14.8175 23.8511 14.7977 23.6704C14.7779 23.4697 14.7184 23.3091 14.5993 23.1686C14.52 23.1686 14.4407 23.1485 14.3613 23.1485C13.9051 23.1485 13.3894 23.2489 12.8736 23.4496ZM12.5166 29.0297C12.3182 29.3107 12.1794 29.6118 12.0802 29.8928C12.0207 30.0534 11.981 30.1939 11.9612 30.3344C11.9215 30.4749 11.9017 30.6154 11.9017 30.7358C11.8819 31.0168 11.9215 31.2577 11.981 31.4785C12.0009 31.5989 12.0405 31.6993 12.1 31.7997C12.1397 31.8799 12.1992 31.9803 12.2786 32.0606C12.5959 31.5588 12.9133 31.057 13.2307 30.5753C13.3695 30.3344 13.5282 30.0935 13.6869 29.8527C13.8257 29.6118 13.9844 29.391 14.1233 29.1501C13.8853 29.6319 13.6472 30.1136 13.3894 30.6154C13.2505 30.8563 13.1315 31.1172 12.9927 31.3781C12.8538 31.619 12.7348 31.8799 12.5959 32.1409C13.1117 31.9803 13.6274 31.6591 14.1233 31.2176C14.3613 30.9968 14.5993 30.7559 14.7977 30.495C15.0357 30.214 15.2341 29.9329 15.4126 29.6519C15.611 29.3308 15.7498 29.0498 15.8688 28.7688C15.9878 28.4877 16.0672 28.2268 16.087 27.9859C16.1068 27.8856 16.1267 27.7651 16.1068 27.6648C16.1068 27.5644 16.1068 27.4641 16.0672 27.3637C16.0275 27.1831 15.9283 27.0225 15.7895 26.902C14.7184 27.0225 13.3497 27.7651 12.5166 29.0297ZM15.9482 31.4785C15.6903 31.7194 15.4523 32.0004 15.2341 32.3015C15.1151 32.462 15.0159 32.6226 14.9167 32.7832C14.8175 32.9638 14.7382 33.1445 14.6588 33.3251C14.52 33.6463 14.4407 33.9875 14.3811 34.3087C14.3613 34.4693 14.3415 34.6098 14.3415 34.7703C14.3415 34.9108 14.3613 35.0513 14.3811 35.1919C14.4208 35.4729 14.4803 35.7137 14.5993 35.9345C14.6588 36.0349 14.7184 36.1352 14.7779 36.2356C14.8572 36.3159 14.9365 36.3962 15.0159 36.4564C15.2341 35.8944 15.4721 35.3123 15.6903 34.7503C15.8093 34.4693 15.9085 34.2083 16.0275 33.9273C16.0672 33.7868 16.1267 33.6463 16.1664 33.5259C16.2259 33.3854 16.2854 33.2449 16.3449 33.1043C16.3052 33.2449 16.2655 33.3854 16.2259 33.5259C16.1862 33.6463 16.1465 33.7868 16.1068 33.9273C16.0275 34.2083 15.9482 34.4693 15.8688 34.7503C15.7895 35.0313 15.7101 35.3324 15.611 35.6134C15.5316 35.8944 15.4523 36.1955 15.3729 36.4765C15.849 36.2155 16.325 35.7739 16.7416 35.232C16.9399 34.951 17.1185 34.6499 17.297 34.3287C17.4755 34.0277 17.6342 33.6864 17.7532 33.3653C17.8921 33.004 17.9912 32.6628 18.0507 32.3617C18.1102 32.0606 18.1301 31.7796 18.1301 31.5387C18.0904 31.0369 17.9317 30.6756 17.5945 30.4749C17.059 30.6355 16.4837 30.9767 15.9482 31.4785ZM17.6937 37.2392C17.6144 37.6005 17.5945 37.9618 17.6144 38.283C17.6144 38.6242 17.6739 38.9253 17.773 39.2063C17.9714 39.7482 18.2888 40.1698 18.6855 40.3504C18.8045 39.7282 18.9235 39.1059 19.0227 38.4837C19.0822 38.1625 19.1417 37.8615 19.1814 37.5604C19.2409 37.2593 19.3004 36.9582 19.3599 36.6571C19.3202 36.9582 19.3004 37.2593 19.2806 37.5403C19.2409 37.8414 19.221 38.1425 19.2012 38.4435C19.1615 39.0457 19.0822 39.688 19.0425 40.3103C19.9351 39.5475 20.5699 38.0822 20.8277 36.617C20.8674 36.4163 20.8872 36.2356 20.9071 36.055C20.9071 35.9747 20.9071 35.8743 20.9269 35.794C20.9269 35.7137 20.9269 35.6334 20.9269 35.5532C20.9467 35.2119 20.9071 34.9309 20.8476 34.69C20.7881 34.4492 20.6889 34.2284 20.5699 34.0678C20.4509 33.9072 20.2922 33.7868 20.1136 33.7266C19.0822 34.3087 18.0111 35.6134 17.6937 37.2392ZM22.5336 37.2794C22.3352 37.5604 22.1369 37.9016 21.9782 38.2428C21.6608 38.9454 21.4625 39.7683 21.4625 40.6314C21.4625 41.0329 21.522 41.3942 21.6212 41.7153C21.7005 42.0565 21.8195 42.3576 21.9782 42.6186C22.1369 42.8795 22.3154 43.0802 22.5336 43.2609C22.6328 43.3412 22.732 43.4014 22.8311 43.4616C22.9501 43.5218 23.0493 43.562 23.1683 43.582C23.1683 43.4214 23.1485 43.2408 23.1485 43.0802C23.1485 42.9196 23.1485 42.7591 23.1287 42.5784C23.1287 42.2573 23.1088 41.916 23.1088 41.5949C23.089 41.2737 23.0692 40.9526 23.0692 40.6515C23.0493 40.3303 23.0493 40.0092 23.0295 39.688C23.0692 39.9891 23.1088 40.2902 23.1485 40.5913C23.1882 40.9124 23.2278 41.2135 23.2675 41.5146C23.3072 41.8357 23.3469 42.1569 23.3865 42.4781C23.446 42.7992 23.4857 43.1204 23.5254 43.4415C23.9023 42.9799 24.1601 42.3175 24.3188 41.5949C24.3981 41.2336 24.4577 40.8522 24.4973 40.4708C24.537 40.0895 24.537 39.688 24.537 39.3066C24.5172 39.1059 24.4973 38.9052 24.4775 38.7246C24.4577 38.5439 24.4378 38.3633 24.3981 38.2027C24.3386 37.8615 24.2395 37.5804 24.1403 37.3596C24.0213 37.1188 23.8824 36.9181 23.7436 36.7976C23.5849 36.6571 23.4064 36.5768 23.1882 36.5367C22.97 36.7575 22.732 36.9983 22.5336 37.2794ZM27.076 38.4636C27.0363 38.4636 27.0165 38.4636 26.9768 38.4837C26.5999 38.9855 26.2825 39.688 26.1238 40.4708C26.0247 40.8723 25.985 41.2737 25.985 41.7153C25.985 41.916 25.985 42.1368 26.0048 42.3576C26.0247 42.5784 26.0643 42.7992 26.1238 42.9999C26.2032 43.4014 26.342 43.7627 26.5007 44.0838C26.5801 44.2444 26.6792 44.3849 26.7586 44.5254C26.8578 44.6659 26.9569 44.7864 27.076 44.8867C27.2942 45.1075 27.5123 45.2882 27.7504 45.4086C28.0082 45.529 28.2463 45.5892 28.4843 45.5892C28.3058 44.9068 28.1273 44.2645 27.9686 43.6021C27.8892 43.2809 27.8099 42.9598 27.7305 42.6386C27.6909 42.4781 27.6314 42.3175 27.5917 42.177C27.552 42.0164 27.5322 41.8558 27.4925 41.6952C27.5917 41.9963 27.6909 42.2773 27.79 42.5784C27.9091 42.8795 28.0082 43.1806 28.1273 43.4817C28.2264 43.8028 28.3454 44.1039 28.4645 44.4251C28.5835 44.7462 28.7025 45.0473 28.8215 45.3685C29.0794 44.8064 29.1984 44.0838 29.1984 43.301C29.1984 42.9196 29.1785 42.5182 29.119 42.1368C29.0595 41.7354 28.9802 41.3339 28.881 40.9526C28.7818 40.5311 28.6628 40.1698 28.524 39.8687C28.4446 39.7081 28.3851 39.5676 28.3058 39.4271C28.2264 39.2866 28.1669 39.1661 28.0876 39.0658C27.79 38.7045 27.4528 38.4636 27.076 38.4636ZM17.416 0.20604C17.3168 0.20604 17.2176 0.20604 17.0986 0.226112C16.6622 0.286329 16.206 0.507123 15.8093 0.868422C15.7101 0.968783 15.6308 1.04907 15.5515 1.14943C15.4721 1.22972 15.4126 1.33008 15.3333 1.43044C15.2142 1.63117 15.1349 1.85196 15.0754 2.05268C15.0357 2.15304 15.0159 2.2534 14.9961 2.35376C14.9961 2.4742 14.9762 2.57456 14.9762 2.67492C14.9961 2.87564 15.0357 3.07636 15.0952 3.23694C15.2341 3.09643 15.3531 2.95593 15.4919 2.81542C15.611 2.67492 15.7696 2.53441 15.9085 2.41398C16.0473 2.27347 16.1862 2.15304 16.3449 2.03261C16.4837 1.91218 16.6424 1.81181 16.8011 1.69138C16.6622 1.83189 16.5234 1.95232 16.3845 2.09283C16.2655 2.23333 16.1267 2.37384 16.0077 2.51434C15.8887 2.65485 15.7498 2.79535 15.6506 2.95593C15.5316 3.11651 15.4324 3.25701 15.3333 3.41759C16.0275 3.61831 16.9003 3.39752 17.535 2.79535C17.8921 2.4742 18.1301 2.07275 18.2689 1.67131C18.4078 1.26987 18.4276 0.828278 18.3086 0.446906C18.0507 0.286329 17.7532 0.20604 17.416 0.20604ZM56.4922 2.6147C56.4129 3.15665 56.4129 3.65846 56.5121 4.07997C56.5716 4.28069 56.6311 4.46134 56.7303 4.62192C56.8096 4.7825 56.9088 4.923 57.0476 5.02336C57.2063 4.60185 57.3452 4.18033 57.4642 3.73874C57.5832 3.29716 57.6625 2.85557 57.722 2.39391C57.722 2.63477 57.7022 2.85557 57.6824 3.07636C57.6824 3.17672 57.6625 3.29716 57.6427 3.39752C57.6427 3.51795 57.6229 3.63838 57.603 3.73874C57.5237 4.18033 57.4245 4.62192 57.3055 5.06351C58.0196 4.72228 58.694 3.83911 58.9122 2.69499C58.9717 2.39391 58.9717 2.09283 58.9518 1.81181C58.932 1.5308 58.8725 1.26987 58.7932 1.029C58.7535 0.928639 58.694 0.808206 58.6345 0.707845C58.575 0.607484 58.5155 0.507123 58.456 0.426834C58.3171 0.246185 58.1584 0.105679 57.9799 0.0253906C57.2261 0.38669 56.6509 1.45052 56.4922 2.6147ZM59.9833 4.60185C59.8246 4.82264 59.6659 5.06351 59.5271 5.32445C59.3684 5.58538 59.2494 5.88647 59.1502 6.18755C59.0709 6.46856 59.0114 6.7295 58.9717 6.99044C58.932 7.2313 58.9122 7.47217 58.932 7.69296C58.9518 8.15462 59.0907 8.51592 59.3089 8.77686C59.4279 8.57614 59.5469 8.37542 59.6659 8.15462C59.7651 7.9539 59.8841 7.73311 59.9833 7.53239C60.1817 7.0908 60.3602 6.64921 60.499 6.18755C60.3007 7.11087 60.0031 8.01412 59.5667 8.87722C59.9635 8.75679 60.38 8.51592 60.7569 8.13455C61.1338 7.77325 61.471 7.27145 61.6693 6.70943C62.1057 5.48502 61.8479 4.24055 61.1536 3.73874C60.7371 3.85918 60.3403 4.18033 59.9833 4.60185ZM61.3718 10.2823C61.0941 10.8443 60.9156 11.3662 60.8759 11.8278C60.8164 12.3096 60.8759 12.711 61.0544 13.0322C61.3916 12.6508 61.6892 12.2694 61.9867 11.8479C62.1255 11.6472 62.2644 11.4264 62.4032 11.2056C62.5223 10.9848 62.6413 10.764 62.7603 10.5432C62.6809 10.7841 62.5818 11.0049 62.4628 11.2257C62.3636 11.4665 62.2446 11.6873 62.1255 11.9081C61.8677 12.3497 61.6098 12.7712 61.3123 13.1727C62.1851 13.0924 63.2562 12.4501 63.8909 11.306C64.0496 11.0049 64.1885 10.7038 64.2678 10.4027C64.3471 10.1016 64.3868 9.80054 64.3868 9.51953C64.3868 8.93744 64.1885 8.45571 63.8909 8.13455C62.9785 8.21484 61.9867 9.11809 61.3718 10.2823ZM62.8 14.9591C62.4032 15.481 62.1255 15.9828 61.9867 16.4645C61.8479 16.9462 61.828 17.3678 61.9669 17.7291C62.7801 17.0867 63.5537 16.3441 64.1885 15.481C64.0496 15.7018 63.9108 15.9226 63.7521 16.1434C63.6132 16.3641 63.4347 16.5649 63.276 16.7857C63.1173 16.9864 62.9388 17.1871 62.7603 17.3678C62.5818 17.5685 62.4032 17.7491 62.2049 17.9298C62.6611 17.9699 63.1967 17.8896 63.7322 17.6488C64.2678 17.4079 64.7835 17.0265 65.2199 16.5047C65.6761 15.9426 65.934 15.3204 66.053 14.7182C66.1125 14.4372 66.0927 14.1361 66.053 13.8752C66.0133 13.6343 65.934 13.3935 65.815 13.1927C65.7555 13.1927 65.7158 13.1927 65.6563 13.1927C64.724 13.1927 63.6132 13.9153 62.8 14.9591ZM65.1604 18.9334C64.5653 19.1542 63.9504 19.5356 63.395 20.0173C63.157 20.2381 62.9388 20.4789 62.7405 20.7198C62.5619 20.9406 62.4032 21.1815 62.2842 21.4223C62.0462 21.884 61.947 22.3256 62.0264 22.727C62.9785 22.2052 63.9108 21.5829 64.7439 20.8202C64.367 21.2417 63.9703 21.6231 63.5537 21.9844C63.3355 22.165 63.1173 22.3256 62.8991 22.4862C62.6809 22.6668 62.4628 22.8073 62.2247 22.9679C62.7008 23.1084 63.2562 23.1084 63.8512 22.9679C64.4463 22.8274 65.0414 22.5263 65.5968 22.0646C65.7555 21.9442 65.8745 21.8238 66.0133 21.6833C66.1323 21.5428 66.2315 21.4023 66.3307 21.2618C66.5291 20.9807 66.6878 20.6797 66.8068 20.3987C66.8464 20.2381 66.8861 20.0976 66.9258 19.9571C66.9456 19.8166 66.9654 19.656 66.9654 19.5356C66.9654 19.2545 66.9258 18.9936 66.8266 18.7527C66.6679 18.7126 66.4894 18.6925 66.3109 18.6925C65.9538 18.6925 65.5571 18.7728 65.1604 18.9334ZM65.0811 24.5135C64.4265 24.6339 63.7124 24.9149 63.0777 25.2963C62.7801 25.497 62.4826 25.6776 62.2644 25.8784C62.0264 26.0992 61.828 26.2999 61.6495 26.5207C61.3123 26.9422 61.1338 27.3838 61.1338 27.8053C61.6892 27.6447 62.2049 27.444 62.7405 27.2232C63.0182 27.1028 63.276 26.9623 63.5339 26.8418C63.7917 26.7013 64.0298 26.5407 64.2876 26.4002C64.0496 26.5809 63.8314 26.7415 63.5934 26.902C63.3355 27.0626 63.0975 27.2031 62.8396 27.3637C62.3437 27.6447 61.828 27.8856 61.2924 28.1064C62.1851 28.568 63.6331 28.5881 64.9422 27.8454C65.6365 27.4641 66.1522 26.9221 66.4894 26.3601C66.6679 26.059 66.7671 25.778 66.8266 25.497C66.8861 25.1959 66.8861 24.9149 66.8464 24.674C66.5291 24.5135 66.172 24.4532 65.7753 24.4532C65.5571 24.4532 65.3191 24.4733 65.0811 24.5135ZM61.828 30.6756C61.471 30.796 61.1536 30.9566 60.8759 31.1172C60.7371 31.1975 60.5982 31.2778 60.4792 31.3581C60.3602 31.4584 60.2412 31.5387 60.1221 31.6391C59.9238 31.8197 59.7453 32.0204 59.6064 32.2212C59.5469 32.3416 59.4874 32.442 59.4477 32.5423C59.3882 32.6427 59.3486 32.7631 59.3287 32.8635C59.9436 32.8033 60.5189 32.7029 61.1139 32.5825C61.4115 32.5022 61.709 32.4219 61.9867 32.3416C62.2842 32.2412 62.5619 32.1409 62.8595 32.0405C62.5818 32.181 62.3239 32.3015 62.0264 32.4219C61.7487 32.5423 61.471 32.6427 61.1734 32.743C60.8957 32.8434 60.618 32.9237 60.3205 33.004C60.023 33.0642 59.7453 33.1445 59.4477 33.1846C59.8643 33.5259 60.4197 33.7667 61.0941 33.8671C61.4115 33.9072 61.7685 33.9273 62.1255 33.9072C62.4826 33.8671 62.8595 33.7868 63.2363 33.6664C64.8232 33.1445 65.8348 31.8599 65.815 30.7559C65.3588 30.4147 64.7042 30.2541 63.9901 30.2541C63.2958 30.2541 62.5421 30.3946 61.828 30.6756ZM60.0031 35.7739C59.8048 35.794 59.6064 35.8141 59.3882 35.8342C59.0114 35.8944 58.6543 35.9947 58.3369 36.0951C58.1783 36.1553 58.0196 36.2155 57.8807 36.2757C57.7419 36.336 57.5832 36.4163 57.4642 36.4765C57.2063 36.6371 56.9881 36.7976 56.8096 36.9783C56.7303 37.0786 56.6509 37.179 56.5914 37.2794C56.5121 37.3596 56.4526 37.46 56.4129 37.5804C57.0278 37.6407 57.6427 37.6607 58.2774 37.6407C58.5948 37.6206 58.9122 37.6005 59.2295 37.5804C59.3882 37.5604 59.5469 37.5403 59.7056 37.5202C59.8643 37.5002 60.023 37.4801 60.1817 37.46C60.023 37.5002 59.8643 37.5403 59.7254 37.5804C59.5667 37.6005 59.4081 37.6407 59.2494 37.6808C58.9518 37.741 58.6345 37.7812 58.3171 37.8213C58.0196 37.8615 57.7022 37.9016 57.3848 37.9217C57.0873 37.9217 56.7699 37.9417 56.4526 37.9417C56.8096 38.3633 57.3452 38.7246 57.9997 38.9654C58.3369 39.0859 58.694 39.1661 59.0709 39.2063C59.4279 39.2464 59.8246 39.2464 60.2213 39.1862C60.6577 39.126 61.0544 39.0256 61.4313 38.8851C61.8082 38.7246 62.1255 38.5238 62.4231 38.3231C62.9983 37.8815 63.3554 37.2994 63.4545 36.7374C63.0578 36.2958 62.4628 36.0148 61.7288 35.8542C61.3718 35.794 60.9949 35.7539 60.5982 35.7539C60.5784 35.7539 60.5585 35.7539 60.5387 35.7539C60.3602 35.7539 60.1817 35.7539 60.0031 35.7739ZM54.7467 40.6314C54.4095 40.6916 54.0921 40.7518 53.7946 40.8522C53.497 40.9526 53.2392 41.073 53.021 41.2135C52.902 41.2938 52.8028 41.3741 52.7234 41.4744C52.6243 41.5547 52.5648 41.6551 52.4854 41.7354C52.8028 41.8558 53.1003 41.9361 53.4177 42.0164C53.7351 42.0766 54.0524 42.1569 54.3896 42.2171C54.707 42.2573 55.0442 42.3175 55.3616 42.3375C55.6988 42.3777 56.0162 42.3978 56.3534 42.3978C56.036 42.4379 55.6988 42.4379 55.3814 42.4379C55.0442 42.4379 54.707 42.4379 54.3896 42.3978C53.7351 42.3576 53.1003 42.2773 52.4458 42.1168C53.0012 43.1404 54.35 44.0838 56.0558 44.2043C56.274 44.2243 56.4922 44.2243 56.7104 44.2043C56.8294 44.2043 56.9286 44.2043 57.0278 44.1842C57.1468 44.1641 57.246 44.1641 57.3452 44.124C57.7419 44.0437 58.1386 43.9233 58.4758 43.7627C58.813 43.582 59.1105 43.3813 59.3287 43.1404C59.5667 42.8996 59.7453 42.6186 59.8643 42.3576C59.2494 41.2938 57.603 40.6515 55.8972 40.5913C55.7781 40.5913 55.6591 40.5913 55.5599 40.5913C55.2822 40.5913 55.0046 40.6113 54.7467 40.6314ZM49.6688 44.3648H49.6489C49.4506 44.3648 49.272 44.3648 49.0935 44.3849C48.7762 44.4251 48.4786 44.4853 48.2406 44.5856C48.1017 44.6459 47.9827 44.7061 47.8836 44.7663C47.7645 44.8466 47.6654 44.9068 47.5662 44.9871C47.7249 45.0874 47.8637 45.1677 48.0224 45.248C48.1613 45.3283 48.3199 45.4086 48.4786 45.4688C48.7762 45.6294 49.0737 45.7699 49.3911 45.8903C49.7084 46.0308 50.0456 46.1513 50.363 46.2516C50.7002 46.352 51.0176 46.4523 51.3548 46.5326C51.0176 46.4724 50.6804 46.4323 50.363 46.352C50.0258 46.2717 49.6886 46.1914 49.3514 46.091C49.034 45.9907 48.7166 45.8903 48.3993 45.7699C48.0819 45.6495 47.7645 45.509 47.467 45.3685C47.6257 45.9505 48.0026 46.5527 48.5381 47.0746C48.8158 47.3355 49.1332 47.5764 49.4902 47.7972C49.8473 47.9979 50.2242 48.1585 50.6605 48.299C50.8787 48.3592 51.0969 48.3993 51.335 48.4395C51.5531 48.4796 51.7713 48.4997 51.9895 48.4997C52.4259 48.5198 52.8425 48.4596 53.2193 48.3592C53.6161 48.2789 53.9533 48.1183 54.231 47.9176C54.5285 47.7169 54.7665 47.4961 54.945 47.2352C54.8459 46.9341 54.6673 46.633 54.4492 46.3721C54.2111 46.1111 53.9334 45.8502 53.6161 45.6294C52.9615 45.1677 52.1482 44.8064 51.2755 44.5856C50.8787 44.4853 50.482 44.405 50.1051 44.3849C49.9663 44.3648 49.8076 44.3648 49.6688 44.3648ZM53.9136 4.90293C52.783 5.00329 51.811 5.6456 51.3548 6.30798C51.3945 6.44849 51.4738 6.56892 51.573 6.66928C51.6325 6.7295 51.692 6.76964 51.7713 6.80979C51.8308 6.84993 51.9102 6.89008 51.9895 6.93022C52.1681 6.99044 52.3664 7.05065 52.5846 7.07073C52.8028 7.0908 53.0607 7.0908 53.3384 7.07073C54.35 7.01051 55.4013 6.62914 55.9368 6.04704C55.5004 6.06712 55.0641 6.06712 54.6673 6.04704C54.5483 6.04704 54.4492 6.04704 54.35 6.04704C54.2508 6.04704 54.1516 6.04704 54.0326 6.04704C53.8342 6.04704 53.6359 6.04705 53.4375 6.02697C53.8342 6.0069 54.2706 5.96676 54.6872 5.92661C55.1037 5.88647 55.5401 5.84632 55.9765 5.80618C55.917 5.66567 55.8377 5.52517 55.7186 5.40474C55.5798 5.2843 55.4409 5.18394 55.2624 5.10365C54.945 4.96315 54.588 4.88286 54.1913 4.88286C54.0921 4.88286 54.0128 4.90293 53.9136 4.90293ZM55.8178 8.05426H55.798C55.6195 8.05426 55.4409 8.05426 55.2624 8.07434C54.9847 8.13455 54.707 8.19477 54.4492 8.29513C53.9533 8.47578 53.5169 8.75679 53.2193 9.05787C53.259 9.35896 53.4375 9.61989 53.7747 9.82062C53.8541 9.86076 53.9533 9.9009 54.0524 9.94105C54.1516 9.98119 54.2508 10.0213 54.3698 10.0615C54.588 10.1217 54.8459 10.1819 55.1236 10.202C55.679 10.2622 56.2145 10.2421 56.7303 10.1418C57.2261 10.0414 57.6824 9.88083 58.0196 9.61989C57.127 9.45932 56.2542 9.31881 55.4409 9.13816C55.8575 9.17831 56.2939 9.23852 56.7501 9.25859C57.2063 9.29874 57.6625 9.33888 58.1187 9.37903C58.0791 9.0378 57.841 8.73672 57.484 8.51592C57.3055 8.39549 57.127 8.27506 56.8889 8.21484C56.6509 8.13455 56.393 8.07434 56.1352 8.05426C56.0162 8.05426 55.917 8.05426 55.8178 8.05426ZM54.5483 12.2493C54.5087 12.5705 54.6872 12.8515 54.9847 13.1125C55.1236 13.253 55.3219 13.3734 55.5401 13.4738C55.7781 13.5942 56.0162 13.6945 56.3137 13.7748C57.4245 14.096 58.6345 14.096 59.4279 13.7146C58.9717 13.534 58.5353 13.3734 58.0989 13.2128C57.6625 13.0522 57.246 12.8917 56.8294 12.7311C57.2658 12.8515 57.722 12.9719 58.1783 13.0924C58.6345 13.2329 59.0907 13.3533 59.5667 13.4738C59.5667 13.1125 59.3882 12.7712 59.0709 12.4501C58.7535 12.149 58.2973 11.8881 57.7419 11.7475C57.4047 11.6472 57.0675 11.607 56.7104 11.607C55.8575 11.607 55.0641 11.868 54.5483 12.2493ZM55.4608 15.7018C55.4013 15.8623 55.4013 16.0229 55.4608 16.1835C55.5004 16.3441 55.5996 16.5047 55.7385 16.6652C55.9963 17.0065 56.4327 17.3276 56.9881 17.6086C57.5237 17.8696 58.1187 18.0502 58.6741 18.1506C59.2494 18.2509 59.7849 18.2509 60.2213 18.1104C60.0031 17.99 59.7849 17.8696 59.5667 17.7291C59.3684 17.6086 59.1502 17.4882 58.932 17.3477C58.5155 17.1068 58.1187 16.866 57.722 16.6251C58.5948 17.0466 59.4676 17.4681 60.4197 17.8896C60.4792 17.5484 60.3602 17.1269 60.1023 16.7455C59.8246 16.3842 59.4081 16.0229 58.8527 15.762C58.2576 15.481 57.6229 15.3605 57.0278 15.3605C56.4327 15.3605 55.8773 15.481 55.4608 15.7018ZM55.7583 19.375C55.679 19.5356 55.6591 19.6961 55.679 19.8768C55.679 19.9571 55.6988 20.0574 55.7385 20.1578C55.7781 20.2381 55.8178 20.3384 55.8575 20.4388C55.9765 20.6194 56.1153 20.8202 56.3137 21.0209C56.4129 21.1213 56.5121 21.2216 56.6311 21.322C56.7303 21.4223 56.8493 21.5227 56.9881 21.6231C57.484 22.0044 58.0592 22.3055 58.6345 22.5263C59.1899 22.727 59.7453 22.8274 60.2213 22.7872C60.023 22.6066 59.8246 22.4259 59.6263 22.2654C59.4279 22.0847 59.2295 21.9241 59.0312 21.7435C58.6543 21.4023 58.2774 21.0811 57.9204 20.76C58.7337 21.342 59.5667 21.9643 60.4792 22.5865C60.5982 22.2252 60.5585 21.7836 60.3403 21.342C60.2412 21.1213 60.1023 20.9005 59.904 20.6997C59.7254 20.4789 59.5271 20.2782 59.2494 20.0976C58.694 19.6961 58.0592 19.4553 57.4443 19.3348C57.1666 19.2746 56.9088 19.2545 56.6509 19.2545C56.3335 19.2545 56.0162 19.2947 55.7583 19.375ZM55.4013 23.1686C55.2822 23.3091 55.2227 23.4697 55.2029 23.6704C55.2029 23.8511 55.2426 24.0518 55.3021 24.2726C55.4409 24.6941 55.7781 25.1959 56.2344 25.6977C57.127 26.6812 58.3171 27.444 59.3287 27.5444C58.9915 27.1028 58.6543 26.6612 58.3171 26.2397C58.1584 26.0189 57.9997 25.8181 57.841 25.6174C57.6824 25.3966 57.5237 25.1959 57.3452 24.9952C57.722 25.3766 58.0989 25.778 58.456 26.1794C58.8328 26.5809 59.2295 26.9823 59.6263 27.3838C59.8246 27.0425 59.8643 26.5809 59.7453 26.0791C59.6659 25.8382 59.5667 25.5773 59.4279 25.3163C59.2692 25.0755 59.0907 24.8145 58.8527 24.5737C58.3369 24.0518 57.7419 23.6905 57.127 23.4496C56.6112 23.2489 56.0955 23.1485 55.6393 23.1485C55.5599 23.1485 55.4806 23.1686 55.4013 23.1686ZM53.9334 27.3637C53.8938 27.4641 53.8938 27.5644 53.8938 27.6648C53.8938 27.7651 53.8938 27.8856 53.9136 27.9859C53.9334 28.2268 54.0128 28.4877 54.1318 28.7688C54.2508 29.0498 54.3896 29.3308 54.588 29.6519C54.7665 29.9329 54.9649 30.214 55.2029 30.495C55.4013 30.7559 55.6393 30.9968 55.8773 31.2176C56.3732 31.6591 56.8889 31.9803 57.4047 32.1409C57.2658 31.8799 57.1468 31.619 57.0079 31.3781C56.8691 31.1172 56.7501 30.8563 56.6112 30.6154C56.3732 30.1136 56.1153 29.6319 55.8773 29.1501C56.0162 29.391 56.1749 29.6118 56.3335 29.8527C56.4724 30.0935 56.6311 30.3344 56.7699 30.5753C57.0873 31.057 57.4047 31.5588 57.722 32.0606C57.8014 31.9803 57.8609 31.8799 57.9006 31.7997C57.9601 31.6993 57.9997 31.5989 58.0196 31.4785C58.0989 31.2577 58.1187 31.0168 58.0989 30.7358C58.0989 30.6154 58.0791 30.4749 58.0394 30.3344C58.0196 30.1939 57.9799 30.0534 57.9204 29.8928C57.8212 29.6118 57.6824 29.3107 57.484 29.0297C56.6509 27.7651 55.2822 27.0225 54.2111 26.902C54.0723 27.0225 53.9731 27.1831 53.9334 27.3637ZM51.8904 31.5387C51.8705 31.7796 51.9102 32.0606 51.9697 32.3617C52.0094 32.6628 52.1085 33.004 52.2474 33.3653C52.3862 33.6864 52.5251 34.0277 52.7036 34.3287C52.8821 34.6499 53.0607 34.951 53.2789 35.232C53.6756 35.7739 54.1516 36.2155 54.6277 36.4765C54.5483 36.1955 54.469 35.8944 54.3896 35.6134C54.3103 35.3324 54.2111 35.0313 54.1318 34.7503C54.0524 34.4693 53.9731 34.2083 53.8938 33.9273C53.8541 33.7868 53.8144 33.6463 53.7747 33.5259C53.7351 33.3854 53.6954 33.2449 53.6557 33.1043C53.7152 33.2449 53.7747 33.3854 53.8342 33.5259C53.8739 33.6463 53.9334 33.7868 53.9731 33.9273C54.0921 34.2083 54.1913 34.4693 54.3103 34.7503C54.5285 35.3123 54.7665 35.8944 54.9847 36.4564C55.0641 36.3962 55.1434 36.3159 55.2227 36.2356C55.2822 36.1352 55.3616 36.0349 55.4013 35.9345C55.5203 35.7137 55.5798 35.4729 55.6195 35.1919C55.6393 35.0513 55.6591 34.9108 55.6591 34.7703C55.6591 34.6098 55.6393 34.4693 55.6195 34.3087C55.56 33.9875 55.4806 33.6463 55.3418 33.3251C55.2624 33.1445 55.1831 32.9638 55.0839 32.7832C54.9847 32.6226 54.8855 32.462 54.7864 32.3015C54.5483 32.0004 54.3103 31.7194 54.0524 31.4785C53.5169 30.9767 52.9416 30.6355 52.4061 30.4749C52.0689 30.6756 51.9102 31.0369 51.8904 31.5387ZM49.4307 34.0678C49.3117 34.2284 49.2125 34.4492 49.153 34.69C49.0935 34.9309 49.0737 35.2119 49.0737 35.5532C49.0737 35.6334 49.0737 35.7137 49.0737 35.794C49.0935 35.8743 49.0935 35.9747 49.0935 36.055C49.1134 36.2356 49.1332 36.4163 49.1729 36.617C49.4307 38.0822 50.0655 39.5475 50.9581 40.3103C50.9184 39.688 50.8391 39.0457 50.7994 38.4435C50.7796 38.1425 50.7597 37.8414 50.7399 37.5403C50.7002 37.2593 50.6804 36.9582 50.6605 36.6571C50.7002 36.9582 50.7597 37.2593 50.8192 37.5604C50.8787 37.8615 50.9184 38.1625 50.9779 38.4837C51.0969 39.1059 51.1961 39.7282 51.3151 40.3504C51.7118 40.1698 52.0292 39.7482 52.2276 39.2063C52.3267 38.9253 52.3862 38.6242 52.3862 38.283C52.4061 37.9618 52.3862 37.6005 52.3267 37.2392C51.9895 35.6134 50.9184 34.3087 49.887 33.7266C49.7084 33.7868 49.5497 33.9072 49.4307 34.0678ZM46.2769 36.7976C46.1182 36.9181 45.9793 37.1188 45.8603 37.3596C45.7611 37.5804 45.662 37.8615 45.6025 38.2027C45.5628 38.3633 45.5429 38.5439 45.5231 38.7246C45.5033 38.9052 45.4834 39.1059 45.4834 39.3066C45.4636 39.688 45.4636 40.0895 45.5033 40.4708C45.5429 40.8522 45.6025 41.2336 45.6818 41.5949C45.8405 42.3175 46.0983 42.9799 46.4752 43.4415C46.5149 43.1204 46.5744 42.7992 46.6141 42.4781C46.6537 42.1569 46.6934 41.8357 46.7331 41.5146C46.7728 41.2135 46.8124 40.9124 46.8521 40.5913C46.8918 40.2902 46.9314 39.9891 46.9711 39.688C46.9513 40.0092 46.9513 40.3303 46.9314 40.6515C46.9314 40.9526 46.9116 41.2737 46.9116 41.5949C46.8918 41.916 46.8719 42.2573 46.8719 42.5784C46.8719 42.7591 46.8521 42.9196 46.8521 43.0802C46.8521 43.2408 46.8323 43.4214 46.8323 43.582C46.9513 43.562 47.0505 43.5218 47.1695 43.4616C47.2687 43.4014 47.3678 43.3412 47.4868 43.2609C47.6852 43.0802 47.8637 42.8795 48.0224 42.6186C48.1811 42.3576 48.3001 42.0565 48.3794 41.7153C48.4786 41.3942 48.5381 41.0329 48.5381 40.6314C48.5381 39.7683 48.3398 38.9454 48.0224 38.2428C47.8637 37.9016 47.6852 37.5604 47.467 37.2794C47.2687 36.9983 47.0505 36.7575 46.8124 36.5367C46.6141 36.5768 46.4157 36.6571 46.2769 36.7976ZM42.9246 38.4636C42.5478 38.4636 42.2304 38.7045 41.9329 39.0658C41.8337 39.1661 41.7742 39.2866 41.6948 39.4271C41.6155 39.5676 41.556 39.7081 41.4766 39.8687C41.3378 40.1698 41.2188 40.5311 41.1196 40.9526C41.0204 41.3339 40.9411 41.7354 40.8816 42.1368C40.8419 42.5182 40.8022 42.9196 40.8022 43.301C40.8022 44.0838 40.9212 44.8064 41.1989 45.3685C41.2981 45.0473 41.4171 44.7462 41.5361 44.4251C41.6552 44.1039 41.7742 43.8028 41.8734 43.4817C41.9924 43.1806 42.0915 42.8795 42.2106 42.5784C42.3097 42.2773 42.4089 41.9963 42.5081 41.6952C42.4883 41.8558 42.4486 42.0164 42.4089 42.177C42.3692 42.3175 42.3296 42.4781 42.2899 42.6386C42.1907 42.9598 42.1114 43.2809 42.032 43.6021C41.8734 44.2645 41.6948 44.9068 41.5163 45.5892C41.7543 45.5892 42.0122 45.529 42.2502 45.4086C42.4883 45.2882 42.7064 45.1075 42.9246 44.8867C43.0437 44.7864 43.1428 44.6659 43.242 44.5254C43.3412 44.3849 43.4205 44.2444 43.4999 44.0838C43.6586 43.7627 43.7974 43.4014 43.8966 42.9999C43.9363 42.7992 43.9759 42.5784 43.9958 42.3576C44.0156 42.1368 44.0354 41.916 44.0156 41.7153C44.0156 41.2737 43.9759 40.8723 43.8966 40.4708C43.7181 39.688 43.4007 38.9855 43.0238 38.4837C43.004 38.4636 42.9643 38.4636 42.9246 38.4636ZM52.5846 0.20604C52.2474 0.20604 51.9499 0.286329 51.692 0.446906C51.573 0.828278 51.5928 1.26987 51.7317 1.67131C51.8705 2.07275 52.1085 2.4742 52.4656 2.79535C53.1202 3.39752 53.9731 3.61831 54.6872 3.41759C54.5682 3.25701 54.469 3.11651 54.3698 2.95593C54.2508 2.79535 54.1318 2.65485 53.9929 2.51434C53.8739 2.37384 53.7549 2.23333 53.6161 2.09283C53.4772 1.95232 53.3384 1.83189 53.1995 1.69138C53.3582 1.81181 53.5169 1.91218 53.6557 2.03261C53.8144 2.15304 53.9533 2.27347 54.0921 2.41398C54.2508 2.53441 54.3896 2.67492 54.5285 2.81542C54.6475 2.95593 54.7864 3.09643 54.9054 3.23694C54.9649 3.07636 55.0046 2.87564 55.0244 2.67492C55.0244 2.57456 55.0244 2.4742 55.0046 2.35376C54.9847 2.2534 54.9649 2.15304 54.945 2.05268C54.8855 1.85196 54.7864 1.63117 54.6673 1.43044C54.6078 1.33008 54.5285 1.22972 54.4492 1.14943C54.3698 1.04907 54.2905 0.968783 54.1913 0.868422C53.7946 0.507123 53.3582 0.286329 52.902 0.226112C52.783 0.20604 52.6838 0.20604 52.5846 0.20604ZM26.342 47.0947C26.1635 47.1147 26.0048 47.1549 25.8263 47.195C25.6478 47.2352 25.4693 47.2753 25.2908 47.3355C24.9337 47.4359 24.5568 47.5965 24.1601 47.7972C23.9419 47.9176 23.7436 48.018 23.5452 48.1384C23.3469 48.2588 23.1683 48.3793 22.9898 48.5198C22.6129 48.7807 22.2956 49.0617 22.0179 49.3829C21.4426 49.9851 21.0856 50.6474 21.0063 51.3098C21.4823 51.7514 22.1964 52.0525 23.0295 52.0726C23.2477 52.0726 23.446 52.0726 23.6642 52.0525C23.8824 52.0324 24.1006 51.9923 24.3188 51.9321C24.775 51.8317 25.2114 51.651 25.6478 51.4102C26.0445 51.2095 26.4016 50.9284 26.7189 50.6274C27.0363 50.3463 27.2942 50.0252 27.5123 49.684C27.9487 49.0417 28.1868 48.3391 28.2066 47.7169C27.9289 47.9377 27.6512 48.1384 27.3537 48.3391C27.0561 48.5399 26.7586 48.7205 26.4412 48.9012C26.1437 49.0617 25.8263 49.2223 25.5089 49.3829C25.1717 49.5234 24.8345 49.684 24.5172 49.7843C24.6758 49.7241 24.8345 49.6438 24.9932 49.5435C25.1519 49.4632 25.3106 49.3628 25.4693 49.2825C25.7668 49.1019 26.0643 48.9012 26.3619 48.7004C26.9371 48.299 27.4925 47.8373 28.0082 47.3556C27.79 47.2352 27.5322 47.1549 27.2545 47.1147C27.0958 47.0746 26.9371 47.0746 26.7586 47.0746C26.6197 47.0746 26.4809 47.0746 26.342 47.0947Z" fill="url(#paint0_linear_186_4637)"/>
<path fill-rule="evenodd" clip-rule="evenodd" d="M14.599 57.9721V43.5H0L2.34061 50.9066L0 57.9721H14.599Z" fill="url(#paint1_linear_186_4637)"/>
<path fill-rule="evenodd" clip-rule="evenodd" d="M69.9994 43.5H55.4004V57.9721H69.9994L67.6588 50.9066L69.9994 43.5Z" fill="url(#paint2_linear_186_4637)"/>
<path d="M7.04199 54.5005L14.5994 57.973V48.5391H7.04199V54.5005Z" fill="#8C6239"/>
<path d="M62.9578 54.5005L55.4004 57.973V48.5391H62.9578V54.5005Z" fill="#8C6239"/>
<path fill-rule="evenodd" clip-rule="evenodd" d="M7.04199 54.5028H62.9587V40.0508H7.04199V54.5028Z" fill="url(#paint3_linear_186_4637)"/>
<path d="M55.5991 50.1673V49.8863C56.4124 49.806 56.452 49.7458 56.4322 48.6418L56.452 44.4869C55.6189 46.3536 54.2899 49.2641 53.9329 50.1673H53.675C53.3378 49.244 52.1874 46.4339 51.4336 44.5873C51.2551 48.1601 51.2551 48.963 51.2551 49.1637C51.2551 49.7257 51.513 49.806 52.1874 49.8863V50.1673H49.8071V49.8863C50.3823 49.8261 50.6402 49.7057 50.7195 49.1436C50.779 48.7021 50.779 48.3207 51.0369 44.6073C51.0766 44.0855 50.9774 43.9048 50.1046 43.8245V43.5435H51.8502L54.0718 48.7021L56.4719 43.5435H58.2372V43.8245C57.3645 43.9249 57.2653 44.0052 57.2851 44.7278L57.3248 48.6418C57.3645 49.7458 57.3843 49.786 58.2769 49.8863V50.1673H55.5991ZM13.5079 46.9558C13.6269 47.016 13.9046 47.0762 14.2418 47.0762C14.9162 47.0762 15.7493 46.735 15.7493 45.4504C15.7493 44.3263 15.0352 43.8847 14.1823 43.8847C13.8847 43.8847 13.6864 43.9249 13.6269 44.0052C13.5475 44.0855 13.5079 44.2059 13.5079 44.4668V46.9558ZM14.3211 43.5435C15.0352 43.5435 15.6104 43.6639 16.027 43.965C16.4237 44.2661 16.7014 44.7478 16.7014 45.4303C16.7014 46.9156 15.4319 47.5178 14.4798 47.5178C14.3608 47.5178 14.2616 47.4977 14.2021 47.4977L13.5079 47.3171V48.9028C13.5079 49.7659 13.5872 49.786 14.4996 49.8863V50.1673H11.7227V49.8863C12.5954 49.786 12.6351 49.7257 12.6351 48.8827V44.8281C12.6351 43.9249 12.5161 43.9048 11.7227 43.8245V43.5435H14.3211ZM19.7958 46.9357C20.3115 46.9357 20.6487 46.8554 20.9066 46.6346C21.3033 46.3335 21.462 45.9321 21.462 45.3901C21.462 44.2862 20.7479 43.8847 19.9544 43.8847C19.6768 43.8847 19.4982 43.9249 19.4387 43.9851C19.3395 44.0654 19.2999 44.1657 19.2999 44.4267V46.9357H19.7958ZM23.505 50.2476C23.386 50.2476 23.267 50.2476 23.148 50.2275C22.3942 50.1673 22.0174 49.9867 21.5611 49.3444C21.1843 48.8225 20.8272 48.1802 20.5098 47.6583C20.3115 47.3371 20.1726 47.2769 19.6569 47.2769H19.2999V48.8827C19.2999 49.7458 19.4189 49.806 20.2321 49.8863V50.1673H17.5345V49.8863C18.3676 49.786 18.4469 49.7458 18.4469 48.8827V44.8081C18.4469 43.945 18.3279 43.9048 17.5345 43.8245V43.5435H20.1131C20.8471 43.5435 21.3429 43.6238 21.7198 43.8847C22.1364 44.1457 22.3942 44.6073 22.3942 45.2296C22.3942 46.1127 21.8388 46.6547 21.1049 46.9758C21.2834 47.297 21.7198 47.9795 22.0174 48.4411C22.3942 48.9831 22.5926 49.244 22.8108 49.4849C23.0885 49.7859 23.3265 49.9064 23.5447 49.9666L23.505 50.2476ZM29.1383 48.5415C29.0788 48.8024 28.8011 49.8662 28.702 50.1673H23.8026V49.8863C24.7348 49.806 24.8142 49.7257 24.8142 48.8827V44.8482C24.8142 43.945 24.6952 43.8847 23.9414 43.8245V43.5435H27.0358C27.9879 43.5435 28.3648 43.5234 28.4838 43.5234C28.5036 43.7643 28.5433 44.527 28.583 45.069L28.2854 45.1292C28.1862 44.788 28.0871 44.5672 27.9879 44.3464C27.8094 44.0052 27.5912 43.945 26.9763 43.945H26.0242C25.7068 43.945 25.6869 43.965 25.6869 44.2661V46.5142H26.8176C27.5713 46.5142 27.611 46.3737 27.73 45.6712H28.0474V47.7787H27.73C27.611 47.0361 27.5317 46.9357 26.7977 46.9357H25.6869V48.9831C25.6869 49.6856 25.9051 49.7458 26.4209 49.7659H27.3531C27.968 49.7659 28.0672 49.6655 28.2854 49.4046C28.4838 49.1838 28.702 48.7623 28.8408 48.4612L29.1383 48.5415ZM35.4659 50.1673V49.8863C36.2792 49.806 36.3189 49.7458 36.299 48.6418L36.3189 44.4869C35.4858 46.3536 34.1568 49.2641 33.7997 50.1673H33.5419C33.2047 49.244 32.0542 46.4339 31.3004 44.5873C31.1219 48.1601 31.1219 48.963 31.1219 49.1637C31.1219 49.7257 31.3798 49.806 32.0542 49.8863V50.1673H29.6739V49.8863C30.2491 49.8261 30.507 49.7057 30.5864 49.1436C30.6459 48.7021 30.6459 48.3207 30.9037 44.6073C30.9434 44.0855 30.8442 43.9048 29.9714 43.8245V43.5435H31.717L33.9386 48.7021L36.3387 43.5435H38.1041V43.8245C37.2313 43.9249 37.1321 44.0052 37.1519 44.7278L37.1916 48.6418C37.2313 49.7458 37.2511 49.786 38.1437 49.8863V50.1673H35.4659ZM39.0562 50.1673V49.8863C39.8694 49.786 39.9488 49.7458 39.9488 48.8827V44.8281C39.9488 43.945 39.8694 43.9048 39.0562 43.8245V43.5435H41.7538V43.8245C40.9207 43.9048 40.8414 43.945 40.8414 44.8281V48.8827C40.8414 49.7659 40.9207 49.786 41.7538 49.8863V50.1673H39.0562ZM49.5294 43.8245C48.8946 43.8647 48.6765 44.0252 48.6566 44.4869C48.6368 44.7278 48.617 45.1493 48.617 46.0927V47.1966C48.617 48.2404 48.4979 49.0433 47.9029 49.6655C47.4466 50.1472 46.7524 50.3078 46.0582 50.3078C45.4631 50.3078 44.8482 50.1874 44.392 49.8462C43.7969 49.3644 43.4994 48.6619 43.4994 47.4777V44.8683C43.4994 43.945 43.42 43.8847 42.6266 43.8245V43.5435H45.2647V43.8245C44.4713 43.8647 44.3721 43.945 44.3721 44.8683V47.4174C44.3721 48.9028 45.0862 49.7257 46.2962 49.7257C47.7243 49.7257 48.1806 48.8225 48.1806 47.1364V46.0927C48.1806 45.1493 48.1409 44.7679 48.1211 44.4869C48.1012 44.0252 47.8632 43.8647 47.1094 43.8245V43.5435H49.5294V43.8245Z" fill="white"/>
<path fill-rule="evenodd" clip-rule="evenodd" d="M25.271 26.4211H44.7297C44.8487 26.4211 44.9479 26.3208 44.9479 26.2004V25.558C44.9479 25.538 44.9479 25.5179 44.9479 25.4978L50.4225 14.1771L45.8604 16.8066L45.6422 19.4561C45.6025 20.0783 45.424 20.6805 45.1264 21.1823C44.9479 21.5035 44.7099 21.7845 44.4719 22.0053C44.095 22.3264 43.7181 22.4469 43.3809 22.3465C42.9842 22.2461 42.6866 21.8648 42.5478 21.2626C42.409 20.6604 42.4288 19.9378 42.6271 19.1952C42.647 19.1952 42.647 19.1751 42.647 19.1751C42.9445 18.1113 43.6586 17.2281 44.6107 16.7263L44.8884 16.5657L43.1429 11.0057L40.2667 14.3578L39.2352 15.5621C39.751 16.4252 40.0287 17.4288 40.0287 18.4525V18.5328C40.0287 19.0346 39.9493 19.4762 39.7906 19.8977C39.3939 21.0017 38.5608 21.664 37.7277 21.5637C36.7756 21.4633 36.0417 20.3192 36.0615 18.8941C36.0615 18.7536 36.0814 18.6131 36.1012 18.4525C36.2004 17.6697 36.4979 16.927 36.974 16.3048L37.9063 15.0603L35.0301 10.5039L35.0103 10.524L34.9706 10.5039L32.1143 15.0201V15.0603L33.0267 16.3048C33.5027 16.927 33.8003 17.6697 33.8995 18.4525C33.9193 18.6131 33.9391 18.7536 33.9391 18.8941C33.959 20.3192 33.225 21.4633 32.2729 21.5637C31.4398 21.664 30.6266 21.0017 30.21 19.8977C30.0513 19.4762 29.972 19.0346 29.972 18.5328V18.4525C29.972 17.4288 30.2497 16.4252 30.7654 15.5621L29.734 14.3578L26.8578 11.0057L25.1123 16.5657L25.39 16.7263C26.3421 17.2281 27.0562 18.1113 27.3537 19.1751L27.3735 19.1952C27.5719 19.9378 27.5917 20.6604 27.4529 21.2626C27.314 21.8648 27.0165 22.2461 26.6198 22.3465C26.2826 22.4469 25.9057 22.3264 25.5288 22.0053C25.2908 21.7845 25.0528 21.5035 24.8742 21.1823C24.5767 20.6805 24.3982 20.0783 24.3585 19.4561L24.1602 16.8066L19.5781 14.1771L25.0528 25.4978C25.0528 25.5179 25.0726 25.538 25.0726 25.558V26.2004C25.0726 26.3208 25.1519 26.4211 25.271 26.4211ZM25.1123 28.9703V29.3115C25.1123 29.432 25.2114 29.5323 25.3305 29.5323H44.6702C44.7892 29.5323 44.8884 29.432 44.8884 29.3115V28.9703C44.8884 28.8499 44.7892 28.7495 44.6702 28.7495C44.6305 28.7495 37.9459 28.7495 32.4515 28.7495C29.4959 28.7495 26.8578 28.7495 25.8065 28.7495C25.509 28.7495 25.3305 28.7495 25.3305 28.7495C25.2114 28.7495 25.1123 28.8499 25.1123 28.9703ZM33.6614 23.872L35.0103 22.5271L36.3392 23.872L35.0103 25.2369L33.6614 23.872ZM39.8303 23.872L40.6634 23.049L41.4965 23.872L40.6634 24.715L39.8303 23.872ZM28.5042 23.872L29.3373 23.049L30.1704 23.872L29.3373 24.715L28.5042 23.872Z" fill="url(#paint4_linear_186_4637)"/>
</g>
<defs>
<linearGradient id="paint0_linear_186_4637" x1="52.0887" y1="-1.11872" x2="44.6579" y2="53.4744" gradientUnits="userSpaceOnUse">
<stop stop-color="#DE9700"/>
<stop offset="0.160784" stop-color="#FFF57F"/>
<stop offset="0.329412" stop-color="#EFC640"/>
<stop offset="0.501961" stop-color="#DE9700"/>
<stop offset="0.74902" stop-color="#F7E56F"/>
<stop offset="0.839216" stop-color="#EBBE38"/>
<stop offset="1" stop-color="#DE9700"/>
</linearGradient>
<linearGradient id="paint1_linear_186_4637" x1="-0.495891" y1="50.7059" x2="14.9362" y2="50.7059" gradientUnits="userSpaceOnUse">
<stop stop-color="#F9DF7B"/>
<stop offset="0.329412" stop-color="#DEB850"/>
<stop offset="1" stop-color="#C29024"/>
</linearGradient>
<linearGradient id="paint2_linear_186_4637" x1="55.3409" y1="50.7059" x2="69.9598" y2="50.7059" gradientUnits="userSpaceOnUse">
<stop stop-color="#C29024"/>
<stop offset="0.670588" stop-color="#DDB74F"/>
<stop offset="1" stop-color="#F9DF7B"/>
</linearGradient>
<linearGradient id="paint3_linear_186_4637" x1="7.02216" y1="47.2567" x2="62.9388" y2="47.2567" gradientUnits="userSpaceOnUse">
<stop stop-color="#F9DF7B"/>
<stop offset="0.239216" stop-color="#DEB850"/>
<stop offset="0.501961" stop-color="#C29024"/>
<stop offset="0.729412" stop-color="#DDB74F"/>
<stop offset="1" stop-color="#F9DF7B"/>
</linearGradient>
<linearGradient id="paint4_linear_186_4637" x1="20.2922" y1="18.3923" x2="51.097" y2="18.3923" gradientUnits="userSpaceOnUse">
<stop stop-color="#DE9700"/>
<stop offset="0.160784" stop-color="#FFF57F"/>
<stop offset="0.329412" stop-color="#DFB840"/>
<stop offset="0.501961" stop-color="#BE7B00"/>
<stop offset="0.74902" stop-color="#F7E56F"/>
<stop offset="0.839216" stop-color="#EBBE38"/>
<stop offset="1" stop-color="#DE9700"/>
</linearGradient>
<clipPath id="clip0_186_4637">
<rect width="70" height="58" fill="white"/>
</clipPath>
</defs>
</svg>
