<svg width="15" height="15" viewBox="0 0 15 15" fill="none" xmlns="http://www.w3.org/2000/svg">
<g clip-path="url(#clip0_28_9761)">
<path d="M13.6068 5.33304H12.0004V2.75773C12.0004 1.88006 11.2864 1.16602 10.4087 1.16602H1.59146C0.71394 1.16602 0 1.88006 0 2.75773V7.57637C0 8.454 0.71394 9.16804 1.59146 9.16804H2.7497V10.8341C2.7497 11.0367 2.87167 11.2193 3.05884 11.2968C3.12081 11.3224 3.18586 11.3349 3.25035 11.3349C3.38066 11.3349 3.50879 11.284 3.60455 11.1882L4.99945 9.79299V10.6689C4.99945 11.4372 5.62445 12.0623 6.39273 12.0623H10.2696L11.8954 13.6884C11.9912 13.7843 12.1193 13.8351 12.2496 13.8351C12.3141 13.8351 12.3791 13.8226 12.4411 13.797C12.6283 13.7195 12.7503 13.5369 12.7503 13.3344V12.0623H13.6069C14.3751 12.0623 15.0001 11.4372 15.0001 10.6689V6.72642C15 5.95809 14.3751 5.33304 13.6068 5.33304ZM3.25035 8.16652H1.59146C1.26621 8.16652 1.00152 7.90177 1.00152 7.57642V2.75773C1.00152 2.43233 1.26616 2.16753 1.59146 2.16753H10.4088C10.7341 2.16753 10.9989 2.43228 10.9989 2.75773V7.57637C10.9989 7.90172 10.7342 8.16647 10.4088 8.16647H5.41682C5.28404 8.16647 5.15667 8.21925 5.06268 8.31319L3.75111 9.62501V8.66723C3.75111 8.39071 3.52692 8.16652 3.25035 8.16652ZM13.9985 10.6688C13.9985 10.8849 13.8228 11.0608 13.6068 11.0608H12.2495C11.973 11.0608 11.7487 11.285 11.7487 11.5615V12.1253L10.8311 11.2075C10.7372 11.1135 10.6098 11.0608 10.477 11.0608H6.39268C6.17667 11.0608 6.00091 10.885 6.00091 10.6688V9.16799H10.4087C11.2864 9.16799 12.0004 8.45395 12.0004 7.57632V6.3345H13.6068C13.8228 6.3345 13.9985 6.51026 13.9985 6.72637V10.6688Z" fill="white"/>
</g>
<defs>
<clipPath id="clip0_28_9761">
<rect width="15" height="15" fill="white"/>
</clipPath>
</defs>
</svg>
