<svg width="21" height="21" viewBox="0 0 21 21" fill="none" xmlns="http://www.w3.org/2000/svg">
<circle cx="10.5" cy="10.5" r="10.5" fill="#1890FF"/>
<path opacity="0.4" d="M11.3027 4.30412L12.8207 7.35476C12.9326 7.57578 13.146 7.72927 13.3922 7.76337L16.8021 8.25999C17.0012 8.28796 17.1819 8.39301 17.304 8.55332C17.4247 8.71158 17.4765 8.91214 17.4472 9.10929C17.4233 9.27301 17.3463 9.42445 17.2283 9.54041L14.7575 11.9355C14.5768 12.1026 14.495 12.3503 14.5386 12.5924L15.1469 15.9596C15.2117 16.3662 14.9423 16.7495 14.5386 16.8266C14.3722 16.8532 14.2017 16.8253 14.0517 16.7489L11.0101 15.1642C10.7844 15.0503 10.5177 15.0503 10.292 15.1642L7.25046 16.7489C6.87674 16.9474 6.41369 16.8123 6.20569 16.4439C6.12862 16.2973 6.10135 16.1301 6.12658 15.9671L6.73489 12.5992C6.77854 12.3578 6.69602 12.1088 6.51598 11.9416L4.04522 9.54792C3.7513 9.26414 3.74243 8.79685 4.02545 8.50284C4.03158 8.4967 4.0384 8.48988 4.04522 8.48306C4.16252 8.36368 4.31664 8.28796 4.48304 8.26818L7.89287 7.77088C8.13837 7.73609 8.35183 7.58397 8.46435 7.36158L9.92785 4.30412C10.0581 4.04216 10.3282 3.87913 10.6214 3.88595H10.7128C10.9672 3.91665 11.1888 4.07423 11.3027 4.30412Z" fill="white"/>
<path d="M10.6316 15.0792C10.4995 15.0833 10.3708 15.1188 10.2551 15.1823L7.22843 16.7633C6.85809 16.9401 6.41491 16.8029 6.20728 16.4488C6.13035 16.3041 6.10244 16.1383 6.12831 15.9759L6.73283 12.6152C6.77368 12.3709 6.69199 12.1225 6.51431 11.9505L4.04244 9.55743C3.74903 9.27015 3.74358 8.79863 4.03087 8.50452C4.03495 8.50043 4.03836 8.49702 4.04244 8.4936C4.15953 8.3776 4.31066 8.30117 4.47337 8.27729L7.88605 7.77506C8.13317 7.74367 8.34761 7.58945 8.45653 7.36563L9.93992 4.26969C10.0808 4.01994 10.3511 3.87118 10.637 3.88687C10.6316 4.08954 10.6316 14.9414 10.6316 15.0792Z" fill="white"/>
</svg>
