<svg width="17" height="18" viewBox="0 0 17 18" fill="none" xmlns="http://www.w3.org/2000/svg">
<path d="M16.4505 6.47642L11.3543 5.70082L9.07611 0.864378C9.01388 0.731959 8.91152 0.624763 8.78506 0.559604C8.46793 0.395657 8.08254 0.53228 7.92397 0.864378L5.64581 5.70082L0.549539 6.47642C0.409035 6.49744 0.280575 6.5668 0.182222 6.67189C0.0633192 6.79987 -0.00220171 6.97204 5.64944e-05 7.15058C0.0023147 7.32912 0.0721672 7.49941 0.194265 7.62405L3.88148 11.3885L3.01036 16.7042C2.98993 16.8279 3.003 16.955 3.04808 17.0713C3.09316 17.1876 3.16845 17.2883 3.26541 17.362C3.36237 17.4358 3.47713 17.4796 3.59666 17.4885C3.7162 17.4975 3.83573 17.4711 3.9417 17.4125L8.50004 14.9029L13.0584 17.4125C13.1828 17.4819 13.3273 17.505 13.4658 17.4798C13.8151 17.4167 14.0499 17.0699 13.9897 16.7042L13.1186 11.3885L16.8058 7.62405C16.9062 7.52106 16.9724 7.38654 16.9925 7.2394C17.0467 6.87157 16.8018 6.53107 16.4505 6.47642Z" fill="#FFE600"/>
</svg>
