<svg width="23" height="23" viewBox="0 0 23 23" fill="none" xmlns="http://www.w3.org/2000/svg">
<path d="M10.916 2.30953C11.2314 1.47755 12.4252 1.47755 12.7416 2.30953L14.7821 7.96183C14.8533 8.14596 14.9786 8.30417 15.1416 8.41557C15.3046 8.52698 15.4975 8.58634 15.6949 8.58582H20.7094C21.636 8.58582 22.0402 9.73915 21.3117 10.304L17.7433 13.5146C17.5835 13.6375 17.4666 13.8078 17.4096 14.0012C17.3526 14.1946 17.3583 14.4011 17.4259 14.591L18.7291 20.1142C19.0465 21.0014 18.0193 21.7634 17.2425 21.2173L12.3956 18.1417C12.2296 18.025 12.0317 17.9624 11.8288 17.9624C11.6259 17.9624 11.428 18.025 11.262 18.1417L6.41503 21.2173C5.63925 21.7634 4.61111 21.0004 4.92852 20.1142L6.23168 14.591C6.29928 14.4011 6.30498 14.1946 6.24796 14.0012C6.19093 13.8078 6.07412 13.6375 5.91427 13.5146L2.34585 10.304C1.61639 9.73915 2.02252 8.58582 2.94716 8.58582H7.96168C8.15912 8.58647 8.3521 8.52717 8.5151 8.41575C8.67809 8.30432 8.80342 8.14604 8.87449 7.96183L10.915 2.30953H10.916Z" stroke="#A8B7CF" stroke-width="2" stroke-linecap="round" stroke-linejoin="round"/>
</svg>
