<svg width="71" height="71" viewBox="0 0 71 71" fill="none" xmlns="http://www.w3.org/2000/svg">
<circle cx="35.5" cy="35.5" r="32.5" stroke="#ECF3FE" stroke-width="6" stroke-linecap="round"/>
<path d="M36 36L28.5224 29.9467C27.4115 29.0474 26.856 28.5977 26.4566 28.0464C26.1028 27.558 25.84 27.013 25.6803 26.4363C25.5 25.7854 25.5 25.0829 25.5 23.6781V19M36 36L43.4775 29.9467C44.5885 29.0474 45.144 28.5977 45.5434 28.0464C45.8972 27.558 46.16 27.013 46.3197 26.4363C46.5 25.7854 46.5 25.0829 46.5 23.6781V19M36 36L28.5225 42.0533C27.4115 42.9526 26.856 43.4023 26.4566 43.9536C26.1028 44.442 25.84 44.987 25.6803 45.5637C25.5 46.2146 25.5 46.9171 25.5 48.3219V53M36 36L43.4776 42.0533C44.5885 42.9526 45.144 43.4023 45.5434 43.9536C45.8972 44.442 46.16 44.987 46.3197 45.5637C46.5 46.2146 46.5 46.9171 46.5 48.3219V53M22 19H50M22 53H50" stroke="white" stroke-width="2" stroke-linecap="round" stroke-linejoin="round"/>
<path d="M36.0001 33.5996C31.4395 29.9004 27.8823 26.9465 28.2345 26.9996L43.7912 26.9996C44.2315 26.8344 40.0627 30.2123 36.0001 33.5996Z" fill="#1890FF"/>
<rect x="27.5" y="49" width="17" height="2" fill="#1890FF"/>
</svg>
