<svg width="11" height="12" viewBox="0 0 11 12" fill="none" xmlns="http://www.w3.org/2000/svg">
<path d="M2.19102 6.04129L6.24533 0.861126C6.30796 0.781689 6.25144 0.664062 6.14909 0.664062H4.96824C4.89339 0.664062 4.82159 0.699198 4.77576 0.757248L0.875739 5.74035C0.808195 5.82642 0.771484 5.93265 0.771484 6.04206C0.771484 6.15146 0.808195 6.2577 0.875739 6.34376L4.77576 11.3253C4.82159 11.3849 4.89339 11.4185 4.96824 11.4185H6.14909C6.25144 11.4185 6.30796 11.3009 6.24533 11.2215L2.19102 6.04129ZM6.835 6.04129L10.8893 0.861126C10.9519 0.781689 10.8954 0.664062 10.7931 0.664062H9.61221C9.53736 0.664062 9.46556 0.699198 9.41973 0.757248L5.51971 5.74035C5.45217 5.82642 5.41546 5.93265 5.41546 6.04206C5.41546 6.15146 5.45217 6.2577 5.51971 6.34376L9.41973 11.3253C9.46556 11.3849 9.53736 11.4185 9.61221 11.4185H10.7931C10.8954 11.4185 10.9519 11.3009 10.8893 11.2215L6.835 6.04129Z" fill="white" fill-opacity="0.85"/>
</svg>
