<svg width="371" height="52" viewBox="0 0 371 52" fill="none" xmlns="http://www.w3.org/2000/svg">
<path d="M0.631611 30.8569C0.270889 31.0605 0.143515 31.5179 0.347112 31.8787C0.550711 32.2394 1.00818 32.3668 1.36891 32.1632L0.631611 30.8569ZM369.012 51.0803C369.327 51.3499 369.8 51.3135 370.07 50.999C370.339 50.6845 370.303 50.211 369.988 49.9415L369.012 51.0803ZM3.91511 30.7678C4.28075 30.5731 4.41939 30.1189 4.22477 29.7533C4.03014 29.3877 3.57596 29.249 3.21032 29.4436L3.91511 30.7678ZM8.62357 26.7226C8.24943 26.9004 8.09023 27.3478 8.26797 27.7219C8.44572 28.096 8.89311 28.2552 9.26724 28.0775L8.62357 26.7226ZM14.6229 25.6624C15.0037 25.4994 15.1802 25.0585 15.0171 24.6778C14.8541 24.297 14.4132 24.1205 14.0324 24.2836L14.6229 25.6624ZM19.5995 22.0154C19.2133 22.1651 19.0217 22.5996 19.1714 22.9858C19.3212 23.372 19.7556 23.5636 20.1418 23.4139L19.5995 22.0154ZM25.7202 21.3509C26.1108 21.2131 26.3158 20.7847 26.178 20.3941C26.0402 20.0035 25.6118 19.7985 25.2212 19.9363L25.7202 21.3509ZM30.8765 18.0298C30.4822 18.1568 30.2656 18.5794 30.3926 18.9736C30.5196 19.3679 30.9422 19.5846 31.3364 19.4575L30.8765 18.0298ZM37.0624 17.6932C37.4597 17.5761 37.6869 17.1591 37.5698 16.7618C37.4527 16.3644 37.0357 16.1373 36.6384 16.2543L37.0624 17.6932ZM42.3535 14.6411C41.9536 14.7492 41.7171 15.1609 41.8252 15.5608C41.9333 15.9607 42.3451 16.1972 42.745 16.0891L42.3535 14.6411ZM48.5599 14.5834C48.9619 14.4838 49.207 14.0771 49.1074 13.675C49.0077 13.273 48.601 13.0278 48.1989 13.1275L48.5599 14.5834ZM53.9661 11.7568C53.5623 11.8488 53.3094 12.2508 53.4014 12.6546C53.4934 13.0585 53.8953 13.3113 54.2992 13.2194L53.9661 11.7568ZM60.1607 11.9405C60.5661 11.8558 60.8262 11.4584 60.7415 11.053C60.6568 10.6475 60.2594 10.3875 59.854 10.4722L60.1607 11.9405ZM65.6744 9.30719C65.2676 9.38516 65.001 9.77814 65.079 10.185C65.157 10.5918 65.55 10.8583 65.9568 10.7804L65.6744 9.30719ZM71.8565 9.69845C72.2645 9.62692 72.5373 9.23819 72.4658 8.83021C72.3942 8.42221 72.0055 8.14946 71.5975 8.22099L71.8565 9.69845ZM77.453 7.23908C77.044 7.30461 76.7655 7.68929 76.8311 8.09829C76.8966 8.50728 77.2813 8.78572 77.6903 8.72019L77.453 7.23908ZM83.6197 7.8134C84.0296 7.75365 84.3134 7.37294 84.2537 6.96306C84.1939 6.55318 83.8132 6.26934 83.4033 6.3291L83.6197 7.8134ZM89.2845 5.5118C88.8739 5.56612 88.5851 5.94304 88.6394 6.35367C88.6937 6.76431 89.0706 7.05316 89.4812 6.99885L89.2845 5.5118ZM95.4196 6.25226C95.8309 6.20321 96.1246 5.83002 96.0755 5.41872C96.0265 5.00742 95.6533 4.71376 95.242 4.76282L95.4196 6.25226ZM101.157 4.09407C100.745 4.13812 100.447 4.50771 100.491 4.91957C100.535 5.33144 100.904 5.62961 101.316 5.58556L101.157 4.09407ZM107.258 4.98572C107.67 4.94653 107.973 4.58048 107.934 4.16812C107.895 3.75577 107.528 3.45326 107.116 3.49245L107.258 4.98572ZM113.06 2.96174C112.647 2.99625 112.34 3.35885 112.375 3.77162C112.409 4.18439 112.772 4.49104 113.185 4.45653L113.06 2.96174ZM119.127 3.99278C119.54 3.96282 119.851 3.60362 119.821 3.19049C119.791 2.77736 119.432 2.46675 119.019 2.49671L119.127 3.99278ZM124.985 2.09618C124.572 2.12172 124.257 2.47758 124.283 2.891C124.308 3.30443 124.664 3.61887 125.078 3.59333L124.985 2.09618ZM131.02 3.25742C131.434 3.23619 131.752 2.88364 131.731 2.46997C131.709 2.0563 131.357 1.73816 130.943 1.75939L131.02 3.25742ZM136.925 1.48312C136.512 1.50012 136.19 1.8494 136.207 2.26327C136.224 2.67713 136.573 2.99885 136.987 2.98185L136.925 1.48312ZM142.93 2.76755C143.344 2.75468 143.669 2.40862 143.656 1.99461C143.643 1.58059 143.297 1.2554 142.883 1.26827L142.93 2.76755ZM148.868 1.11187C148.454 1.12066 148.125 1.46349 148.134 1.87761C148.143 2.29173 148.486 2.62032 148.9 2.61154L148.868 1.11187ZM154.85 2.51426C155.264 2.50949 155.596 2.16986 155.591 1.75567C155.586 1.34149 155.246 1.00959 154.832 1.01436L154.85 2.51426ZM160.81 0.974301C160.395 0.975089 160.06 1.31152 160.061 1.72573C160.062 2.13994 160.398 2.47509 160.812 2.4743L160.81 0.974301ZM166.773 2.49136C167.187 2.49452 167.525 2.1613 167.528 1.7471C167.531 1.3329 167.198 0.994562 166.784 0.991407L166.773 2.49136ZM172.756 1.06521C172.342 1.05814 172.001 1.38814 171.994 1.80229C171.987 2.21644 172.317 2.55792 172.731 2.56499L172.756 1.06521ZM178.692 2.69504C179.106 2.70603 179.451 2.37927 179.462 1.96521C179.473 1.55114 179.146 1.20656 178.732 1.19557L178.692 2.69504ZM184.702 1.38223C184.288 1.36733 183.941 1.69083 183.926 2.10477C183.911 2.51872 184.235 2.86636 184.648 2.88126L184.702 1.38223ZM190.601 3.12366C191.015 3.14247 191.366 2.82228 191.385 2.4085C191.403 1.99471 191.083 1.64402 190.669 1.62521L190.601 3.12366ZM196.641 1.92512C196.227 1.90237 195.873 2.21921 195.851 2.6328C195.828 3.04639 196.145 3.40011 196.558 3.42286L196.641 1.92512ZM202.504 3.77836C202.917 3.80507 203.274 3.49163 203.301 3.07828C203.327 2.66493 203.014 2.30819 202.6 2.28148L202.504 3.77836ZM208.565 2.69579C208.152 2.66508 207.792 2.97505 207.761 3.38812C207.731 3.8012 208.041 4.16095 208.454 4.19166L208.565 2.69579ZM214.394 4.66248C214.807 4.69723 215.17 4.3908 215.204 3.97805C215.239 3.5653 214.933 3.20252 214.52 3.16777L214.394 4.66248ZM220.468 3.69834C220.056 3.65948 219.69 3.96229 219.651 4.37467C219.612 4.78706 219.915 5.15287 220.327 5.19173L220.468 3.69834ZM226.265 5.78157C226.677 5.82462 227.046 5.52554 227.089 5.11357C227.132 4.7016 226.833 4.33273 226.421 4.28969L226.265 5.78157ZM232.343 4.93935C231.932 4.89205 231.56 5.1873 231.513 5.59881C231.465 6.01031 231.761 6.38224 232.172 6.42954L232.343 4.93935ZM238.108 7.14372C238.519 7.19539 238.894 6.90412 238.946 6.49314C238.997 6.08217 238.706 5.70711 238.295 5.65544L238.108 7.14372ZM244.202 6.43057C243.791 6.37444 243.413 6.66162 243.357 7.07201C243.301 7.4824 243.588 7.8606 243.998 7.91673L244.202 6.43057ZM249.916 8.75997C250.326 8.82072 250.707 8.53782 250.768 8.12809C250.829 7.71835 250.546 7.33695 250.136 7.27619L249.916 8.75997ZM256.031 8.18504C255.622 8.11954 255.237 8.39801 255.172 8.80701C255.106 9.21601 255.385 9.60067 255.794 9.66617L256.031 8.18504ZM261.68 10.6449C262.088 10.7153 262.476 10.4415 262.546 10.0333C262.617 9.62516 262.343 9.23717 261.935 9.16675L261.68 10.6449ZM267.816 10.2191C267.409 10.1436 267.017 10.4125 266.942 10.8198C266.866 11.227 267.135 11.6184 267.542 11.6939L267.816 10.2191ZM273.39 12.8175C273.796 12.8984 274.191 12.6346 274.272 12.2283C274.352 11.8221 274.089 11.4272 273.682 11.3464L273.39 12.8175ZM279.545 12.5545C279.14 12.4681 278.742 12.7264 278.655 13.1315C278.569 13.5366 278.827 13.9351 279.232 14.0215L279.545 12.5545ZM285.035 15.3023C285.438 15.3946 285.841 15.142 285.933 14.7381C286.025 14.3343 285.772 13.9322 285.369 13.84L285.035 15.3023ZM291.204 15.2191C290.802 15.1207 290.396 15.3672 290.298 15.7695C290.199 16.1719 290.446 16.5778 290.848 16.6762L291.204 15.2191ZM296.6 18.1309C297.001 18.2357 297.411 17.9959 297.515 17.5951C297.62 17.1944 297.38 16.7846 296.98 16.6798L296.6 18.1309ZM302.775 18.2487C302.376 18.137 301.963 18.3698 301.851 18.7687C301.739 19.1675 301.972 19.5814 302.371 19.6932L302.775 18.2487ZM308.065 21.344C308.462 21.463 308.88 21.2379 308.999 20.8411C309.118 20.4444 308.893 20.0263 308.496 19.9073L308.065 21.344ZM314.232 21.6894C313.838 21.5625 313.415 21.7793 313.288 22.1736C313.162 22.5679 313.378 22.9904 313.773 23.1173L314.232 21.6894ZM319.401 24.9942C319.793 25.1295 320.22 24.9218 320.355 24.5303C320.49 24.1388 320.283 23.7118 319.891 23.5765L319.401 24.9942ZM325.537 25.6005C325.149 25.4561 324.717 25.6538 324.573 26.042C324.428 26.4302 324.626 26.862 325.014 27.0064L325.537 25.6005ZM330.562 29.1497C330.946 29.3039 331.383 29.1174 331.537 28.733C331.691 28.3486 331.505 27.9119 331.12 27.7576L330.562 29.1497ZM336.633 30.0589C336.253 29.8938 335.811 30.068 335.646 30.448C335.481 30.8279 335.655 31.2696 336.035 31.4347L336.633 30.0589ZM341.474 33.8981C341.848 34.075 342.295 33.9148 342.472 33.5403C342.649 33.1658 342.489 32.7187 342.114 32.5418L341.474 33.8981ZM347.434 35.167C347.066 34.9772 346.614 35.1217 346.424 35.4898C346.234 35.858 346.378 36.3103 346.747 36.5002L347.434 35.167ZM352.019 39.3518C352.379 39.5563 352.837 39.43 353.041 39.0698C353.246 38.7096 353.119 38.2518 352.759 38.0473L352.019 39.3518ZM357.904 41.1207C357.553 40.9001 357.09 41.0055 356.87 41.356C356.649 41.7066 356.754 42.1696 357.105 42.3903L357.904 41.1207ZM362.006 45.6512C362.345 45.8897 362.813 45.8086 363.051 45.47C363.29 45.1313 363.209 44.6635 362.87 44.4249L362.006 45.6512ZM367.716 48.0597C367.393 47.8009 366.921 47.8532 366.662 48.1765C366.403 48.4999 366.455 48.9719 366.779 49.2308L367.716 48.0597ZM1.36891 32.1632C2.20289 31.6924 3.05173 31.2273 3.91511 30.7678L3.21032 29.4436C2.33633 29.9088 1.47665 30.3799 0.631611 30.8569L1.36891 32.1632ZM9.26724 28.0775C11.0038 27.2525 12.7897 26.4475 14.6229 25.6624L14.0324 24.2836C12.1822 25.0759 10.3785 25.8889 8.62357 26.7226L9.26724 28.0775ZM20.1418 23.4139C21.9615 22.7083 23.8216 22.0207 25.7202 21.3509L25.2212 19.9363C23.3087 20.611 21.4342 21.304 19.5995 22.0154L20.1418 23.4139ZM31.3364 19.4575C33.2123 18.8532 35.1215 18.2651 37.0624 17.6932L36.6384 16.2543C34.6859 16.8297 32.7647 17.4215 30.8765 18.0298L31.3364 19.4575ZM42.745 16.0891C44.6562 15.5724 46.5949 15.0705 48.5599 14.5834L48.1989 13.1275C46.2241 13.6171 44.2752 14.1216 42.3535 14.6411L42.745 16.0891ZM54.2992 13.2194C56.2306 12.7795 58.1848 12.3532 60.1607 11.9405L59.854 10.4722C57.8695 10.8867 55.9065 11.3149 53.9661 11.7568L54.2992 13.2194ZM65.9568 10.7804C67.9047 10.4071 69.8716 10.0465 71.8565 9.69845L71.5975 8.22099C69.605 8.57032 67.6303 8.93238 65.6744 9.30719L65.9568 10.7804ZM77.6903 8.72019C79.6511 8.40602 81.628 8.10376 83.6197 7.8134L83.4033 6.3291C81.4047 6.62045 79.4209 6.92377 77.453 7.23908L77.6903 8.72019ZM89.4812 6.99885C91.4478 6.73872 93.4275 6.48987 95.4196 6.25226L95.242 4.76282C93.2437 5.00117 91.2575 5.25082 89.2845 5.5118L89.4812 6.99885ZM101.316 5.58556C103.286 5.37488 105.267 5.17494 107.258 4.98572L107.116 3.49245C105.119 3.68221 103.133 3.88275 101.157 4.09407L101.316 5.58556ZM113.185 4.45653C115.157 4.29163 117.138 4.13705 119.127 3.99278L119.019 2.49671C117.024 2.64138 115.038 2.79638 113.06 2.96174L113.185 4.45653ZM125.078 3.59333C127.052 3.47138 129.033 3.35942 131.02 3.25742L130.943 1.75939C128.951 1.86166 126.965 1.97391 124.985 2.09618L125.078 3.59333ZM136.987 2.98185C138.963 2.90069 140.944 2.82926 142.93 2.76755L142.883 1.26827C140.892 1.33014 138.906 1.40175 136.925 1.48312L136.987 2.98185ZM148.9 2.61154C150.88 2.56955 152.863 2.53713 154.85 2.51426L154.832 1.01436C152.841 1.03728 150.853 1.06979 148.868 1.11187L148.9 2.61154ZM160.812 2.4743C162.797 2.47052 164.784 2.47621 166.773 2.49136L166.784 0.991407C164.791 0.976218 162.799 0.970513 160.81 0.974301L160.812 2.4743ZM172.731 2.56499C174.717 2.59894 176.705 2.6423 178.692 2.69504L178.732 1.19557C176.74 1.1427 174.748 1.09924 172.756 1.06521L172.731 2.56499ZM184.648 2.88126C186.634 2.9527 188.618 3.0335 190.601 3.12366L190.669 1.62521C188.681 1.53484 186.692 1.45384 184.702 1.38223L184.648 2.88126ZM196.558 3.42286C198.543 3.53198 200.525 3.65049 202.504 3.77836L202.6 2.28148C200.616 2.1533 198.63 2.03451 196.641 1.92512L196.558 3.42286ZM208.454 4.19166C210.438 4.33914 212.418 4.49609 214.394 4.66248L214.52 3.16777C212.539 3.00096 210.554 2.84363 208.565 2.69579L208.454 4.19166ZM220.327 5.19173C222.312 5.37874 224.291 5.57536 226.265 5.78157L226.421 4.28969C224.442 4.08295 222.458 3.88583 220.468 3.69834L220.327 5.19173ZM232.172 6.42954C234.158 6.65778 236.137 6.89585 238.108 7.14372L238.295 5.65544C236.319 5.4069 234.334 5.1682 232.343 4.93935L232.172 6.42954ZM243.998 7.91673C245.98 8.18776 247.953 8.46885 249.916 8.75997L250.136 7.27619C248.167 6.98423 246.189 6.70236 244.202 6.43057L243.998 7.91673ZM255.794 9.66617C257.767 9.98209 259.729 10.3083 261.68 10.6449L261.935 9.16675C259.978 8.82915 258.01 8.5019 256.031 8.18504L255.794 9.66617ZM267.542 11.6939C269.505 12.0578 271.454 12.4323 273.39 12.8175L273.682 11.3464C271.74 10.9599 269.784 10.5841 267.816 10.2191L267.542 11.6939ZM279.232 14.0215C281.182 14.4373 283.116 14.8643 285.035 15.3023L285.369 13.84C283.443 13.4003 281.502 12.9718 279.545 12.5545L279.232 14.0215ZM290.848 16.6762C292.784 17.1494 294.702 17.6343 296.6 18.1309L296.98 16.6798C295.073 16.1811 293.148 15.6942 291.204 15.2191L290.848 16.6762ZM302.371 19.6932C304.291 20.231 306.19 20.7813 308.065 21.344L308.496 19.9073C306.612 19.3419 304.704 18.789 302.775 18.2487L302.371 19.6932ZM313.773 23.1173C315.675 23.7296 317.552 24.3552 319.401 24.9942L319.891 23.5765C318.031 22.9339 316.145 22.3048 314.232 21.6894L313.773 23.1173ZM325.014 27.0064C326.896 27.7062 328.745 28.4206 330.562 29.1497L331.12 27.7576C329.292 27.0236 327.43 26.3046 325.537 25.6005L325.014 27.0064ZM336.035 31.4347C337.887 32.2394 339.701 33.0606 341.474 33.8981L342.114 32.5418C340.327 31.6973 338.499 30.8697 336.633 30.0589L336.035 31.4347ZM346.747 36.5002C348.554 37.4321 350.312 38.3827 352.019 39.3518L352.759 38.0473C351.034 37.0679 349.258 36.1078 347.434 35.167L346.747 36.5002ZM357.105 42.3903C358.8 43.4567 360.434 44.5437 362.006 45.6512L362.87 44.4249C361.276 43.3017 359.619 42.2003 357.904 41.1207L357.105 42.3903ZM366.779 49.2308C367.542 49.8416 368.286 50.4581 369.012 51.0803L369.988 49.9415C369.249 49.308 368.492 48.6808 367.716 48.0597L366.779 49.2308Z" fill="white" fill-opacity="0.23"/>
</svg>
