<svg width="401" height="83" viewBox="0 0 401 83" fill="none" xmlns="http://www.w3.org/2000/svg">
<path d="M400.278 65.8723C400.625 66.302 400.558 66.9316 400.129 67.2786C399.699 67.6256 399.069 67.5586 398.722 67.129L400.278 65.8723ZM0.0321549 1.75082C-0.105859 1.21605 0.215798 0.670672 0.750539 0.532661C1.28531 0.394656 1.83069 0.716292 1.9687 1.25107L0.0321549 1.75082ZM206.5 73.0014L206.231 72.0385L206.5 73.0014ZM396.832 64.921C396.461 64.5122 396.491 63.8798 396.9 63.5085C397.309 63.1372 397.941 63.1676 398.313 63.5764L396.832 64.921ZM393.979 59.3577C394.398 59.7173 394.447 60.3486 394.087 60.7678C393.727 61.187 393.096 61.2352 392.677 60.8756L393.979 59.3577ZM388.048 57.393C387.587 57.0897 387.459 56.4696 387.762 56.0081C388.065 55.5465 388.685 55.4182 389.147 55.7215L388.048 57.393ZM383.905 52.721C384.4 52.9662 384.602 53.5662 384.357 54.061C384.111 54.5559 383.511 54.7582 383.017 54.5129L383.905 52.721ZM377.665 52.2202C377.146 52.0298 376.881 51.4552 377.071 50.9368C377.261 50.4183 377.836 50.1524 378.354 50.3428L377.665 52.2202ZM372.62 48.54C373.153 48.6819 373.471 49.2296 373.329 49.7633C373.187 50.2971 372.64 50.6148 372.106 50.4729L372.62 48.54ZM366.395 49.1952C365.852 49.0948 365.493 48.5732 365.593 48.0301C365.693 47.487 366.215 47.1282 366.758 47.2285L366.395 49.1952ZM360.848 46.3354C361.396 46.401 361.788 46.8988 361.722 47.4472C361.656 47.9955 361.159 48.3868 360.61 48.3212L360.848 46.3354ZM354.751 47.7812C354.2 47.7446 353.783 47.2682 353.819 46.7171C353.856 46.166 354.332 45.749 354.884 45.7856L354.751 47.7812ZM348.899 45.5246C349.451 45.5369 349.889 45.9944 349.876 46.5465C349.864 47.0987 349.407 47.5364 348.854 47.5241L348.899 45.5246ZM342.968 47.5055C342.416 47.5136 341.962 47.0725 341.953 46.5203C341.945 45.9681 342.386 45.5138 342.939 45.5057L342.968 47.5055ZM336.987 45.6892C337.539 45.6637 338.006 46.0904 338.032 46.6421C338.057 47.1938 337.631 47.6616 337.079 47.687L336.987 45.6892ZM331.185 48.0399C330.634 48.0801 330.155 47.6661 330.115 47.1153C330.075 46.5645 330.489 46.0854 331.04 46.0452L331.185 48.0399ZM325.098 46.5497C325.647 46.4968 326.136 46.8995 326.189 47.4493C326.242 47.999 325.839 48.4876 325.289 48.5405L325.098 46.5497ZM319.433 49.1652C318.885 49.2291 318.388 48.8363 318.324 48.2877C318.26 47.7391 318.653 47.2426 319.202 47.1786L319.433 49.1652ZM313.322 47.9176C313.869 47.8441 314.372 48.2281 314.446 48.7755C314.519 49.3229 314.135 49.8262 313.588 49.8998L313.322 47.9176ZM307.745 50.7325C307.199 50.8145 306.69 50.4383 306.607 49.8922C306.525 49.346 306.902 48.8367 307.448 48.7547L307.745 50.7325ZM301.571 49.6803C302.115 49.5907 302.63 49.9598 302.72 50.5048C302.809 51.0498 302.44 51.5642 301.895 51.6538L301.571 49.6803ZM296.029 52.6568C295.485 52.7532 294.966 52.3904 294.869 51.8466C294.773 51.3028 295.136 50.7838 295.68 50.6875L296.029 52.6568ZM289.87 51.7507C290.413 51.6484 290.936 52.0053 291.038 52.548C291.141 53.0908 290.784 53.6137 290.241 53.7161L289.87 51.7507ZM284.444 54.8401C283.902 54.9479 283.376 54.5962 283.268 54.0545C283.16 53.5128 283.512 52.9864 284.053 52.8786L284.444 54.8401ZM278.202 54.0712C278.743 53.9585 279.272 54.3054 279.385 54.846C279.498 55.3867 279.151 55.9164 278.61 56.0291L278.202 54.0712ZM272.843 57.2567C272.303 57.3738 271.771 57.0313 271.654 56.4916C271.537 55.9518 271.879 55.4193 272.419 55.3022L272.843 57.2567ZM266.633 56.5815C267.171 56.4602 267.707 56.7988 267.828 57.3376C267.949 57.8764 267.61 58.4115 267.072 58.5327L266.633 56.5815ZM261.253 59.8635C260.715 59.9885 260.177 59.6537 260.052 59.1158C259.927 58.5778 260.262 58.0404 260.8 57.9154L261.253 59.8635ZM255.075 59.2647C255.613 59.1363 256.152 59.4677 256.28 60.0049C256.409 60.542 256.077 61.0815 255.54 61.2099L255.075 59.2647ZM249.753 62.6113C249.216 62.7428 248.675 62.4146 248.543 61.8782C248.412 61.3418 248.74 60.8004 249.277 60.6688L249.753 62.6113ZM243.543 62.0916C244.078 61.9571 244.622 62.2824 244.756 62.8181C244.89 63.3537 244.565 63.897 244.029 64.0314L243.543 62.0916ZM238.279 65.4902C237.744 65.6273 237.199 65.3048 237.062 64.7698C236.925 64.2348 237.247 63.69 237.782 63.5528L238.279 65.4902ZM232.041 65.0391C232.575 64.8994 233.122 65.2194 233.261 65.7537C233.401 66.2881 233.081 66.8344 232.547 66.9741L232.041 65.0391ZM226.823 68.4833C226.289 68.6253 225.741 68.3077 225.599 67.7739C225.457 67.2402 225.775 66.6925 226.309 66.5505L226.823 68.4833ZM220.572 68.0891C221.105 67.9449 221.654 68.2603 221.798 68.7934C221.943 69.3265 221.627 69.8756 221.094 70.0197L220.572 68.0891ZM215.386 71.5749C214.853 71.721 214.303 71.4078 214.157 70.8752C214.01 70.3426 214.324 69.7924 214.856 69.6462L215.386 71.5749ZM209.135 71.2275C209.667 71.0795 210.218 71.3908 210.366 71.9228C210.514 72.4549 210.203 73.0062 209.671 73.1543L209.135 71.2275ZM203.863 74.7597C203.329 74.9022 202.781 74.5852 202.639 74.0516C202.496 73.518 202.813 72.9699 203.347 72.8274L203.863 74.7597ZM197.585 74.2912C198.122 74.1617 198.663 74.492 198.792 75.0289C198.921 75.5658 198.591 76.106 198.054 76.2354L197.585 74.2912ZM192.19 77.5736C191.65 77.6898 191.118 77.3463 191.002 76.8064C190.886 76.2665 191.229 75.7346 191.769 75.6183L192.19 77.5736ZM185.935 76.7995C186.477 76.6966 187.001 77.0531 187.104 77.5957C187.206 78.1383 186.85 78.6616 186.307 78.7645L185.935 76.7995ZM180.403 79.8089C179.858 79.8984 179.343 79.5291 179.254 78.9841C179.164 78.4391 179.534 77.9248 180.079 77.8354L180.403 79.8089ZM174.182 78.7279C174.729 78.6521 175.234 79.0341 175.31 79.5811C175.385 80.1282 175.003 80.6331 174.456 80.709L174.182 78.7279ZM168.501 81.4584C167.952 81.5205 167.457 81.126 167.395 80.5772C167.333 80.0284 167.727 79.5332 168.276 79.4711L168.501 81.4584ZM162.36 80.0648C162.911 80.0166 163.396 80.4235 163.444 80.9737C163.492 81.5239 163.085 82.0089 162.535 82.0571L162.36 80.0648ZM156.537 82.5054C155.985 82.5395 155.511 82.1203 155.477 81.5691C155.443 81.0179 155.862 80.5433 156.413 80.5092L156.537 82.5054ZM150.467 80.8004C151.019 80.7805 151.483 81.2118 151.502 81.7638C151.522 82.3157 151.091 82.7792 150.539 82.7991L150.467 80.8004ZM144.546 82.9372C143.994 82.9427 143.542 82.4995 143.536 81.9472C143.531 81.395 143.974 80.9428 144.526 80.9373L144.546 82.9372ZM138.564 80.9183C139.116 80.9274 139.556 81.3824 139.547 81.9346C139.538 82.4868 139.083 82.9271 138.531 82.918L138.564 80.9183ZM132.524 82.7391C131.973 82.7153 131.545 82.2486 131.569 81.6969C131.592 81.1451 132.059 80.7171 132.611 80.741L132.524 82.7391ZM126.675 80.4039C127.226 80.4427 127.641 80.9208 127.602 81.4717C127.563 82.0226 127.085 82.4378 126.534 82.399L126.675 80.4039ZM120.55 81.8945C120 81.8404 119.598 81.3511 119.652 80.8014C119.706 80.2518 120.196 79.85 120.745 79.904L120.55 81.8945ZM114.824 79.238C115.372 79.3075 115.759 79.808 115.69 80.3559C115.62 80.9037 115.12 81.2916 114.572 81.2221L114.824 79.238ZM108.624 80.381C108.078 80.2957 107.705 79.7843 107.79 79.2386C107.875 78.693 108.387 78.3197 108.932 78.4049L108.624 80.381ZM103.076 77.4025C103.619 77.5037 103.977 78.0259 103.876 78.5688C103.775 79.1117 103.253 79.4698 102.71 79.3687L103.076 77.4025ZM96.8165 78.1783C96.2768 78.0608 95.9347 77.5281 96.0522 76.9884C96.1697 76.4488 96.7025 76.1066 97.2421 76.2242L96.8165 78.1783ZM91.4435 74.8671C91.9793 75.0013 92.3047 75.5444 92.1705 76.0801C92.0363 76.6159 91.4932 76.9414 90.9575 76.8071L91.4435 74.8671ZM85.1502 75.2537C84.619 75.1024 84.311 74.5492 84.4623 74.0181C84.6136 73.4869 85.1668 73.1789 85.6979 73.3302L85.1502 75.2537ZM80.0122 71.6098C80.5381 71.7785 80.8276 72.3415 80.659 72.8674C80.4903 73.3933 79.9272 73.6829 79.4013 73.5142L80.0122 71.6098ZM73.7143 71.5829C73.1945 71.3964 72.9243 70.8238 73.1108 70.304C73.2974 69.7841 73.87 69.5139 74.3898 69.7005L73.7143 71.5829ZM68.8229 67.591C69.3358 67.796 69.5854 68.3778 69.3805 68.8907C69.1756 69.4036 68.5937 69.6532 68.0809 69.4483L68.8229 67.591ZM62.5318 67.1121C62.0268 66.8883 61.7989 66.2976 62.0227 65.7927C62.2464 65.2877 62.8371 65.0598 63.3421 65.2836L62.5318 67.1121ZM57.9577 62.7729C58.4536 63.016 58.6586 63.6151 58.4155 64.111C58.1724 64.6069 57.5733 64.8119 57.0774 64.5688L57.9577 62.7729ZM51.7292 61.8125C51.2436 61.5496 51.063 60.9427 51.326 60.457C51.589 59.9714 52.1958 59.7908 52.6815 60.0538L51.7292 61.8125ZM47.5266 57.1205C48.0006 57.4039 48.1552 58.0179 47.8718 58.4919C47.5885 58.966 46.9745 59.1205 46.5004 58.8372L47.5266 57.1205ZM41.4057 55.6362C40.9448 55.3319 40.8179 54.7116 41.1222 54.2507C41.4265 53.7898 42.0468 53.6629 42.5077 53.9672L41.4057 55.6362ZM37.6308 50.5802C38.0768 50.906 38.1742 51.5316 37.8484 51.9776C37.5226 52.4235 36.897 52.5209 36.451 52.1952L37.6308 50.5802ZM31.6692 48.5163C31.2402 48.1685 31.1743 47.5388 31.522 47.1097C31.8697 46.6807 32.4995 46.6148 32.9285 46.9625L31.6692 48.5163ZM28.4229 43.1102C28.8329 43.4802 28.8653 44.1125 28.4952 44.5225C28.1252 44.9325 27.4929 44.9649 27.0829 44.5949L28.4229 43.1102ZM22.7165 40.4273C22.3281 40.0348 22.3313 39.4016 22.7238 39.0131C23.1164 38.6246 23.7495 38.6279 24.1381 39.0204L22.7165 40.4273ZM20.1007 34.6923C20.4651 35.1073 20.424 35.7391 20.009 36.1035C19.5939 36.4679 18.9621 36.4268 18.5977 36.0118L20.1007 34.6923ZM14.7563 31.3492C14.4189 30.9119 14.4999 30.284 14.9372 29.9466C15.3744 29.6092 16.0024 29.6901 16.3398 30.1274L14.7563 31.3492ZM12.886 25.3309C13.1935 25.7897 13.0707 26.4109 12.6119 26.7183C12.1531 27.0257 11.5319 26.903 11.2245 26.4442L12.886 25.3309ZM8.03562 21.3061C7.7612 20.8269 7.92724 20.2159 8.40653 19.9414C8.88578 19.667 9.4968 19.8331 9.77123 20.3123L8.03562 21.3061ZM7.02676 15.086C7.26528 15.5841 7.05482 16.1813 6.55669 16.4198C6.05855 16.6583 5.46139 16.4478 5.22289 15.9497L7.02676 15.086ZM2.81778 10.3957C2.61788 9.8809 2.87317 9.30148 3.38801 9.10158C3.90282 8.90166 4.48227 9.15696 4.68217 9.6718L2.81778 10.3957ZM2.76312 4.09502C2.92222 4.62391 2.62245 5.18161 2.09355 5.34069C1.56468 5.49977 1.00699 5.2 0.847901 4.67114L2.76312 4.09502ZM398.722 67.129C398.112 66.373 397.482 65.6369 396.832 64.921L398.313 63.5764C398.989 64.3217 399.644 65.0872 400.278 65.8723L398.722 67.129ZM392.677 60.8756C391.23 59.6348 389.692 58.4729 388.048 57.393L389.147 55.7215C390.862 56.8486 392.469 58.0619 393.979 59.3577L392.677 60.8756ZM383.017 54.5129C381.333 53.6786 379.552 52.9134 377.665 52.2202L378.354 50.3428C380.307 51.06 382.154 51.8534 383.905 52.721L383.017 54.5129ZM372.106 50.4729C370.291 49.9905 368.389 49.564 366.395 49.1952L366.758 47.2285C368.801 47.6061 370.753 48.0437 372.62 48.54L372.106 50.4729ZM360.61 48.3212C358.732 48.0963 356.78 47.9159 354.751 47.7812L354.884 45.7856C356.946 45.9225 358.933 46.106 360.848 46.3354L360.61 48.3212ZM348.854 47.5241C346.955 47.482 344.993 47.4756 342.968 47.5055L342.939 45.5057C344.987 45.4754 346.973 45.482 348.899 45.5246L348.854 47.5241ZM337.079 47.687C335.168 47.7751 333.204 47.8926 331.185 48.0399L331.04 46.0452C333.075 45.8966 335.057 45.7781 336.987 45.6892L337.079 47.687ZM325.289 48.5405C323.383 48.7241 321.431 48.9322 319.433 49.1652L319.202 47.1786C321.212 46.9442 323.177 46.7347 325.098 46.5497L325.289 48.5405ZM313.588 49.8998C311.68 50.1562 309.733 50.4337 307.745 50.7325L307.448 48.7547C309.446 48.4544 311.403 48.1755 313.322 47.9176L313.588 49.8998ZM301.895 51.6538C299.976 51.9695 298.02 52.3037 296.029 52.6568L295.68 50.6875C297.679 50.333 299.643 49.9974 301.571 49.6803L301.895 51.6538ZM290.241 53.7161C288.341 54.0746 286.408 54.4492 284.444 54.8401L284.053 52.8786C286.024 52.4864 287.963 52.1105 289.87 51.7507L290.241 53.7161ZM278.61 56.0291C276.717 56.4239 274.795 56.833 272.843 57.2567L272.419 55.3022C274.375 54.8774 276.303 54.4671 278.202 54.0712L278.61 56.0291ZM267.072 58.5327C265.159 58.963 263.22 59.4066 261.253 59.8635L260.8 57.9154C262.771 57.4574 264.715 57.0128 266.633 56.5815L267.072 58.5327ZM255.54 61.2099C253.636 61.665 251.707 62.1321 249.753 62.6113L249.277 60.6688C251.234 60.1887 253.167 59.7207 255.075 59.2647L255.54 61.2099ZM244.029 64.0314C242.135 64.5067 240.219 64.993 238.279 65.4902L237.782 63.5528C239.725 63.0548 241.645 62.5677 243.543 62.0916L244.029 64.0314ZM232.547 66.9741C230.66 67.4671 228.752 67.9702 226.823 68.4833L226.309 66.5505C228.241 66.0366 230.151 65.5329 232.041 65.0391L232.547 66.9741ZM221.094 70.0197C219.211 70.5288 217.308 71.0472 215.386 71.5749L214.856 69.6462C216.781 69.1179 218.687 68.5988 220.572 68.0891L221.094 70.0197ZM209.671 73.1543C208.709 73.4221 207.742 73.6921 206.77 73.9643L206.231 72.0385C207.204 71.7659 208.172 71.4956 209.135 71.2275L209.671 73.1543ZM206.77 73.9643C205.801 74.2359 204.832 74.501 203.863 74.7597L203.347 72.8274C204.308 72.5708 205.269 72.3078 206.231 72.0385L206.77 73.9643ZM198.054 76.2354C196.097 76.7073 194.143 77.1532 192.19 77.5736L191.769 75.6183C193.706 75.2014 195.645 74.7591 197.585 74.2912L198.054 76.2354ZM186.307 78.7645C184.336 79.1384 182.367 79.4865 180.403 79.8089L180.079 77.8354C182.027 77.5155 183.979 77.1704 185.935 76.7995L186.307 78.7645ZM174.456 80.709C172.466 80.9848 170.481 81.2345 168.501 81.4584L168.276 79.4711C170.24 79.249 172.208 79.0014 174.182 78.7279L174.456 80.709ZM162.535 82.0571C160.529 82.2328 158.529 82.3821 156.537 82.5054L156.413 80.5092C158.389 80.387 160.371 80.239 162.36 80.0648L162.535 82.0571ZM150.539 82.7991C148.533 82.8714 146.535 82.9173 144.546 82.9372L144.526 80.9373C146.498 80.9176 148.479 80.8721 150.467 80.8004L150.539 82.7991ZM138.531 82.918C136.518 82.885 134.516 82.8252 132.524 82.7391L132.611 80.741C134.584 80.8263 136.569 80.8855 138.564 80.9183L138.531 82.918ZM126.534 82.399C124.527 82.2576 122.532 82.0892 120.55 81.8945L120.745 79.904C122.709 80.097 124.686 80.2638 126.675 80.4039L126.534 82.399ZM114.572 81.2221C112.575 80.9687 110.591 80.6882 108.624 80.381L108.932 78.4049C110.881 78.7092 112.845 78.987 114.824 79.238L114.572 81.2221ZM102.71 79.3687C100.728 78.9993 98.7632 78.6023 96.8165 78.1783L97.2421 76.2242C99.169 76.6438 101.114 77.0368 103.076 77.4025L102.71 79.3687ZM90.9575 76.8071C89.0013 76.317 87.0652 75.7991 85.1502 75.2537L85.6979 73.3302C87.5923 73.8696 89.5078 74.3821 91.4435 74.8671L90.9575 76.8071ZM79.4013 73.5142C77.4819 72.8985 75.5858 72.2546 73.7143 71.5829L74.3898 69.7005C76.2397 70.3643 78.1142 71.0009 80.0122 71.6098L79.4013 73.5142ZM68.0809 69.4483C66.2034 68.6982 64.3533 67.9192 62.5318 67.1121L63.3421 65.2836C65.1407 66.0806 66.9681 66.85 68.8229 67.591L68.0809 69.4483ZM57.0774 64.5688C55.2625 63.6791 53.4793 62.7601 51.7292 61.8125L52.6815 60.0538C54.4075 60.9883 56.1666 61.895 57.9577 62.7729L57.0774 64.5688ZM46.5004 58.8372C44.7649 57.7997 43.0661 56.7325 41.4057 55.6362L42.5077 53.9672C44.1427 55.0467 45.8162 56.0981 47.5266 57.1205L46.5004 58.8372ZM36.451 52.1952C34.8137 50.999 33.2192 49.7724 31.6692 48.5163L32.9285 46.9625C34.4519 48.1971 36.0199 49.4034 37.6308 50.5802L36.451 52.1952ZM27.0829 44.5949C25.5774 43.2361 24.1213 41.8466 22.7165 40.4273L24.1381 39.0204C25.5158 40.4125 26.9446 41.776 28.4229 43.1102L27.0829 44.5949ZM18.5977 36.0118C17.2599 34.4879 15.9787 32.9334 14.7563 31.3492L16.3398 30.1274C17.5358 31.6775 18.7901 33.1994 20.1007 34.6923L18.5977 36.0118ZM11.2245 26.4442C10.0968 24.7612 9.03311 23.0482 8.03562 21.3061L9.77123 20.3123C10.745 22.0129 11.784 23.6861 12.886 25.3309L11.2245 26.4442ZM5.22289 15.9497C4.34991 14.1265 3.54742 12.2748 2.81778 10.3957L4.68217 9.6718C5.39315 11.5028 6.17543 13.3079 7.02676 15.086L5.22289 15.9497ZM0.847901 4.67114C0.55702 3.70415 0.285006 2.73066 0.0321549 1.75082L1.9687 1.25107C2.21493 2.20522 2.47983 3.15326 2.76312 4.09502L0.847901 4.67114Z" fill="white" fill-opacity="0.23"/>
</svg>
