<svg width="164" height="101" viewBox="0 0 164 101" fill="none" xmlns="http://www.w3.org/2000/svg">
<path d="M2.49622 98.9248C2.54422 99.475 2.13711 99.9599 1.58692 100.008C1.03672 100.056 0.551788 99.6488 0.503784 99.0986L2.49622 98.9248ZM163.388 9.59013C163.897 9.80455 164.136 10.391 163.922 10.8999C163.707 11.4089 163.121 11.6477 162.612 11.4333L163.388 9.59013ZM0.293686 96.0262C0.26643 95.4746 0.691504 95.0053 1.24312 94.9781C1.79473 94.9508 2.26399 95.3759 2.29125 95.9275L0.293686 96.0262ZM2.22523 89.983C2.20995 90.535 1.75001 90.9702 1.19794 90.9549C0.645865 90.9396 0.210711 90.4797 0.225995 89.9276L2.22523 89.983ZM0.636583 83.8395C0.695759 83.2904 1.18887 82.8932 1.73797 82.9524C2.28708 83.0116 2.68425 83.5047 2.62507 84.0538L0.636583 83.8395ZM3.50095 78.1761C3.39736 78.7186 2.87361 79.0743 2.33113 78.9708C1.78865 78.8672 1.43286 78.3434 1.53645 77.8009L3.50095 78.1761ZM2.92675 71.8535C3.07438 71.3213 3.62548 71.0096 4.15767 71.1572C4.68985 71.3048 5.00161 71.8559 4.85398 72.3881L2.92675 71.8535ZM6.67566 66.7278C6.48527 67.2462 5.91066 67.5121 5.39223 67.3217C4.8738 67.1314 4.60787 66.5567 4.79826 66.0383L6.67566 66.7278ZM7.1323 60.3927C7.36342 59.8911 7.95741 59.6719 8.45901 59.903C8.96061 60.1341 9.17987 60.7281 8.94875 61.2297L7.1323 60.3927ZM11.648 55.9253C11.3788 56.4075 10.7696 56.5802 10.2874 56.311C9.80515 56.0418 9.63248 55.4326 9.90171 54.9504L11.648 55.9253ZM13.0742 49.7371C13.3786 49.2763 13.9989 49.1494 14.4597 49.4537C14.9206 49.7581 15.0475 50.3784 14.7431 50.8393L13.0742 49.7371ZM18.2017 45.9894C17.8653 46.4275 17.2376 46.51 16.7995 46.1737C16.3614 45.8373 16.2789 45.2096 16.6152 44.7715L18.2017 45.9894ZM20.4894 40.066C20.8546 39.6516 21.4865 39.6117 21.9008 39.9768C22.3152 40.342 22.3551 40.9739 21.99 41.3882L20.4894 40.066ZM26.0753 37.0438C25.6844 37.4339 25.0512 37.4332 24.6611 37.0423C24.271 36.6514 24.2716 36.0182 24.6625 35.6281L26.0753 37.0438ZM29.1023 31.4613C29.5162 31.0956 30.1481 31.1347 30.5138 31.5486C30.8794 31.9625 30.8403 32.5945 30.4264 32.9602L29.1023 31.4613ZM35.0144 29.1389C34.5801 29.48 33.9515 29.4045 33.6103 28.9702C33.2691 28.5359 33.3446 27.9073 33.7789 27.5661L35.0144 29.1389ZM38.6656 23.9413C39.118 23.6245 39.7415 23.7343 40.0584 24.1867C40.3752 24.6391 40.2653 25.2626 39.813 25.5795L38.6656 23.9413ZM44.7982 22.2804C44.3298 22.5731 43.7129 22.4307 43.4202 21.9624C43.1274 21.4941 43.2698 20.8771 43.7381 20.5844L44.7982 22.2804ZM48.9748 17.4924C49.4572 17.2235 50.0663 17.3966 50.3351 17.879C50.604 18.3614 50.4309 18.9705 49.9485 19.2394L48.9748 17.4924ZM55.2445 16.4541C54.7496 16.6994 54.1497 16.4971 53.9044 16.0022C53.6591 15.5074 53.8614 14.9074 54.3563 14.6621L55.2445 16.4541ZM59.8649 12.0909C60.3707 11.869 60.9606 12.0991 61.1825 12.6048C61.4044 13.1106 61.1743 13.7004 60.6685 13.9223L59.8649 12.0909ZM66.1993 11.6443C65.684 11.843 65.1052 11.5864 64.9064 11.0712C64.7077 10.5559 64.9643 9.97704 65.4796 9.77829L66.1993 11.6443ZM71.1922 7.71947C71.7158 7.54373 72.2827 7.82572 72.4585 8.3493C72.6342 8.87288 72.3522 9.43979 71.8286 9.61552L71.1922 7.71947ZM77.5435 7.83524C77.0128 7.988 76.4587 7.6816 76.3059 7.15087C76.1532 6.62013 76.4596 6.06604 76.9903 5.91327L77.5435 7.83524ZM82.8615 4.35952C83.3983 4.22973 83.9387 4.55969 84.0685 5.09651C84.1983 5.63332 83.8683 6.17372 83.3315 6.30351L82.8615 4.35952ZM89.1805 5.0211C88.6387 5.12783 88.1129 4.77508 88.0061 4.23321C87.8994 3.69133 88.2522 3.16553 88.794 3.0588L89.1805 5.0211ZM94.7766 2.01256C95.3226 1.92905 95.8328 2.30392 95.9163 2.84986C95.9998 3.39579 95.625 3.90606 95.079 3.98957L94.7766 2.01256ZM101.016 3.21113C100.467 3.27118 99.9728 2.87479 99.9128 2.32578C99.8528 1.77677 100.249 1.28303 100.798 1.22299L101.016 3.21113ZM106.848 0.693091C107.399 0.65682 107.875 1.07416 107.911 1.62525C107.947 2.17635 107.53 2.6525 106.979 2.68877L106.848 0.693091ZM112.959 2.42612C112.407 2.43824 111.95 2.00045 111.938 1.4483C111.926 0.896149 112.363 0.438722 112.915 0.426606L112.959 2.42612ZM118.99 0.428251C119.542 0.440749 119.98 0.898478 119.967 1.45062C119.955 2.00276 119.497 2.44024 118.945 2.42774L118.99 0.428251ZM124.923 2.69877C124.372 2.66116 123.956 2.18398 123.994 1.63298C124.031 1.08198 124.508 0.665795 125.059 0.703413L124.923 2.69877ZM131.11 1.25798C131.659 1.32126 132.052 1.81733 131.989 2.36598C131.926 2.91462 131.43 3.30809 130.881 3.2448L131.11 1.25798ZM136.804 4.07182C136.26 3.98228 135.89 3.46791 135.98 2.92293C136.069 2.37795 136.584 2.00874 137.129 2.09828L136.804 4.07182ZM143.1 3.23094C143.64 3.34732 143.984 3.87933 143.867 4.41921C143.751 4.9591 143.219 5.30242 142.679 5.18604L143.1 3.23094ZM148.49 6.5941C147.957 6.4503 147.641 5.90145 147.785 5.36822C147.929 4.83498 148.478 4.51928 149.011 4.66308L148.49 6.5941ZM154.84 6.40045C155.365 6.57219 155.651 7.13693 155.479 7.66184C155.308 8.18674 154.743 8.47303 154.218 8.30129L154.84 6.40045ZM159.844 10.3125C159.329 10.1124 159.074 9.53285 159.274 9.01809C159.474 8.50334 160.054 8.24826 160.568 8.44838L159.844 10.3125ZM0.503784 99.0986C0.413921 98.0687 0.344001 97.0445 0.293686 96.0262L2.29125 95.9275C2.34032 96.9206 2.40852 97.9197 2.49622 98.9248L0.503784 99.0986ZM0.225995 89.9276C0.28292 87.8715 0.420801 85.8418 0.636583 83.8395L2.62507 84.0538C2.415 86.0031 2.28069 87.9798 2.22523 89.983L0.225995 89.9276ZM1.53645 77.8009C1.92097 75.7873 2.38556 73.8045 2.92675 71.8535L4.85398 72.3881C4.32729 74.2868 3.87516 76.2165 3.50095 78.1761L1.53645 77.8009ZM4.79826 66.0383C5.50207 64.1219 6.28131 62.2396 7.1323 60.3927L8.94875 61.2297C8.11971 63.029 7.36086 64.862 6.67566 66.7278L4.79826 66.0383ZM9.90171 54.9504C10.8925 53.1758 11.9512 51.4377 13.0742 49.7371L14.7431 50.8393C13.647 52.4992 12.6141 54.1949 11.648 55.9253L9.90171 54.9504ZM16.6152 44.7715C17.8486 43.1649 19.1412 41.5961 20.4894 40.066L21.99 41.3882C20.6709 42.8853 19.407 44.4193 18.2017 45.9894L16.6152 44.7715ZM24.6625 35.6281C26.0932 34.2004 27.5742 32.8112 29.1023 31.4613L30.4264 32.9602C28.928 34.2838 27.4766 35.6454 26.0753 37.0438L24.6625 35.6281ZM33.7789 27.5661C35.3667 26.3188 36.9967 25.1102 38.6656 23.9413L39.813 25.5795C38.1734 26.7278 36.5729 27.9146 35.0144 29.1389L33.7789 27.5661ZM43.7381 20.5844C45.45 19.5144 47.1966 18.4834 48.9748 17.4924L49.9485 19.2394C48.199 20.2144 46.4813 21.2284 44.7982 22.2804L43.7381 20.5844ZM54.3563 14.6621C56.1655 13.7653 58.0027 12.908 59.8649 12.0909L60.6685 13.9223C58.8345 14.7271 57.0255 15.5713 55.2445 16.4541L54.3563 14.6621ZM65.4796 9.77829C67.363 9.05181 69.2681 8.36527 71.1922 7.71947L71.8286 9.61552C69.9323 10.252 68.055 10.9285 66.1993 11.6443L65.4796 9.77829ZM76.9903 5.91327C78.9322 5.35434 80.8901 4.83616 82.8615 4.35952L83.3315 6.30351C81.3879 6.77342 79.4577 7.28426 77.5435 7.83524L76.9903 5.91327ZM88.794 3.0588C90.7783 2.66798 92.7734 2.31897 94.7766 2.01256L95.079 3.98957C93.104 4.29166 91.1369 4.63577 89.1805 5.0211L88.794 3.0588ZM100.798 1.22299C102.81 1.00297 104.827 0.82608 106.848 0.693091L106.979 2.68877C104.987 2.81986 102.999 2.99423 101.016 3.21113L100.798 1.22299ZM112.915 0.426606C114.941 0.382165 116.966 0.382453 118.99 0.428251L118.945 2.42774C116.951 2.38262 114.955 2.38233 112.959 2.42612L112.915 0.426606ZM125.059 0.703413C127.082 0.841465 129.1 1.02606 131.11 1.25798L130.881 3.2448C128.902 3.01649 126.915 2.83473 124.923 2.69877L125.059 0.703413ZM137.129 2.09828C139.13 2.42707 141.121 2.80435 143.1 3.23094L142.679 5.18604C140.733 4.7665 138.774 4.39534 136.804 4.07182L137.129 2.09828ZM149.011 4.66308C150.97 5.19141 152.914 5.77026 154.84 6.40045L154.218 8.30129C152.326 7.68222 150.416 7.11341 148.49 6.5941L149.011 4.66308ZM160.568 8.44838C161.514 8.81585 162.454 9.19639 163.388 9.59013L162.612 11.4333C161.694 11.0468 160.772 10.6732 159.844 10.3125L160.568 8.44838Z" fill="white" fill-opacity="0.23"/>
</svg>
