<svg width="209" height="277" viewBox="0 0 209 277" fill="none" xmlns="http://www.w3.org/2000/svg">
<path d="M1.23311 269.037C0.69591 268.909 0.156499 269.24 0.0283019 269.777C-0.0998952 270.315 0.231667 270.854 0.768867 270.982L1.23311 269.037ZM157.074 0.189132C156.621 -0.127072 155.997 -0.0163103 155.681 0.436514C155.365 0.889309 155.476 1.51271 155.929 1.82891L157.074 0.189132ZM3.7972 271.68C4.33634 271.8 4.87051 271.46 4.9903 270.921C5.1101 270.382 4.77016 269.847 4.23102 269.728L3.7972 271.68ZM10.1783 270.952C9.63568 270.849 9.1125 271.205 9.00978 271.748C8.90705 272.291 9.26368 272.814 9.80633 272.917L10.1783 270.952ZM15.751 273.944C16.2967 274.03 16.8082 273.656 16.8935 273.111C16.9788 272.565 16.6057 272.054 16.06 271.968L15.751 273.944ZM22.0752 272.806C21.527 272.739 21.0283 273.129 20.9613 273.678C20.8943 274.226 21.2844 274.725 21.8326 274.792L22.0752 272.806ZM27.9025 275.429C28.4527 275.477 28.9378 275.07 28.986 274.52C29.0342 273.969 28.6273 273.484 28.0771 273.436L27.9025 275.429ZM34.0399 273.855C33.4884 273.826 33.0177 274.249 32.9887 274.801C32.9596 275.352 33.3832 275.823 33.9347 275.852L34.0399 273.855ZM40.0862 276.065C40.6385 276.074 41.0934 275.633 41.1025 275.081C41.1116 274.529 40.6712 274.074 40.119 274.065L40.0862 276.065ZM46.1139 274.054C45.5617 274.065 45.1231 274.522 45.1342 275.074C45.1453 275.626 45.6019 276.065 46.1541 276.054L46.1139 274.054ZM52.2655 275.817C52.8169 275.785 53.2381 275.313 53.2064 274.761C53.1746 274.21 52.7019 273.789 52.1506 273.82L52.2655 275.817ZM58.1662 273.359C57.6164 273.412 57.2134 273.9 57.2661 274.45C57.3188 275 57.8072 275.403 58.3569 275.35L58.1662 273.359ZM64.3888 274.656C64.9362 274.582 65.3201 274.078 65.2464 273.531C65.1727 272.984 64.6693 272.6 64.1219 272.673L64.3888 274.656ZM70.1083 271.748C69.5643 271.843 69.2003 272.361 69.2954 272.905C69.3904 273.449 69.9085 273.813 70.4526 273.718L70.1083 271.748ZM76.4123 272.556C76.9522 272.44 77.2957 271.908 77.1794 271.368C77.0632 270.828 76.5312 270.485 75.9913 270.601L76.4123 272.556ZM81.8787 269.211C81.3438 269.348 81.0218 269.894 81.1594 270.428C81.2969 270.963 81.8421 271.285 82.377 271.148L81.8787 269.211ZM88.2493 269.513C88.7783 269.354 89.0785 268.797 88.9199 268.268C88.7612 267.739 88.2038 267.438 87.6748 267.597L88.2493 269.513ZM93.41 265.752C92.8877 265.932 92.6098 266.5 92.7894 267.023C92.9689 267.545 93.5379 267.823 94.0601 267.643L93.41 265.752ZM99.7976 265.543C100.312 265.343 100.567 264.763 100.367 264.249C100.167 263.734 99.5877 263.479 99.0729 263.679L99.7976 265.543ZM104.633 261.39C104.127 261.61 103.895 262.199 104.115 262.706C104.335 263.212 104.924 263.444 105.431 263.224L104.633 261.39ZM110.991 260.675C111.488 260.434 111.697 259.837 111.457 259.339C111.217 258.842 110.619 258.633 110.122 258.873L110.991 260.675ZM115.482 256.156C114.995 256.416 114.809 257.021 115.069 257.509C115.328 257.997 115.933 258.182 116.421 257.923L115.482 256.156ZM121.767 254.947C122.244 254.669 122.406 254.057 122.128 253.579C121.85 253.102 121.238 252.941 120.761 253.218L121.767 254.947ZM125.903 250.091C125.437 250.387 125.299 251.005 125.595 251.471C125.891 251.937 126.509 252.075 126.975 251.779L125.903 250.091ZM132.07 248.409C132.525 248.095 132.639 247.473 132.326 247.018C132.013 246.563 131.39 246.449 130.935 246.762L132.07 248.409ZM135.832 243.25C135.39 243.581 135.298 244.207 135.628 244.65C135.959 245.093 136.585 245.184 137.028 244.854L135.832 243.25ZM141.852 241.116C142.283 240.769 142.351 240.14 142.005 239.71C141.658 239.279 141.029 239.211 140.599 239.557L141.852 241.116ZM145.227 235.692C144.809 236.054 144.764 236.685 145.126 237.103C145.487 237.52 146.119 237.565 146.536 237.204L145.227 235.692ZM151.074 233.126C151.478 232.75 151.5 232.117 151.124 231.713C150.748 231.309 150.115 231.286 149.711 231.663L151.074 233.126ZM154.051 227.473C153.661 227.864 153.661 228.497 154.051 228.888C154.442 229.278 155.075 229.278 155.465 228.888L154.051 227.473ZM159.701 224.5C160.078 224.096 160.056 223.464 159.652 223.087C159.248 222.71 158.615 222.733 158.238 223.137L159.701 224.5ZM162.277 218.652C161.914 219.069 161.958 219.7 162.375 220.063C162.792 220.425 163.423 220.381 163.786 219.965L162.277 218.652ZM167.707 215.297C168.055 214.868 167.989 214.238 167.561 213.89C167.132 213.542 166.502 213.608 166.154 214.037L167.707 215.297ZM169.877 209.285C169.544 209.725 169.631 210.352 170.072 210.686C170.512 211.019 171.139 210.932 171.472 210.492L169.877 209.285ZM175.069 205.569C175.387 205.118 175.279 204.494 174.828 204.176C174.377 203.857 173.753 203.965 173.435 204.416L175.069 205.569ZM176.831 199.426C176.528 199.887 176.657 200.507 177.118 200.811C177.58 201.114 178.2 200.985 178.503 200.523L176.831 199.426ZM181.765 195.372C182.052 194.901 181.903 194.285 181.432 193.998C180.961 193.71 180.345 193.859 180.058 194.33L181.765 195.372ZM183.117 189.127C182.845 189.607 183.014 190.217 183.494 190.489C183.975 190.761 184.585 190.592 184.857 190.112L183.117 189.127ZM187.773 184.756C188.029 184.267 187.84 183.662 187.351 183.406C186.862 183.15 186.257 183.339 186.001 183.828L187.773 184.756ZM188.712 178.437C188.472 178.934 188.681 179.532 189.178 179.772C189.675 180.012 190.273 179.803 190.513 179.306L188.712 178.437ZM193.073 173.768C193.296 173.263 193.068 172.673 192.563 172.449C192.058 172.226 191.467 172.454 191.244 172.959L193.073 173.768ZM193.593 167.404C193.387 167.916 193.634 168.499 194.146 168.705C194.658 168.912 195.241 168.665 195.448 168.152L193.593 167.404ZM197.639 162.456C197.828 161.937 197.562 161.363 197.043 161.173C196.524 160.983 195.95 161.25 195.76 161.769L197.639 162.456ZM197.736 156.074C197.563 156.599 197.849 157.164 198.374 157.336C198.899 157.509 199.464 157.223 199.636 156.698L197.736 156.074ZM201.443 150.864C201.598 150.334 201.293 149.779 200.763 149.624C200.233 149.47 199.678 149.774 199.523 150.304L201.443 150.864ZM201.109 144.495C200.973 145.03 201.296 145.574 201.831 145.711C202.367 145.847 202.911 145.524 203.047 144.989L201.109 144.495ZM204.454 139.04C204.572 138.501 204.23 137.968 203.691 137.85C203.151 137.732 202.618 138.074 202.5 138.614L204.454 139.04ZM203.681 132.713C203.582 133.256 203.942 133.777 204.486 133.876C205.029 133.975 205.55 133.614 205.648 133.071L203.681 132.713ZM206.635 127.034C206.714 126.487 206.336 125.98 205.789 125.901C205.243 125.821 204.735 126.2 204.656 126.747L206.635 127.034ZM205.411 120.777C205.352 121.326 205.749 121.819 206.298 121.879C206.847 121.938 207.341 121.541 207.4 120.992L205.411 120.777ZM207.944 114.899C207.982 114.348 207.567 113.87 207.016 113.832C206.465 113.793 205.987 114.208 205.948 114.759L207.944 114.899ZM206.257 108.75C206.239 109.302 206.672 109.763 207.224 109.781C207.776 109.799 208.238 109.366 208.256 108.814L206.257 108.75ZM208.332 102.698C208.329 102.146 207.878 101.701 207.325 101.705C206.773 101.709 206.329 102.16 206.333 102.712L208.332 102.698ZM206.169 96.6976C206.195 97.2493 206.664 97.6753 207.215 97.6491C207.767 97.623 208.193 97.1546 208.167 96.6029L206.169 96.6976ZM207.752 90.5012C207.703 89.9511 207.217 89.5449 206.667 89.5938C206.117 89.6428 205.71 90.1285 205.759 90.6786L207.752 90.5012ZM205.099 84.6986C205.172 85.2461 205.674 85.6313 206.222 85.559C206.769 85.4867 207.154 84.9842 207.082 84.4367L205.099 84.6986ZM206.149 78.3925C206.053 77.8487 205.534 77.4858 204.99 77.5821C204.446 77.6783 204.083 78.1972 204.18 78.7411L206.149 78.3925ZM202.999 72.8426C203.119 73.3816 203.654 73.7207 204.193 73.6C204.732 73.4794 205.071 72.9447 204.95 72.4057L202.999 72.8426ZM203.477 66.4703C203.331 65.9375 202.782 65.6236 202.249 65.7692C201.716 65.9147 201.402 66.4645 201.548 66.9973L203.477 66.4703ZM199.826 61.2341C199.996 61.7593 200.56 62.0467 201.086 61.876C201.611 61.7052 201.898 61.141 201.728 60.6158L199.826 61.2341ZM199.696 54.8484C199.5 54.3322 198.923 54.0727 198.406 54.2689C197.89 54.4651 197.631 55.0427 197.827 55.5589L199.696 54.8484ZM195.55 49.9907C195.772 50.4965 196.362 50.7268 196.868 50.505C197.373 50.2832 197.604 49.6934 197.382 49.1876L195.55 49.9907ZM194.786 43.6541C194.538 43.1602 193.938 42.9604 193.444 43.2077C192.95 43.455 192.75 44.0558 192.997 44.5496L194.786 43.6541ZM190.164 39.2405C190.437 39.7208 191.047 39.8891 191.527 39.6165C192.008 39.3438 192.176 38.7334 191.903 38.2532L190.164 39.2405ZM188.75 33.0223C188.452 32.557 187.834 32.421 187.369 32.7185C186.903 33.016 186.767 33.6344 187.065 34.0997L188.75 33.0223ZM183.687 29.1143C184.009 29.5631 184.634 29.6661 185.083 29.3442C185.531 29.0223 185.634 28.3976 185.312 27.9488L183.687 29.1143ZM181.626 23.0863C181.28 22.6553 180.651 22.5857 180.22 22.931C179.789 23.2763 179.719 23.9056 180.065 24.3367L181.626 23.0863ZM176.173 19.7358C176.541 20.1478 177.173 20.1836 177.585 19.8158C177.997 19.4479 178.032 18.8158 177.665 18.4038L176.173 19.7358ZM173.485 13.9648C173.096 13.5729 172.463 13.5705 172.071 13.9595C171.679 14.3486 171.677 14.9818 172.066 15.3737L173.485 13.9648ZM167.708 11.2088C168.117 11.5798 168.75 11.5489 169.121 11.1398C169.492 10.7307 169.461 10.0983 169.052 9.72726L167.708 11.2088ZM164.432 5.74963C164.004 5.40015 163.374 5.46347 163.025 5.89112C162.675 6.31874 162.738 6.94875 163.166 7.29823L164.432 5.74963ZM158.408 3.60662C158.853 3.93408 159.479 3.83902 159.806 3.39428C160.133 2.94952 160.038 2.32355 159.594 1.99609L158.408 3.60662ZM0.768867 270.982C1.78093 271.224 2.79038 271.456 3.7972 271.68L4.23102 269.728C3.2344 269.506 2.23509 269.276 1.23311 269.037L0.768867 270.982ZM9.80633 272.917C11.7987 273.294 13.7803 273.636 15.751 273.944L16.06 271.968C14.1105 271.663 12.1499 271.325 10.1783 270.952L9.80633 272.917ZM21.8326 274.792C23.8682 275.04 25.8916 275.252 27.9025 275.429L28.0771 273.436C26.089 273.262 24.0883 273.052 22.0752 272.806L21.8326 274.792ZM33.9347 275.852C35.999 275.961 38.0496 276.031 40.0862 276.065L40.119 274.065C38.1066 274.032 36.0802 273.962 34.0399 273.855L33.9347 275.852ZM46.1541 276.054C48.2062 276.013 50.2434 275.933 52.2655 275.817L52.1506 273.82C50.1534 273.935 48.1411 274.014 46.1139 274.054L46.1541 276.054ZM58.3569 275.35C60.3837 275.156 62.3944 274.924 64.3888 274.656L64.1219 272.673C62.1528 272.939 60.1674 273.168 58.1662 273.359L58.3569 275.35ZM70.4526 273.718C72.4566 273.368 74.4433 272.98 76.4123 272.556L75.9913 270.601C74.0477 271.02 72.0866 271.402 70.1083 271.748L70.4526 273.718ZM82.377 271.148C84.3533 270.639 86.3109 270.094 88.2493 269.513L87.6748 267.597C85.7616 268.171 83.8294 268.709 81.8787 269.211L82.377 271.148ZM94.0601 267.643C95.9929 266.979 97.9055 266.278 99.7976 265.543L99.0729 263.679C97.2054 264.405 95.3176 265.096 93.41 265.752L94.0601 267.643ZM105.431 263.224C107.306 262.409 109.159 261.558 110.991 260.675L110.122 258.873C108.314 259.746 106.484 260.585 104.633 261.39L105.431 263.224ZM116.421 257.923C118.226 256.963 120.008 255.971 121.767 254.947L120.761 253.218C119.024 254.23 117.264 255.21 115.482 256.156L116.421 257.923ZM126.975 251.779C128.697 250.687 130.396 249.563 132.07 248.409L130.935 246.762C129.281 247.901 127.604 249.011 125.903 250.091L126.975 251.779ZM137.028 244.854C138.661 243.636 140.269 242.39 141.852 241.116L140.599 239.557C139.034 240.816 137.445 242.048 135.832 243.25L137.028 244.854ZM146.536 237.204C148.074 235.871 149.587 234.511 151.074 233.126L149.711 231.663C148.241 233.032 146.746 234.375 145.227 235.692L146.536 237.204ZM155.465 228.888C156.904 227.449 158.316 225.986 159.701 224.5L158.238 223.137C156.869 224.606 155.473 226.052 154.051 227.473L155.465 228.888ZM163.786 219.965C165.12 218.43 166.427 216.874 167.707 215.297L166.154 214.037C164.889 215.596 163.596 217.135 162.277 218.652L163.786 219.965ZM171.472 210.492C172.699 208.87 173.898 207.229 175.069 205.569L173.435 204.416C172.277 206.058 171.091 207.681 169.877 209.285L171.472 210.492ZM178.503 200.523C179.62 198.823 180.707 197.106 181.765 195.372L180.058 194.33C179.011 196.045 177.936 197.744 176.831 199.426L178.503 200.523ZM184.857 190.112C185.859 188.341 186.832 186.555 187.773 184.756L186.001 183.828C185.07 185.608 184.108 187.375 183.117 189.127L184.857 190.112ZM190.513 179.306C191.398 177.472 192.251 175.626 193.073 173.768L191.244 172.959C190.431 174.796 189.587 176.623 188.712 178.437L190.513 179.306ZM195.448 168.152C196.211 166.263 196.941 164.364 197.639 162.456L195.76 161.769C195.07 163.656 194.348 165.535 193.593 167.404L195.448 168.152ZM199.636 156.698C200.272 154.76 200.875 152.815 201.443 150.864L199.523 150.304C198.961 152.234 198.365 154.158 197.736 156.074L199.636 156.698ZM203.047 144.989C203.552 143.01 204.021 141.027 204.454 139.04L202.5 138.614C202.072 140.578 201.608 142.539 201.109 144.495L203.047 144.989ZM205.648 133.071C206.014 131.06 206.343 129.047 206.635 127.034L204.656 126.747C204.367 128.736 204.042 130.726 203.681 132.713L205.648 133.071ZM207.4 120.992C207.619 118.96 207.801 116.929 207.944 114.899L205.948 114.759C205.807 116.763 205.628 118.769 205.411 120.777L207.4 120.992ZM208.256 108.814C208.321 106.771 208.347 104.732 208.332 102.698L206.333 102.712C206.347 104.72 206.321 106.733 206.257 108.75L208.256 108.814ZM208.167 96.6029C208.07 94.5618 207.932 92.5273 207.752 90.5012L205.759 90.6786C205.937 92.6768 206.074 94.6837 206.169 96.6976L208.167 96.6029ZM207.082 84.4367C206.815 82.4114 206.504 80.3961 206.149 78.3925L204.18 78.7411C204.529 80.7156 204.836 82.7019 205.099 84.6986L207.082 84.4367ZM204.95 72.4057C204.504 70.4133 204.013 68.4343 203.477 66.4703L201.548 66.9973C202.076 68.9311 202.559 70.88 202.999 72.8426L204.95 72.4057ZM201.728 60.6158C201.097 58.676 200.42 56.753 199.696 54.8484L197.827 55.5589C198.539 57.4327 199.205 59.3249 199.826 61.2341L201.728 60.6158ZM197.382 49.1876C196.564 47.3224 195.699 45.4774 194.786 43.6541L192.997 44.5496C193.895 46.3422 194.746 48.1564 195.55 49.9907L197.382 49.1876ZM191.903 38.2532C190.9 36.4858 189.849 34.7417 188.75 33.0223L187.065 34.0997C188.145 35.7893 189.178 37.5034 190.164 39.2405L191.903 38.2532ZM185.312 27.9488C184.131 26.3016 182.902 24.6803 181.626 23.0863L180.065 24.3367C181.319 25.9028 182.526 27.4959 183.687 29.1143L185.312 27.9488ZM177.665 18.4038C176.318 16.8958 174.925 15.4156 173.485 13.9648L172.066 15.3737C173.481 16.7995 174.85 18.254 176.173 19.7358L177.665 18.4038ZM169.052 9.72726C167.557 8.37166 166.017 7.04532 164.432 5.74963L163.166 7.29823C164.725 8.57229 166.239 9.87626 167.708 11.2088L169.052 9.72726ZM159.594 1.99609C158.765 1.38589 157.925 0.783513 157.074 0.189132L155.929 1.82891C156.766 2.41374 157.593 3.00636 158.408 3.60662L159.594 1.99609Z" fill="white" fill-opacity="0.22"/>
</svg>
