<svg width="15" height="16" viewBox="0 0 15 16" fill="none" xmlns="http://www.w3.org/2000/svg">
<g clip-path="url(#clip0_28_9775)">
<path d="M14.4643 1.73438H10.6339C9.81194 1.73438 9.00837 1.98616 8.31696 2.46116L7.5 3.02009L6.68304 2.46116C5.99232 1.98625 5.18785 1.73391 4.36607 1.73438H0.535714C0.239397 1.73438 0 1.98973 0 2.3058V12.4487C0 12.7647 0.239397 13.0201 0.535714 13.0201H4.36607C5.18806 13.0201 5.99163 13.2719 6.68304 13.7469L7.42634 14.2576C7.4481 14.2719 7.47321 14.2808 7.49833 14.2808C7.52344 14.2808 7.54855 14.2737 7.57031 14.2576L8.31362 13.7469C9.0067 13.2719 9.81194 13.0201 10.6339 13.0201H14.4643C14.7606 13.0201 15 12.7647 15 12.4487V2.3058C15 1.98973 14.7606 1.73438 14.4643 1.73438ZM4.36607 11.7344H1.20536V3.02009H4.36607C4.95871 3.02009 5.5346 3.20045 6.03181 3.54152L6.84877 4.10045L6.96429 4.1808V12.4308C6.16741 11.9737 5.27679 11.7344 4.36607 11.7344ZM13.7946 11.7344H10.6339C9.72321 11.7344 8.83259 11.9737 8.03571 12.4308V4.1808L8.15123 4.10045L8.96819 3.54152C9.4654 3.20045 10.0413 3.02009 10.6339 3.02009H13.7946V11.7344ZM5.5731 5.3058H2.46261C2.39732 5.3058 2.34375 5.36652 2.34375 5.43973V6.2433C2.34375 6.31652 2.39732 6.37723 2.46261 6.37723H5.57143C5.63672 6.37723 5.69029 6.31652 5.69029 6.2433V5.43973C5.69196 5.36652 5.63839 5.3058 5.5731 5.3058ZM9.30804 5.43973V6.2433C9.30804 6.31652 9.36161 6.37723 9.4269 6.37723H12.5357C12.601 6.37723 12.6546 6.31652 12.6546 6.2433V5.43973C12.6546 5.36652 12.601 5.3058 12.5357 5.3058H9.4269C9.36161 5.3058 9.30804 5.36652 9.30804 5.43973ZM5.5731 7.8058H2.46261C2.39732 7.8058 2.34375 7.86652 2.34375 7.93973V8.7433C2.34375 8.81652 2.39732 8.87723 2.46261 8.87723H5.57143C5.63672 8.87723 5.69029 8.81652 5.69029 8.7433V7.93973C5.69196 7.86652 5.63839 7.8058 5.5731 7.8058ZM12.5374 7.8058H9.4269C9.36161 7.8058 9.30804 7.86652 9.30804 7.93973V8.7433C9.30804 8.81652 9.36161 8.87723 9.4269 8.87723H12.5357C12.601 8.87723 12.6546 8.81652 12.6546 8.7433V7.93973C12.6563 7.86652 12.6027 7.8058 12.5374 7.8058Z" fill="url(#paint0_linear_28_9775)"/>
</g>
<defs>
<linearGradient id="paint0_linear_28_9775" x1="7.5" y1="1.73437" x2="7.5" y2="14.2808" gradientUnits="userSpaceOnUse">
<stop stop-color="white"/>
</linearGradient>
<clipPath id="clip0_28_9775">
<rect width="15" height="16" fill="white"/>
</clipPath>
</defs>
</svg>
