<svg width="33" height="33" viewBox="0 0 33 33" fill="none" xmlns="http://www.w3.org/2000/svg">
<circle cx="16.0349" cy="16.0344" r="11.4377" transform="rotate(127.433 16.0349 16.0344)" fill="#F2F5FC"/>
<path d="M9.08272 25.1166C10.5251 26.2207 12.2097 26.9654 13.9971 27.289C15.7845 27.6127 17.6233 27.5059 19.3612 26.9777C21.0992 26.4494 22.6863 25.5148 23.9913 24.2512C25.2962 22.9876 26.2814 21.4314 26.8654 19.7114C27.4494 17.9914 27.6153 16.157 27.3494 14.3601C27.0835 12.5632 26.3934 10.8555 25.3363 9.37828C24.2793 7.90108 22.8856 6.6969 21.2706 5.8654C19.6556 5.0339 17.8658 4.599 16.0494 4.59671L16.0349 16.0344L9.08272 25.1166Z" fill="url(#paint0_linear_28_7241)"/>
<defs>
<linearGradient id="paint0_linear_28_7241" x1="32.6232" y1="17.7228" x2="0.93727" y2="2.70575" gradientUnits="userSpaceOnUse">
<stop stop-color="#DD9200"/>
<stop offset="1" stop-color="#FF4D00"/>
</linearGradient>
</defs>
</svg>
