<svg width="164" height="118" viewBox="0 0 164 118" fill="none" xmlns="http://www.w3.org/2000/svg">
<g filter="url(#filter0_d_32_7133)">
<path d="M4 16C4 7.16344 11.1634 0 20 0H137.237C141.705 0 145.327 3.6219 145.327 8.08975C145.327 11.4886 147.456 14.5141 150.601 15.8028C154.808 17.5266 160 19.8875 160 21.0403C160 21.663 158.485 22.5526 156.428 23.4733C150.019 26.342 145.327 32.2903 145.327 39.3118V55V94C145.327 102.837 138.163 110 129.327 110H20C11.1635 110 4 102.837 4 94V16Z" fill="#B6D8FF"/>
<path d="M4.5 16C4.5 7.43958 11.4396 0.5 20 0.5H137.237C141.429 0.5 144.827 3.89805 144.827 8.08975C144.827 11.7015 147.088 14.9037 150.411 16.2654C152.511 17.1258 154.844 18.1401 156.647 19.0791C157.551 19.5499 158.304 19.9926 158.825 20.3794C159.086 20.5736 159.271 20.7407 159.386 20.8771C159.46 20.9642 159.486 21.0169 159.495 21.0389C159.485 21.0614 159.455 21.1179 159.367 21.2113C159.231 21.3553 159.015 21.5286 158.712 21.7264C158.109 22.1201 157.244 22.56 156.224 23.0169C149.674 25.9485 144.827 32.0534 144.827 39.3118V55V94C144.827 102.56 137.887 109.5 129.327 109.5H20C11.4396 109.5 4.5 102.56 4.5 94V16Z" stroke="#17315B"/>
</g>
<defs>
<filter id="filter0_d_32_7133" x="0" y="0" width="164" height="118" filterUnits="userSpaceOnUse" color-interpolation-filters="sRGB">
<feFlood flood-opacity="0" result="BackgroundImageFix"/>
<feColorMatrix in="SourceAlpha" type="matrix" values="0 0 0 0 0 0 0 0 0 0 0 0 0 0 0 0 0 0 127 0" result="hardAlpha"/>
<feOffset dy="4"/>
<feGaussianBlur stdDeviation="2"/>
<feComposite in2="hardAlpha" operator="out"/>
<feColorMatrix type="matrix" values="0 0 0 0 0 0 0 0 0 0 0 0 0 0 0 0 0 0 0.25 0"/>
<feBlend mode="normal" in2="BackgroundImageFix" result="effect1_dropShadow_32_7133"/>
<feBlend mode="normal" in="SourceGraphic" in2="effect1_dropShadow_32_7133" result="shape"/>
</filter>
</defs>
</svg>
