<svg width="28" height="25" viewBox="0 0 28 25" fill="none" xmlns="http://www.w3.org/2000/svg">
<g clip-path="url(#clip0_186_4504)">
<path d="M15.6905 10.2461C15.0444 10.2461 14.5438 10.7467 14.5438 11.3648C14.5438 11.9829 15.0444 12.4835 15.6905 12.4835C16.2806 12.4835 16.7812 11.9829 16.7812 11.3648C16.7812 10.7467 16.2806 10.2461 15.6905 10.2461ZM7.85956 10.2461C7.21351 10.2461 6.71289 10.7467 6.71289 11.3648C6.71289 11.9829 7.21351 12.4835 7.85956 12.4835C8.44967 12.4835 8.95029 11.9829 8.95029 11.3648C8.95029 10.7467 8.44967 10.2461 7.85956 10.2461Z" fill="#A8B7CF"/>
<path d="M24.6677 8.12132C23.3225 6.27547 21.4431 5.0421 19.3819 4.48555V4.48835C18.9036 3.95696 18.3638 3.46753 17.7598 3.03124C13.1815 -0.29689 6.75454 0.71833 3.41243 5.29661C0.71916 9.01628 0.833827 14.0197 3.58023 17.5743L3.60261 21.2828C3.60261 21.3723 3.61659 21.4618 3.64456 21.5457C3.79279 22.0184 4.2962 22.2785 4.76606 22.1302L8.30674 21.0143C9.24365 21.3472 10.2113 21.5373 11.1734 21.5905L11.1594 21.6017C13.6513 23.4167 16.9179 23.9621 19.9132 22.9721L23.4679 24.1299C23.5574 24.1579 23.6497 24.1747 23.7448 24.1747C24.2398 24.1747 24.6398 23.7747 24.6398 23.2797V19.5321C27.1037 16.1871 27.168 11.5641 24.6677 8.12132ZM8.69829 19.0286L8.36267 18.8888L5.59389 19.7558L5.56593 16.8472L5.34219 16.5955C2.97614 13.7092 2.81952 9.55046 5.03454 6.49921C7.73061 2.80191 12.899 1.98526 16.5851 4.65336C20.2824 7.34103 21.1019 12.501 18.431 16.176C16.1908 19.2496 12.1802 20.3851 8.69829 19.0286ZM22.8219 18.5532L22.5981 18.8329L22.6261 21.7415L19.8853 20.8186L19.5497 20.9584C17.9835 21.5401 16.3138 21.5877 14.7672 21.1542L14.7616 21.1514C16.8284 20.5165 18.7023 19.23 20.0531 17.3786C22.1898 14.4336 22.5366 10.7335 21.2948 7.57876L21.3116 7.58994C21.9549 8.05141 22.545 8.62754 23.0456 9.32393C25.076 12.1095 24.9614 15.9019 22.8219 18.5532Z" fill="#A8B7CF"/>
<path d="M11.7746 10.2461C11.1285 10.2461 10.6279 10.7467 10.6279 11.3648C10.6279 11.9829 11.1285 12.4835 11.7746 12.4835C12.3647 12.4835 12.8653 11.9829 12.8653 11.3648C12.8653 10.7467 12.3647 10.2461 11.7746 10.2461Z" fill="#A8B7CF"/>
</g>
<defs>
<clipPath id="clip0_186_4504">
<rect width="26.1484" height="23.6581" fill="white" transform="translate(0.910156 0.962891)"/>
</clipPath>
</defs>
</svg>
