<svg width="14" height="14" viewBox="0 0 14 14" fill="none" xmlns="http://www.w3.org/2000/svg">
<path d="M3.19102 7.04129L7.24533 1.86113C7.30796 1.78169 7.25144 1.66406 7.14909 1.66406H5.96824C5.89339 1.66406 5.82159 1.6992 5.77576 1.75725L1.87574 6.74035C1.8082 6.82642 1.77148 6.93266 1.77148 7.04206C1.77148 7.15146 1.8082 7.2577 1.87574 7.34376L5.77576 12.3253C5.82159 12.3849 5.89339 12.4185 5.96824 12.4185H7.14909C7.25144 12.4185 7.30796 12.3009 7.24533 12.2215L3.19102 7.04129ZM7.835 7.04129L11.8893 1.86113C11.9519 1.78169 11.8954 1.66406 11.7931 1.66406H10.6122C10.5374 1.66406 10.4656 1.6992 10.4197 1.75725L6.51971 6.74035C6.45217 6.82642 6.41546 6.93266 6.41546 7.04206C6.41546 7.15146 6.45217 7.2577 6.51971 7.34376L10.4197 12.3253C10.4656 12.3849 10.5374 12.4185 10.6122 12.4185H11.7931C11.8954 12.4185 11.9519 12.3009 11.8893 12.2215L7.835 7.04129Z" fill="white" fill-opacity="0.85"/>
</svg>
