<svg width="21" height="16" viewBox="0 0 21 16" fill="none" xmlns="http://www.w3.org/2000/svg">
<path fill-rule="evenodd" clip-rule="evenodd" d="M18.1907 4.34933C18.8007 4.34933 19.2007 4.55933 19.6007 5.01933C20.0007 5.47933 20.0707 6.13933 19.9807 6.73833L19.0307 13.2983C18.8507 14.5593 17.7707 15.4883 16.5007 15.4883H5.59074C4.26074 15.4883 3.16074 14.4683 3.05074 13.1493L2.13074 2.24833L0.620742 1.98833C0.220742 1.91833 -0.0592579 1.52833 0.0107421 1.12833C0.0807421 0.71833 0.470742 0.44833 0.880742 0.50833L3.26574 0.86833C3.60574 0.92933 3.85574 1.20833 3.88574 1.54833L4.07574 3.78833C4.10574 4.10933 4.36574 4.34933 4.68574 4.34933H18.1907ZM12.1307 9.54833H14.9007C15.3207 9.54833 15.6507 9.20833 15.6507 8.79833C15.6507 8.37833 15.3207 8.04833 14.9007 8.04833H12.1307C11.7107 8.04833 11.3807 8.37833 11.3807 8.79833C11.3807 9.20833 11.7107 9.54833 12.1307 9.54833Z" fill="white" fill-opacity="0.5"/>
</svg>
