<svg width="33" height="33" viewBox="0 0 33 33" fill="none" xmlns="http://www.w3.org/2000/svg">
<path d="M28.0093 9.99463H19.9775V6.44937C19.9775 5.89405 19.5289 5.4454 18.9736 5.4454H6.17299V4.19044C6.17299 4.0524 6.06004 3.93945 5.922 3.93945H4.16505C4.02701 3.93945 3.91406 4.0524 3.91406 4.19044V28.7876C3.91406 28.9257 4.02701 29.0386 4.16505 29.0386H5.922C6.06004 29.0386 6.17299 28.9257 6.17299 28.7876V20.5049H13.9537V24.0502C13.9537 24.6055 14.4024 25.0541 14.9577 25.0541H28.0093C28.5646 25.0541 29.0132 24.6055 29.0132 24.0502V10.9986C29.0132 10.4433 28.5646 9.99463 28.0093 9.99463ZM6.17299 18.246V7.70433H17.7186V18.246H6.17299ZM26.7543 22.7952H16.2127V20.5049H19.7265C19.8646 20.5049 19.9775 20.392 19.9775 20.2539V12.2536H26.7543V22.7952Z" fill="#A8B7CF"/>
</svg>
