<svg width="24" height="24" viewBox="0 0 24 24" fill="none" xmlns="http://www.w3.org/2000/svg">
<path opacity="0.4" fill-rule="evenodd" clip-rule="evenodd" d="M5.91016 20.5884C5.91016 19.7484 6.59016 19.0684 7.43016 19.0684C8.26016 19.0684 8.94016 19.7484 8.94016 20.5884C8.94016 21.4184 8.26016 22.0984 7.43016 22.0984C6.59016 22.0984 5.91016 21.4184 5.91016 20.5884ZM17.1602 20.5884C17.1602 19.7484 17.8402 19.0684 18.6802 19.0684C19.5102 19.0684 20.1902 19.7484 20.1902 20.5884C20.1902 21.4184 19.5102 22.0984 18.6802 22.0984C17.8402 22.0984 17.1602 21.4184 17.1602 20.5884Z" fill="white" fill-opacity="0.5"/>
<path fill-rule="evenodd" clip-rule="evenodd" d="M20.1907 6.34933C20.8007 6.34933 21.2007 6.55933 21.6007 7.01933C22.0007 7.47933 22.0707 8.13933 21.9807 8.73833L21.0307 15.2983C20.8507 16.5593 19.7707 17.4883 18.5007 17.4883H7.59074C6.26074 17.4883 5.16074 16.4683 5.05074 15.1493L4.13074 4.24833L2.62074 3.98833C2.22074 3.91833 1.94074 3.52833 2.01074 3.12833C2.08074 2.71833 2.47074 2.44833 2.88074 2.50833L5.26574 2.86833C5.60574 2.92933 5.85574 3.20833 5.88574 3.54833L6.07574 5.78833C6.10574 6.10933 6.36574 6.34933 6.68574 6.34933H20.1907ZM14.1307 11.5483H16.9007C17.3207 11.5483 17.6507 11.2083 17.6507 10.7983C17.6507 10.3783 17.3207 10.0483 16.9007 10.0483H14.1307C13.7107 10.0483 13.3807 10.3783 13.3807 10.7983C13.3807 11.2083 13.7107 11.5483 14.1307 11.5483Z" fill="white" fill-opacity="0.5"/>
</svg>
