<svg width="93" height="93" viewBox="0 0 93 93" fill="none" xmlns="http://www.w3.org/2000/svg">
<circle cx="46.5" cy="46.5" r="41.5" fill="#FEB25E"/>
<g clip-path="url(#clip0_166_5106)">
<path d="M40.4915 34.5391L38.8535 40.5522H42.1294L40.4915 34.5391Z" fill="white"/>
<path d="M61.253 23.2598H30.0876C28.5394 23.2598 27.2798 24.5194 27.2798 26.0676V50.5893H64.0609V26.0676C64.0609 24.5194 62.8013 23.2598 61.253 23.2598ZM46.2921 46.274C45.8058 46.5582 45.301 46.7003 44.7776 46.7003C44.1342 46.7003 43.7529 46.4836 43.6333 46.0496L42.8704 43.2449H38.136L37.373 46.0496C37.2532 46.4836 36.8716 46.7003 36.2288 46.7003C35.705 46.7003 35.2002 46.5582 34.7142 46.274C34.2279 45.99 33.985 45.6535 33.985 45.2643C33.985 45.2194 33.9997 45.1375 34.0299 45.0175L38.2033 31.3306C38.3228 30.9569 38.5959 30.6687 39.0223 30.4668C39.4487 30.2649 39.9384 30.1639 40.492 30.1639C41.0452 30.1639 41.5353 30.2648 41.9617 30.4668C42.3879 30.6687 42.6607 30.9569 42.7807 31.3306L46.9764 45.0175C47.0062 45.1373 47.0213 45.2194 47.0213 45.2643C47.0213 45.6535 46.7781 45.99 46.2921 46.274ZM57.0507 45.6233C57.0507 45.9226 56.8897 46.1768 56.5683 46.3862C56.2464 46.5959 55.839 46.7004 55.3454 46.7004C54.9114 46.7004 54.545 46.5886 54.246 46.3649C53.9465 46.1412 53.7973 45.8698 53.7973 45.5505V45.0232C52.7652 46.291 51.6282 46.9247 50.3868 46.9247C49.5639 46.9247 48.8796 46.66 48.3338 46.13C47.7875 45.6003 47.5147 44.829 47.5147 43.8162C47.5147 42.6203 47.967 41.7775 48.8723 41.2874C49.7771 40.7976 51.0746 40.5525 52.7652 40.5525H53.5729V40.3176C53.5728 39.8474 53.4382 39.4401 53.169 39.0951C52.8997 38.7505 52.4735 38.578 51.89 38.578C51.1721 38.578 50.5811 38.7165 50.1174 38.9931C49.6536 39.27 49.3693 39.4081 49.2648 39.4081C48.9059 39.4081 48.6215 39.2325 48.4122 38.8809C48.2025 38.5295 48.098 38.1292 48.098 37.6805C48.098 37.1868 48.5131 36.7643 49.3433 36.4127C50.1735 36.0614 51.0374 35.8854 51.9349 35.8854C53.6548 35.8854 54.9377 36.3044 55.7829 37.1419C56.6278 37.9799 57.0506 39.0267 57.0506 40.2832V45.6233H57.0507Z" fill="white"/>
<path d="M53.4833 42.2363C52.9894 42.2363 52.5817 42.2574 52.2604 42.2988C51.9385 42.3405 51.6507 42.4482 51.3965 42.6213C51.142 42.7945 51.0151 43.0407 51.0151 43.3597C51.0151 43.9424 51.3068 44.2333 51.8902 44.2333C52.2638 44.2333 52.638 44.0395 53.0121 43.651C53.3857 43.2625 53.5731 42.8187 53.5731 42.3194V42.2363H53.4833Z" fill="white"/>
<path d="M27.2798 53.3164V66.9327C27.2798 68.481 28.5394 69.7405 30.0876 69.7405H61.253C62.8013 69.7405 64.0609 68.481 64.0609 66.9327V53.3164H27.2798ZM35.0679 56.547H42.1386C42.8914 56.547 43.5018 57.1574 43.5018 57.9102C43.5018 58.6631 42.8914 59.2734 42.1386 59.2734H35.0679C34.3151 59.2734 33.7047 58.6631 33.7047 57.9102C33.7047 57.1574 34.3151 56.547 35.0679 56.547ZM47.622 63.6123H35.0679C34.3151 63.6123 33.7047 63.0019 33.7047 62.2491C33.7047 61.4962 34.3151 60.8859 35.0679 60.8859H47.622C48.3748 60.8859 48.9851 61.4962 48.9851 62.2491C48.9851 63.0019 48.3749 63.6123 47.622 63.6123ZM56.1786 63.6123H52.7876C52.0347 63.6123 51.4244 63.0019 51.4244 62.2491C51.4244 61.4962 52.0347 60.8859 52.7876 60.8859H56.1786C56.9315 60.8859 57.5418 61.4962 57.5418 62.2491C57.5418 63.0019 56.9315 63.6123 56.1786 63.6123Z" fill="white"/>
</g>
<circle cx="46.5" cy="46.5" r="40.5" fill="#002252" fill-opacity="0.8"/>
<circle cx="46.5" cy="46.5" r="41.5" stroke="#ECF3FE" stroke-width="6" stroke-linecap="round"/>
<path d="M5 46.5C5 69.4198 23.5802 88 46.5 88C69.5 88 88 68.5 88 46.5C88 23.5802 69.4198 5 46.5 5C23.5802 5 5 23.5802 5 46.5Z" stroke="#84CC30" stroke-width="10" stroke-linecap="round" stroke-linejoin="round"/>
<path d="M63 37L41 59L31 49" stroke="#84CC30" stroke-width="10" stroke-linecap="round" stroke-linejoin="round"/>
<defs>
<clipPath id="clip0_166_5106">
<rect width="46.48" height="46.48" fill="white" transform="translate(22.4302 23.2598)"/>
</clipPath>
</defs>
</svg>
