<svg width="42" height="42" viewBox="0 0 42 42" fill="none" xmlns="http://www.w3.org/2000/svg">
<g clip-path="url(#clip0_186_4216)">
<path d="M28.875 7.875C28.875 12.2227 25.3477 15.75 21 15.75C16.6523 15.75 13.125 12.2227 13.125 7.875C13.125 3.52734 16.6523 0 21 0C25.3477 0 28.875 3.52734 28.875 7.875ZM19.6875 20.3438L19.6875 42L15.7172 40.0148C14.0027 39.1617 12.1488 38.6203 10.2375 38.4316L2.3625 37.6441C1.02539 37.5047 0 36.3809 0 35.0273L0 18.375C0 16.923 1.17305 15.75 2.625 15.75H5.11055C10.3277 15.75 15.4137 17.3578 19.6875 20.3438ZM22.3125 42L22.3125 20.3438C26.5863 17.3578 31.6723 15.75 36.8895 15.75L39.375 15.75C40.827 15.75 42 16.923 42 18.375L42 35.0273C42 36.3727 40.9746 37.5047 39.6375 37.6359L31.7625 38.4234C29.8594 38.6121 27.9973 39.1535 26.2828 40.0066L22.3125 42Z" fill="white" fill-opacity="0.5"/>
</g>
<defs>
<clipPath id="clip0_186_4216">
<rect width="42" height="42" fill="white"/>
</clipPath>
</defs>
</svg>
