<svg width="38" height="38" viewBox="0 0 38 38" fill="none" xmlns="http://www.w3.org/2000/svg">
<path d="M22.4202 16.467L14.5035 10.8145C13.3952 10.0228 11.9227 10.0228 10.8302 10.8145L2.9135 16.467C2.07433 17.0686 1.5835 18.0186 1.5835 19.0478L1.5835 31.667C1.5835 32.5378 2.296 33.2503 3.16683 33.2503H9.50016L9.50016 23.7503H15.8335L15.8335 33.2503H22.1668C23.0377 33.2503 23.7502 32.5378 23.7502 31.667L23.7502 19.0478C23.7502 18.0186 23.2593 17.0686 22.4202 16.467Z" fill="white"/>
<path d="M33.2977 4.75L18.9527 4.75C17.2268 4.75 15.8335 6.14333 15.8335 7.86917L15.976 8.01167C16.1027 8.09083 16.2293 8.15417 16.356 8.23333L24.2727 13.8858C25.476 14.7408 26.331 16.0075 26.711 17.4167H30.0835V20.5833H26.9168L26.9168 23.75H30.0835V26.9167H26.9168L26.9168 33.25H33.2977C35.0235 33.25 36.4168 31.8567 36.4168 30.1308V7.86917C36.4168 6.14333 35.0235 4.75 33.2977 4.75ZM30.0835 14.25H26.9168V11.0833L30.0835 11.0833V14.25Z" fill="white"/>
</svg>
