<svg width="20" height="20" viewBox="0 0 20 20" fill="none" xmlns="http://www.w3.org/2000/svg">
<path d="M5.38462 0C4.96077 0 4.61538 0.345385 4.61538 0.769231V3.07692C4.61538 3.50077 4.96077 3.84615 5.38462 3.84615C5.80846 3.84615 6.15385 3.50077 6.15385 3.07692V0.769231C6.15385 0.345385 5.80846 0 5.38462 0ZM14.6154 0C14.1915 0 13.8462 0.345385 13.8462 0.769231V3.07692C13.8462 3.50077 14.1915 3.84615 14.6154 3.84615C15.0392 3.84615 15.3846 3.50077 15.3846 3.07692V0.769231C15.3846 0.345385 15.0392 0 14.6154 0ZM2.30769 1.53846C1.03385 1.53846 0 2.57231 0 3.84615V17.6923C0 18.9662 1.03385 20 2.30769 20H17.6923C18.9662 20 20 18.9662 20 17.6923V3.84615C20 2.57231 18.9662 1.53846 17.6923 1.53846H16.1538V3.07692C16.1538 3.48495 15.9918 3.87626 15.7032 4.16478C15.4147 4.4533 15.0234 4.61538 14.6154 4.61538C14.2074 4.61538 13.816 4.4533 13.5275 4.16478C13.239 3.87626 13.0769 3.48495 13.0769 3.07692V1.53846H6.92308V3.07692C6.92308 3.48495 6.76099 3.87626 6.47247 4.16478C6.18395 4.4533 5.79264 4.61538 5.38462 4.61538C4.97659 4.61538 4.58528 4.4533 4.29676 4.16478C4.00824 3.87626 3.84615 3.48495 3.84615 3.07692V1.53846H2.30769ZM1.53846 6.92308H18.4615V17.6923C18.4615 18.1162 18.1162 18.4615 17.6923 18.4615H2.30769C1.88385 18.4615 1.53846 18.1162 1.53846 17.6923V6.92308ZM13.0046 8.58154C12.9461 8.59252 12.8903 8.61521 12.8408 8.64825C12.7912 8.6813 12.7488 8.72402 12.7162 8.77385L8.94231 14.3508L7.18769 12.62C7.14516 12.5772 7.09458 12.5432 7.03887 12.5201C6.98316 12.4969 6.92342 12.485 6.86308 12.485C6.80274 12.485 6.743 12.4969 6.68729 12.5201C6.63158 12.5432 6.581 12.5772 6.53846 12.62L5.86538 13.2692C5.77766 13.3593 5.72857 13.48 5.72857 13.6058C5.72857 13.7315 5.77766 13.8522 5.86538 13.9423L8.53385 16.6108C8.68385 16.7592 8.92231 16.8746 9.13462 16.8746C9.34692 16.8746 9.57462 16.7392 9.71154 16.5385L14.2546 9.83154C14.3248 9.72953 14.3516 9.60382 14.329 9.48208C14.3065 9.36033 14.2366 9.2525 14.1346 9.18231L13.3654 8.65385C13.259 8.58402 13.1297 8.55811 13.0046 8.58154Z" fill="url(#paint0_linear_186_4247)"/>
<defs>
<linearGradient id="paint0_linear_186_4247" x1="356.923" y1="0" x2="356.923" y2="1146.92" gradientUnits="userSpaceOnUse">
<stop stop-color="#1890FF"/>
<stop offset="1" stop-color="#0069CC"/>
</linearGradient>
</defs>
</svg>
