<svg width="46" height="46" viewBox="0 0 46 46" fill="none" xmlns="http://www.w3.org/2000/svg">
<path d="M45.9209 40.5L45.9209 5.5C45.9209 4.17392 45.3941 2.90215 44.4564 1.96447C43.5187 1.02678 42.247 0.5 40.9209 0.5L5.9209 0.5C4.59482 0.5 3.32305 1.02678 2.38536 1.96447C1.44768 2.90215 0.920898 4.17392 0.920898 5.5L0.920898 40.5C0.920898 41.8261 1.44768 43.0979 2.38536 44.0355C3.32305 44.9732 4.59482 45.5 5.9209 45.5L40.9209 45.5C42.247 45.5 43.5187 44.9732 44.4564 44.0355C45.3941 43.0979 45.9209 41.8261 45.9209 40.5ZM15.9209 38H10.9209L10.9209 23L15.9209 23L15.9209 38ZM25.9209 38L20.9209 38L20.9209 10.5H25.9209L25.9209 38ZM35.9209 38H30.9209L30.9209 18H35.9209L35.9209 38Z" fill="url(#paint0_linear_28_6341)"/>
<defs>
<linearGradient id="paint0_linear_28_6341" x1="23.4209" y1="0.5" x2="23.4209" y2="45.5" gradientUnits="userSpaceOnUse">
<stop stop-color="white"/>
<stop offset="1" stop-color="#85FFDF"/>
</linearGradient>
</defs>
</svg>
