<svg width="46" height="46" viewBox="0 0 46 46" fill="none" xmlns="http://www.w3.org/2000/svg">
<path d="M45.9214 40.5L45.9214 5.5C45.9214 4.17392 45.3946 2.90215 44.4569 1.96447C43.5192 1.02678 42.2475 0.5 40.9214 0.5L5.92139 0.5C4.5953 0.5 3.32353 1.02678 2.38585 1.96447C1.44817 2.90215 0.921387 4.17392 0.921387 5.5L0.921387 40.5C0.921387 41.8261 1.44817 43.0979 2.38585 44.0355C3.32353 44.9732 4.5953 45.5 5.92139 45.5L40.9214 45.5C42.2475 45.5 43.5192 44.9732 44.4569 44.0355C45.3946 43.0979 45.9214 41.8261 45.9214 40.5ZM15.9214 38H10.9214L10.9214 23L15.9214 23L15.9214 38ZM25.9214 38L20.9214 38L20.9214 10.5H25.9214L25.9214 38ZM35.9214 38H30.9214L30.9214 18H35.9214L35.9214 38Z" fill="url(#paint0_linear_28_6023)"/>
<defs>
<linearGradient id="paint0_linear_28_6023" x1="23.4214" y1="0.5" x2="23.4214" y2="45.5" gradientUnits="userSpaceOnUse">
<stop stop-color="white" stop-opacity="0.6"/>
<stop offset="1" stop-color="#0069CC" stop-opacity="0.6"/>
</linearGradient>
</defs>
</svg>
