<svg width="30" height="30" viewBox="0 0 30 30" fill="none" xmlns="http://www.w3.org/2000/svg">
<circle cx="15" cy="15" r="15" fill="#003075"/>
<path d="M15 14.5L11.2612 11.4734C10.7057 11.0237 10.428 10.7988 10.2283 10.5232C10.0514 10.279 9.92 10.0065 9.84014 9.71814C9.75 9.39268 9.75 9.04146 9.75 8.33903V6M15 14.5L18.7388 11.4734C19.2943 11.0237 19.572 10.7988 19.7717 10.5232C19.9486 10.279 20.08 10.0065 20.1599 9.71814C20.25 9.39268 20.25 9.04146 20.25 8.33903V6M15 14.5L11.2612 17.5266C10.7057 17.9763 10.428 18.2012 10.2283 18.4768C10.0514 18.721 9.92 18.9935 9.84014 19.2819C9.75 19.6073 9.75 19.9585 9.75 20.661V23M15 14.5L18.7388 17.5266C19.2943 17.9763 19.572 18.2012 19.7717 18.4768C19.9486 18.721 20.08 18.9935 20.1599 19.2819C20.25 19.6073 20.25 19.9585 20.25 20.661V23M8 6H22M8 23H22" stroke="#D9D9D9" stroke-width="2" stroke-linecap="round" stroke-linejoin="round"/>
<path d="M15.0006 13.3008C12.7202 11.4512 10.9416 9.97424 11.1177 10.0008L18.8961 10.0008C19.1162 9.91819 17.0318 11.6071 15.0006 13.3008Z" fill="#1890FF"/>
<rect x="10.75" y="21" width="8.5" height="1" fill="#1890FF"/>
</svg>
