<svg width="15" height="15" viewBox="0 0 15 15" fill="none" xmlns="http://www.w3.org/2000/svg">
<path d="M12.8574 6.69852H4.48689V2.94852C4.48689 2.43122 4.90709 2.01102 5.42439 2.01102H9.57617C10.0935 2.01102 10.5137 2.43122 10.5137 2.94852V4.08691C10.5137 4.16058 10.5739 4.22084 10.6476 4.22084H11.5851C11.6588 4.22084 11.719 4.16058 11.719 4.08691V2.94852C11.719 1.76493 10.7598 0.805664 9.57617 0.805664H5.42439C4.24079 0.805664 3.28153 1.76493 3.28153 2.94852V6.69852H2.14314C1.84682 6.69852 1.60742 6.93792 1.60742 7.23424V13.6628C1.60742 13.9591 1.84682 14.1985 2.14314 14.1985H12.8574C13.1537 14.1985 13.3931 13.9591 13.3931 13.6628V7.23424C13.3931 6.93792 13.1537 6.69852 12.8574 6.69852ZM12.1878 12.9932H2.81278V7.90388H12.1878V12.9932ZM7.03153 10.6662V11.5534C7.03153 11.6271 7.0918 11.6874 7.16546 11.6874H7.8351C7.90876 11.6874 7.96903 11.6271 7.96903 11.5534V10.6662C8.10722 10.5669 8.21037 10.4264 8.26362 10.2649C8.31688 10.1033 8.31749 9.92899 8.26538 9.76705C8.21326 9.60511 8.11111 9.46388 7.97362 9.36369C7.83613 9.2635 7.6704 9.20952 7.50028 9.20952C7.33016 9.20952 7.16443 9.2635 7.02694 9.36369C6.88945 9.46388 6.78729 9.60511 6.73518 9.76705C6.68307 9.92899 6.68368 10.1033 6.73694 10.2649C6.79019 10.4264 6.89334 10.5669 7.03153 10.6662Z" fill="white" fill-opacity="0.85"/>
</svg>
