<svg width="12" height="14" viewBox="0 0 12 14" fill="none" xmlns="http://www.w3.org/2000/svg">
<path d="M11.25 5.89286H10.1116V2.14286C10.1116 0.959264 9.15234 0 7.96875 0H3.81696C2.63337 0 1.67411 0.959264 1.67411 2.14286V5.89286H0.535714C0.239397 5.89286 0 6.13226 0 6.42857V12.8571C0 13.1535 0.239397 13.3929 0.535714 13.3929H11.25C11.5463 13.3929 11.7857 13.1535 11.7857 12.8571V6.42857C11.7857 6.13226 11.5463 5.89286 11.25 5.89286ZM2.87946 2.14286C2.87946 1.62556 3.29967 1.20536 3.81696 1.20536H7.96875C8.48605 1.20536 8.90625 1.62556 8.90625 2.14286V5.89286H2.87946V2.14286ZM10.5804 12.1875H1.20536V7.09821H10.5804V12.1875ZM5.42411 9.86049V10.7478C5.42411 10.8214 5.48438 10.8817 5.55804 10.8817H6.22768C6.30134 10.8817 6.36161 10.8214 6.36161 10.7478V9.86049C6.4998 9.76128 6.60295 9.62077 6.6562 9.4592C6.70946 9.29763 6.71007 9.12333 6.65796 8.96139C6.60584 8.79945 6.50369 8.65822 6.3662 8.55803C6.22871 8.45784 6.06298 8.40386 5.89286 8.40386C5.72274 8.40386 5.557 8.45784 5.41952 8.55803C5.28203 8.65822 5.17987 8.79945 5.12776 8.96139C5.07565 9.12333 5.07626 9.29763 5.12951 9.4592C5.18277 9.62077 5.28592 9.76128 5.42411 9.86049Z" fill="white" fill-opacity="0.5"/>
</svg>
