<svg width="45" height="45" viewBox="0 0 45 45" fill="none" xmlns="http://www.w3.org/2000/svg">
<circle cx="22.5" cy="22.5" r="22.5" fill="#9CC869"/>
<path d="M21.7 13.1292C19.4068 13.1292 17.2076 13.9489 15.586 15.408C13.9645 16.8671 13.0536 18.8461 13.0536 20.9095C13.0536 21.2043 13.1837 21.487 13.4153 21.6955C13.647 21.9039 13.9612 22.021 14.2888 22.021C14.6164 22.021 14.9305 21.9039 15.1622 21.6955C15.3938 21.487 15.524 21.2043 15.524 20.9095C15.524 19.4356 16.1747 18.0221 17.3329 16.9799C18.4911 15.9377 20.062 15.3522 21.7 15.3522C23.338 15.3522 24.9089 15.9377 26.0671 16.9799C27.2253 18.0221 27.876 19.4356 27.876 20.9095C27.8721 21.9151 27.5693 22.9013 26.999 23.766L22.6017 32.0243C22.3851 32.3619 22.0736 32.6423 21.6986 32.8374C21.3235 33.0325 20.898 33.1354 20.4648 33.1358C19.8096 33.1358 19.1812 32.9016 18.7179 32.4847C18.2547 32.0678 17.9944 31.5024 17.9944 30.9128C17.9944 30.6181 17.8642 30.3354 17.6326 30.1269C17.401 29.9185 17.0868 29.8014 16.7592 29.8014C16.4316 29.8014 16.1174 29.9185 15.8858 30.1269C15.6541 30.3354 15.524 30.6181 15.524 30.9128C15.524 32.092 16.0445 33.2228 16.9711 34.0566C17.8977 34.8904 19.1544 35.3588 20.4648 35.3588C21.3482 35.358 22.2152 35.1442 22.9755 34.7396C23.7359 34.3349 24.3618 33.7542 24.788 33.058L29.1853 24.7997C29.949 23.6186 30.3497 22.276 30.3464 20.9095C30.3464 18.8461 29.4355 16.8671 27.8139 15.408C26.1924 13.9489 23.9932 13.1292 21.7 13.1292ZM13.0536 26.4669C12.8093 26.4669 12.5705 26.5321 12.3673 26.6543C12.1642 26.7764 12.0059 26.95 11.9124 27.1531C11.8189 27.3562 11.7944 27.5797 11.8421 27.7953C11.8898 28.0109 12.0074 28.2089 12.1801 28.3643C12.3529 28.5198 12.573 28.6257 12.8126 28.6685C13.0522 28.7114 13.3006 28.6894 13.5263 28.6053C13.752 28.5212 13.9449 28.3787 14.0806 28.1959C14.2163 28.0131 14.2888 27.7982 14.2888 27.5784C14.2888 27.2836 14.1586 27.0009 13.927 26.7925C13.6953 26.584 13.3812 26.4669 13.0536 26.4669ZM29.84 11.1285C29.7102 11.041 29.5626 10.9772 29.4054 10.941C29.2483 10.9048 29.0848 10.8968 28.9242 10.9174C28.7636 10.9381 28.6091 10.987 28.4695 11.0613C28.33 11.1357 28.208 11.2341 28.1107 11.3508C28.0134 11.4676 27.9426 11.6005 27.9023 11.7419C27.8621 11.8833 27.8531 12.0304 27.8761 12.1749C27.899 12.3194 27.9534 12.4584 28.036 12.584C28.1187 12.7096 28.228 12.8193 28.3577 12.9069C29.7407 13.8375 30.8637 15.0453 31.6377 16.4343C32.4117 17.8234 32.8154 19.3556 32.8168 20.9095C32.8168 21.2043 32.947 21.487 33.1786 21.6955C33.4103 21.9039 33.7244 22.021 34.052 22.021C34.3796 22.021 34.6938 21.9039 34.9255 21.6955C35.1571 21.487 35.2872 21.2043 35.2872 20.9095C35.2801 19.0115 34.7846 17.1406 33.8395 15.4437C32.8944 13.7468 31.5255 12.2698 29.84 11.1285ZM21.7 19.7981C22.0276 19.7981 22.3418 19.9152 22.5734 20.1236C22.8051 20.3321 22.9352 20.6148 22.9352 20.9095C22.9352 21.2043 23.0653 21.487 23.297 21.6955C23.5286 21.9039 23.8428 22.021 24.1704 22.021C24.498 22.021 24.8122 21.9039 25.0438 21.6955C25.2755 21.487 25.4056 21.2043 25.4056 20.9095C25.4056 20.0252 25.0152 19.1771 24.3203 18.5517C23.6253 17.9264 22.6828 17.5751 21.7 17.5751C20.7172 17.5751 19.7747 17.9264 19.0797 18.5517C18.3848 19.1771 17.9944 20.0252 17.9944 20.9095C17.9927 21.5746 18.2121 22.2249 18.6243 22.7768C18.7945 22.9942 18.9891 23.1953 19.2049 23.377L19.4519 23.6216C19.5874 23.8042 19.6596 24.0189 19.6596 24.2384C19.6596 24.458 19.5874 24.6726 19.4519 24.8553C19.2656 25.0971 19.1935 25.3956 19.2514 25.6852C19.3093 25.9748 19.4925 26.232 19.7607 26.4002C19.9673 26.53 20.2129 26.5998 20.4648 26.6003C20.6639 26.6 20.86 26.5564 21.0364 26.4732C21.2128 26.39 21.3641 26.2696 21.4777 26.1224C21.8999 25.5676 22.1258 24.9109 22.1258 24.2384C22.1258 23.566 21.8999 22.9093 21.4777 22.3545C21.3478 22.1886 21.2032 22.0325 21.0453 21.8877L20.8724 21.732C20.8001 21.6707 20.734 21.6038 20.6748 21.532C20.5374 21.348 20.4642 21.1312 20.4648 20.9095C20.4648 20.6148 20.5949 20.3321 20.8266 20.1236C21.0582 19.9152 21.3724 19.7981 21.7 19.7981ZM16.7592 26.4669C17.0035 26.4669 17.2423 26.4018 17.4454 26.2796C17.6485 26.1575 17.8069 25.9839 17.9004 25.7808C17.9938 25.5777 18.0183 25.3542 17.9706 25.1386C17.923 24.923 17.8053 24.725 17.6326 24.5695C17.4599 24.4141 17.2398 24.3082 17.0002 24.2653C16.7605 24.2225 16.5122 24.2445 16.2865 24.3286C16.0608 24.4127 15.8679 24.5552 15.7321 24.738C15.5964 24.9207 15.524 25.1356 15.524 25.3555C15.524 25.6502 15.6541 25.933 15.8858 26.1414C16.1174 26.3498 16.4316 26.4669 16.7592 26.4669Z" fill="white"/>
</svg>
