<svg width="12" height="14" viewBox="0 0 12 14" fill="none" xmlns="http://www.w3.org/2000/svg">
<path d="M11.4545 6.16H10.2955V2.24C10.2955 1.00275 9.31875 0 8.11364 0H3.88636C2.68125 0 1.70455 1.00275 1.70455 2.24V6.16H0.545455C0.24375 6.16 0 6.41025 0 6.72V13.44C0 13.7498 0.24375 14 0.545455 14H11.4545C11.7563 14 12 13.7498 12 13.44V6.72C12 6.41025 11.7563 6.16 11.4545 6.16ZM2.93182 2.24C2.93182 1.69925 3.35966 1.26 3.88636 1.26H8.11364C8.64034 1.26 9.06818 1.69925 9.06818 2.24V6.16H2.93182V2.24ZM10.7727 12.74H1.22727V7.42H10.7727V12.74ZM5.52273 10.3075V11.235C5.52273 11.312 5.58409 11.375 5.65909 11.375H6.34091C6.41591 11.375 6.47727 11.312 6.47727 11.235V10.3075C6.61798 10.2038 6.723 10.0569 6.77722 9.88802C6.83145 9.71912 6.83207 9.53692 6.77901 9.36764C6.72595 9.19835 6.62194 9.05072 6.48195 8.94599C6.34196 8.84126 6.17321 8.78483 6 8.78483C5.82679 8.78483 5.65804 8.84126 5.51805 8.94599C5.37806 9.05072 5.27405 9.19835 5.22099 9.36764C5.16793 9.53692 5.16856 9.71912 5.22278 9.88802C5.277 10.0569 5.38202 10.2038 5.52273 10.3075Z" fill="#7E7E7E"/>
</svg>
