<svg width="22" height="20" viewBox="0 0 22 20" fill="none" xmlns="http://www.w3.org/2000/svg">
<path d="M21.2143 0.601563H15.5964C14.3908 0.601563 13.2123 0.979242 12.1982 1.69174L11 2.53013L9.80179 1.69174C8.78873 0.979379 7.60885 0.60086 6.40357 0.601563H0.785714C0.351116 0.601563 0 0.984599 0 1.45871V16.673C0 17.1471 0.351116 17.5301 0.785714 17.5301H6.40357C7.60915 17.5301 8.78772 17.9078 9.80179 18.6203L10.892 19.3864C10.9239 19.4078 10.9607 19.4212 10.9975 19.4212C11.0344 19.4212 11.0712 19.4105 11.1031 19.3864L12.1933 18.6203C13.2098 17.9078 14.3908 17.5301 15.5964 17.5301H21.2143C21.6489 17.5301 22 17.1471 22 16.673V1.45871C22 0.984599 21.6489 0.601563 21.2143 0.601563ZM6.40357 15.6016H1.76786V2.53013H6.40357C7.27277 2.53013 8.11741 2.80067 8.84665 3.31228L10.0449 4.15067L10.2143 4.27121V16.6462C9.04554 15.9605 7.73929 15.6016 6.40357 15.6016ZM20.2321 15.6016H15.5964C14.2607 15.6016 12.9545 15.9605 11.7857 16.6462V4.27121L11.9551 4.15067L13.1533 3.31228C13.8826 2.80067 14.7272 2.53013 15.5964 2.53013H20.2321V15.6016ZM8.17388 5.95871H3.61183C3.51607 5.95871 3.4375 6.04978 3.4375 6.1596V7.36496C3.4375 7.47478 3.51607 7.56585 3.61183 7.56585H8.17143C8.26719 7.56585 8.34576 7.47478 8.34576 7.36496V6.1596C8.34821 6.04978 8.26964 5.95871 8.17388 5.95871ZM13.6518 6.1596V7.36496C13.6518 7.47478 13.7304 7.56585 13.8261 7.56585H18.3857C18.4815 7.56585 18.56 7.47478 18.56 7.36496V6.1596C18.56 6.04978 18.4815 5.95871 18.3857 5.95871H13.8261C13.7304 5.95871 13.6518 6.04978 13.6518 6.1596ZM8.17388 9.70871H3.61183C3.51607 9.70871 3.4375 9.79978 3.4375 9.9096V11.115C3.4375 11.2248 3.51607 11.3158 3.61183 11.3158H8.17143C8.26719 11.3158 8.34576 11.2248 8.34576 11.115V9.9096C8.34821 9.79978 8.26964 9.70871 8.17388 9.70871ZM18.3882 9.70871H13.8261C13.7304 9.70871 13.6518 9.79978 13.6518 9.9096V11.115C13.6518 11.2248 13.7304 11.3158 13.8261 11.3158H18.3857C18.4815 11.3158 18.56 11.2248 18.56 11.115V9.9096C18.5625 9.79978 18.4839 9.70871 18.3882 9.70871Z" fill="url(#paint0_linear_186_4328)"/>
<defs>
<linearGradient id="paint0_linear_186_4328" x1="11" y1="0.601562" x2="11" y2="19.4212" gradientUnits="userSpaceOnUse">
<stop stop-color="white"/>
<stop offset="1" stop-color="#A5D4FF"/>
</linearGradient>
</defs>
</svg>
