<svg width="226" height="226" viewBox="0 0 226 226" fill="none" xmlns="http://www.w3.org/2000/svg">
<path d="M115.199 2.19892C137.41 2.63971 158.976 9.74558 177.098 22.5945L161.074 45.1958C147.482 35.5591 131.308 30.2297 114.65 29.8991L115.199 2.19892Z" fill="#71BBFF" fill-opacity="0.65"/>
<path d="M179.917 24.6606C197.625 38.0746 210.893 56.5009 218 77.5489L191.75 86.4116C186.42 70.6256 176.469 56.8058 163.188 46.7454L179.917 24.6606Z" fill="#71BBFF" fill-opacity="0.65"/>
<path d="M218.905 80.3518C225.449 101.581 225.463 124.287 218.943 145.524L192.457 137.393C197.347 121.466 197.337 104.436 192.429 88.5138L218.905 80.3518Z" fill="#71BBFF" fill-opacity="0.65"/>
<path d="M217.91 148.715C210.751 169.745 197.437 188.138 179.695 201.507L163.021 179.38C176.328 169.353 186.313 155.558 191.683 139.786L217.91 148.715Z" fill="#71BBFF" fill-opacity="0.65"/>
<path d="M176.906 203.541C158.756 216.352 137.175 223.411 114.963 223.805L114.473 196.104C131.131 195.809 147.317 190.514 160.929 180.906L176.906 203.541Z" fill="#71BBFF" fill-opacity="0.65"/>
<path d="M110.801 223.801C88.5905 223.36 67.0248 216.254 48.9024 203.405L64.9269 180.804C78.5187 190.44 94.693 195.77 111.351 196.1L110.801 223.801Z" fill="#71BBFF" fill-opacity="0.65"/>
<path d="M46.667 201.778C28.8707 188.481 15.4815 170.142 8.23663 149.141L34.4276 140.106C39.8612 155.857 49.9031 169.611 63.2503 179.583L46.667 201.778Z" fill="#71BBFF" fill-opacity="0.65"/>
<path d="M7.15986 145.855C0.573823 124.638 0.51621 101.932 6.99449 80.6823L33.496 88.7617C28.6372 104.699 28.6804 121.729 33.62 137.641L7.15986 145.855Z" fill="#71BBFF" fill-opacity="0.65"/>
<path d="M8.00164 77.5465C15.1085 56.4987 28.3771 38.0726 46.0856 24.659L62.8143 46.7442C49.5329 56.8044 39.5815 70.624 34.2513 86.4098L8.00164 77.5465Z" fill="#71BBFF" fill-opacity="0.65"/>
<path d="M49.0259 22.5071C67.1658 9.68289 88.7413 2.60648 110.953 2.19602L111.465 29.8969C94.806 30.2048 78.6244 35.5121 65.0195 45.1302L49.0259 22.5071Z" fill="#71BBFF" fill-opacity="0.65"/>
<path d="M99.0187 130.073C96.3111 130.063 93.9813 129.396 92.0293 128.074C90.0878 126.752 88.5923 124.836 87.5429 122.328C86.5039 119.82 85.9897 116.803 86.0002 113.277C86.0002 109.761 86.5196 106.765 87.5586 104.288C88.6081 101.811 90.1035 99.9275 92.045 98.6367C93.997 97.3354 96.3216 96.6847 99.0187 96.6847C101.716 96.6847 104.035 97.3354 105.977 98.6367C107.929 99.938 109.429 101.827 110.479 104.304C111.528 106.77 112.048 109.761 112.037 113.277C112.037 116.813 111.512 119.836 110.463 122.344C109.424 124.852 107.934 126.767 105.992 128.09C104.051 129.412 101.726 130.073 99.0187 130.073ZM99.0187 124.422C100.866 124.422 102.34 123.493 103.442 121.636C104.544 119.778 105.09 116.992 105.079 113.277C105.079 110.831 104.827 108.795 104.324 107.169C103.83 105.542 103.127 104.32 102.214 103.501C101.312 102.682 100.247 102.273 99.0187 102.273C97.1821 102.273 95.7129 103.191 94.611 105.028C93.509 106.864 92.9528 109.614 92.9423 113.277C92.9423 115.753 93.1889 117.821 93.6822 119.479C94.1859 121.127 94.8943 122.365 95.8073 123.194C96.7204 124.013 97.7908 124.422 99.0187 124.422Z" fill="white"/>
<path d="M134.544 123.32V121.62C134.544 120.329 134.817 119.143 135.363 118.062C135.919 116.971 136.722 116.1 137.771 115.449C138.831 114.788 140.122 114.457 141.644 114.457C143.186 114.457 144.482 114.783 145.532 115.433C146.592 116.084 147.389 116.955 147.925 118.046C148.47 119.127 148.743 120.318 148.743 121.62V123.32C148.743 124.611 148.47 125.802 147.925 126.893C147.379 127.974 146.576 128.84 145.516 129.491C144.456 130.152 143.165 130.482 141.644 130.482C140.101 130.482 138.805 130.152 137.755 129.491C136.706 128.84 135.908 127.974 135.363 126.893C134.817 125.802 134.544 124.611 134.544 123.32ZM139.125 121.62V123.32C139.125 124.065 139.303 124.768 139.66 125.429C140.028 126.09 140.689 126.421 141.644 126.421C142.599 126.421 143.249 126.096 143.596 125.445C143.952 124.794 144.131 124.086 144.131 123.32V121.62C144.131 120.854 143.963 120.14 143.627 119.479C143.291 118.818 142.63 118.487 141.644 118.487C140.699 118.487 140.043 118.818 139.676 119.479C139.309 120.14 139.125 120.854 139.125 121.62ZM117.999 104.87V103.17C117.999 101.869 118.278 100.678 118.834 99.597C119.39 98.5055 120.193 97.6345 121.242 96.9838C122.302 96.3331 123.583 96.0078 125.083 96.0078C126.636 96.0078 127.938 96.3331 128.987 96.9838C130.037 97.6345 130.834 98.5055 131.38 99.597C131.926 100.678 132.199 101.869 132.199 103.17V104.87C132.199 106.172 131.92 107.363 131.364 108.444C130.819 109.525 130.016 110.391 128.956 111.041C127.906 111.681 126.615 112.002 125.083 112.002C123.551 112.002 122.255 111.676 121.195 111.026C120.146 110.364 119.348 109.499 118.802 108.428C118.267 107.347 117.999 106.161 117.999 104.87ZM122.612 103.17V104.87C122.612 105.637 122.79 106.345 123.147 106.996C123.514 107.646 124.16 107.972 125.083 107.972C126.049 107.972 126.705 107.646 127.051 106.996C127.408 106.345 127.586 105.637 127.586 104.87V103.17C127.586 102.404 127.418 101.691 127.082 101.029C126.747 100.368 126.08 100.038 125.083 100.038C124.149 100.038 123.504 100.374 123.147 101.045C122.79 101.717 122.612 102.425 122.612 103.17ZM120.077 129.365L142.242 97.1255H146.366L124.202 129.365H120.077Z" fill="white"/>
</svg>
