<svg width="45" height="45" viewBox="0 0 45 45" fill="none" xmlns="http://www.w3.org/2000/svg">
<circle cx="22.5" cy="22.5" r="22.5" fill="#C68AE0"/>
<path d="M34.4732 31.8827C29.3217 31.8827 22.5278 34.4664 22.5278 34.4664V20.2557C22.5278 20.2557 29.2471 17.6719 35.9663 17.6719L34.4732 31.8827Z" fill="white"/>
<path d="M10.5825 31.8827C15.7339 31.8827 22.5279 34.4664 22.5279 34.4664V20.2557C22.5279 20.2557 15.8086 17.6719 9.08936 17.6719L10.5825 31.8827Z" fill="#ECECEC"/>
<path d="M22.5278 18.964C25.8265 18.964 28.5005 16.6504 28.5005 13.7965C28.5005 10.9425 25.8265 8.62891 22.5278 8.62891C19.2292 8.62891 16.5552 10.9425 16.5552 13.7965C16.5552 16.6504 19.2292 18.964 22.5278 18.964Z" fill="white"/>
<path d="M35.2197 26.7155H35.9663C36.4143 26.7155 36.7129 26.4571 36.7129 26.0696V23.4858C36.7129 23.0982 36.4143 22.8398 35.9663 22.8398H35.2197C33.9505 22.8398 32.98 23.6796 32.98 24.7777C32.98 25.8758 33.9505 26.7155 35.2197 26.7155Z" fill="white"/>
<path d="M9.83594 22.8398H9.08936C8.64141 22.8398 8.34277 23.0982 8.34277 23.4858V26.0696C8.34277 26.4571 8.64141 26.7155 9.08936 26.7155H9.83594C11.1051 26.7155 12.0757 25.8758 12.0757 24.7777C12.0757 23.6796 11.1051 22.8398 9.83594 22.8398Z" fill="white"/>
</svg>
