<svg width="39" height="39" viewBox="0 0 39 39" fill="none" xmlns="http://www.w3.org/2000/svg">
<circle cx="19.3" cy="19.3" r="19.3" fill="#254B86"/>
<path fill-rule="evenodd" clip-rule="evenodd" d="M9.96103 22.4123C11.3364 22.4123 12.4513 21.2973 12.4513 19.922C12.4513 18.5466 11.3364 17.4316 9.96103 17.4316C8.58566 17.4316 7.4707 18.5466 7.4707 19.922C7.4707 21.2973 8.58566 22.4123 9.96103 22.4123ZM19.9223 22.4123C21.2977 22.4123 22.4126 21.2973 22.4126 19.922C22.4126 18.5466 21.2977 17.4316 19.9223 17.4316C18.5469 17.4316 17.432 18.5466 17.432 19.922C17.432 21.2973 18.5469 22.4123 19.9223 22.4123ZM32.3739 19.922C32.3739 21.2973 31.259 22.4123 29.8836 22.4123C28.5082 22.4123 27.3933 21.2973 27.3933 19.922C27.3933 18.5466 28.5082 17.4316 29.8836 17.4316C31.259 17.4316 32.3739 18.5466 32.3739 19.922Z" fill="white" fill-opacity="0.6"/>
</svg>
