<svg width="51" height="50" viewBox="0 0 51 50" fill="none" xmlns="http://www.w3.org/2000/svg">
<path d="M49.8928 18.0433L26.6897 0.605761C26.3701 0.363827 25.9843 0.233398 25.5881 0.233398C25.192 0.233398 24.8061 0.363827 24.4865 0.605761L1.28342 18.0433C0.962994 18.284 0.724615 18.6234 0.602501 19.0128C0.480387 19.4023 0.480819 19.8217 0.603733 20.2108L9.46897 48.4257C9.59134 48.8144 9.82952 49.1531 10.1495 49.3934C10.4694 49.6338 10.8547 49.7634 11.2502 49.7638L39.9319 49.7638C40.7463 49.7638 41.4612 49.2249 41.7131 48.4257L50.5783 20.2108C50.8244 19.4116 50.549 18.5397 49.8928 18.0433ZM44.7248 19.2481L38.9533 21.1856L27.2346 12.4245L27.2346 6.10342L44.7248 19.2481ZM22.8928 28.3423L17.6721 35.7472L14.4377 25.5026L22.8928 28.3423ZM16.0783 22.4813L23.9475 16.6022V25.1272L16.0783 22.4813ZM25.5881 30.2798L31.0901 38.0843L20.0862 38.0843L25.5881 30.2798ZM27.2346 16.6022L35.0979 22.4813L27.2346 25.1212V16.6022ZM28.2834 28.3423L36.7385 25.5026L33.5041 35.7472L28.2834 28.3423ZM23.9475 6.10342L23.9475 12.4245L12.2229 21.1856L6.45139 19.2481L23.9475 6.10342ZM5.50803 22.5056L10.5764 24.2069L15.2873 39.1257L12.135 43.6001L5.50803 22.5056ZM14.7541 45.6466L17.7014 41.4688L33.4807 41.4688L36.428 45.6466L14.7541 45.6466ZM39.0412 43.6001L35.8889 39.1257L40.5998 24.2069L45.6682 22.5056L39.0412 43.6001Z" fill="url(#paint0_linear_28_5932)"/>
<defs>
<linearGradient id="paint0_linear_28_5932" x1="25.5893" y1="0.233398" x2="25.5893" y2="49.7638" gradientUnits="userSpaceOnUse">
<stop stop-color="white" stop-opacity="0.66"/>
<stop offset="1" stop-color="#0069CC" stop-opacity="0.66"/>
</linearGradient>
</defs>
</svg>
