<svg width="51" height="50" viewBox="0 0 51 50" fill="none" xmlns="http://www.w3.org/2000/svg">
<path d="M49.8933 18.0433L26.6902 0.605761C26.3706 0.363827 25.9847 0.233398 25.5886 0.233398C25.1924 0.233398 24.8066 0.363827 24.487 0.605761L1.28391 18.0433C0.963482 18.284 0.725103 18.6234 0.602989 19.0128C0.480876 19.4023 0.481307 19.8217 0.604221 20.2108L9.46946 48.4257C9.59183 48.8144 9.83001 49.1531 10.1499 49.3934C10.4699 49.6338 10.8552 49.7634 11.2507 49.7638L39.9323 49.7638C40.7468 49.7638 41.4616 49.2249 41.7136 48.4257L50.5788 20.2108C50.8249 19.4116 50.5495 18.5397 49.8933 18.0433ZM44.7253 19.2481L38.9538 21.1856L27.2351 12.4245L27.2351 6.10342L44.7253 19.2481ZM22.8933 28.3423L17.6726 35.7472L14.4382 25.5026L22.8933 28.3423ZM16.0788 22.4813L23.948 16.6022V25.1272L16.0788 22.4813ZM25.5886 30.2798L31.0905 38.0843L20.0866 38.0843L25.5886 30.2798ZM27.2351 16.6022L35.0984 22.4813L27.2351 25.1212V16.6022ZM28.2839 28.3423L36.739 25.5026L33.5046 35.7472L28.2839 28.3423ZM23.948 6.10342L23.948 12.4245L12.2234 21.1856L6.45188 19.2481L23.948 6.10342ZM5.50852 22.5056L10.5769 24.2069L15.2878 39.1257L12.1355 43.6001L5.50852 22.5056ZM14.7546 45.6466L17.7019 41.4688L33.4812 41.4688L36.4284 45.6466L14.7546 45.6466ZM39.0417 43.6001L35.8894 39.1257L40.6003 24.2069L45.6687 22.5056L39.0417 43.6001Z" fill="url(#paint0_linear_28_6827)"/>
<defs>
<linearGradient id="paint0_linear_28_6827" x1="25.5898" y1="0.233398" x2="25.5898" y2="49.7638" gradientUnits="userSpaceOnUse">
<stop stop-color="white" stop-opacity="0.66"/>
<stop offset="0.0001" stop-color="white"/>
<stop offset="1" stop-color="#8DFFE1"/>
</linearGradient>
</defs>
</svg>
