<svg width="45" height="45" viewBox="0 0 45 45" fill="none" xmlns="http://www.w3.org/2000/svg">
<circle cx="22.5" cy="22.5" r="22.5" fill="#547FFF"/>
<path d="M26.1467 26.7628C23.4255 25.9663 24.2001 25.3322 26.7971 24.4276C28.0411 23.9935 27.2846 23.078 27.3186 22.3456C27.3338 22.0103 28.7554 22.0772 28.6522 20.7841C28.5796 19.8734 26.4162 18.576 25.8267 18.0223C25.4863 17.7029 26.5205 16.8287 25.7922 16.0599C24.7978 15.0091 24.6407 13.1808 24.039 12.1582C24.039 12.1582 24.4978 11.5084 24.1462 11.139C21.1132 7.95563 9.79541 8.24794 6.9031 12.933C3.65629 18.1924 3.61293 25.4615 10.3638 29.3778C13.3663 31.1192 9.52059 37.2859 9.52059 37.2859H21.4267C21.4267 36.2329 20.099 32.4557 22.4229 32.6253C24.4421 32.7725 26.9149 32.6915 26.6957 30.5769C26.6295 29.9391 26.5516 29.3648 27.032 28.8361C27.5125 28.308 28.2081 27.3659 26.1467 26.7628Z" fill="white"/>
<path d="M28.8721 25.7703L39.9297 27.1134V24.4277L28.8721 25.7703Z" fill="white"/>
<path d="M37.8554 34.6131L39.0414 32.2871L28.8721 27.1973L37.8554 34.6131Z" fill="white"/>
<path d="M39.0414 19.2289L37.8554 16.9023L28.8721 24.3193L39.0414 19.2289Z" fill="white"/>
</svg>
