<svg width="25" height="26" viewBox="0 0 25 26" fill="none" xmlns="http://www.w3.org/2000/svg">
<path d="M11.2662 3.67328C11.5918 2.81464 12.8238 2.81464 13.1504 3.67328L15.2563 9.50679C15.3297 9.69681 15.4591 9.86009 15.6273 9.97507C15.7955 10.09 15.9946 10.1513 16.1983 10.1508H21.3736C22.3299 10.1508 22.7471 11.3411 21.9952 11.924L18.3124 15.2375C18.1474 15.3644 18.0269 15.5402 17.968 15.7398C17.9092 15.9393 17.9151 16.1524 17.9848 16.3485L19.3298 22.0487C19.6573 22.9643 18.5973 23.7507 17.7956 23.1871L12.7933 20.013C12.622 19.8926 12.4177 19.828 12.2083 19.828C11.9989 19.828 11.7946 19.8926 11.6233 20.013L6.62098 23.1871C5.82033 23.7507 4.75923 22.9633 5.08681 22.0487L6.43176 16.3485C6.50152 16.1524 6.5074 15.9393 6.44855 15.7398C6.3897 15.5402 6.26914 15.3644 6.10417 15.2375L2.42135 11.924C1.66851 11.3411 2.08766 10.1508 3.04193 10.1508H8.21721C8.42098 10.1514 8.62015 10.0902 8.78837 9.97525C8.95659 9.86025 9.08593 9.6969 9.15928 9.50679L11.2662 3.67328Z" fill="#0D7FE8"/>
</svg>
