<svg width="45" height="45" viewBox="0 0 45 45" fill="none" xmlns="http://www.w3.org/2000/svg">
<circle cx="22.5" cy="22.5" r="22.5" fill="#2982CC" fill-opacity="0.1"/>
<path d="M22.5 22.5357L17.4259 18.4281C16.6721 17.8179 16.2951 17.5127 16.0241 17.1387C15.784 16.8072 15.6057 16.4374 15.4973 16.046C15.375 15.6043 15.375 15.1277 15.375 14.1744V11M22.5 22.5357L27.5741 18.4281C28.3279 17.8179 28.7049 17.5127 28.9759 17.1387C29.216 16.8072 29.3943 16.4374 29.5027 16.046C29.625 15.6043 29.625 15.1277 29.625 14.1744V11M22.5 22.5357L17.4259 26.6433C16.6721 27.2536 16.2951 27.5587 16.0241 27.9328C15.784 28.2642 15.6057 28.634 15.4973 29.0254C15.375 29.4671 15.375 29.9437 15.375 30.897V34.0714M22.5 22.5357L27.5741 26.6433C28.3279 27.2536 28.7049 27.5587 28.9759 27.9328C29.216 28.2642 29.3943 28.634 29.5027 29.0254C29.625 29.4671 29.625 29.9437 29.625 30.897V34.0714M13 11H32M13 34.0714H32" stroke="white" stroke-width="2" stroke-linecap="round" stroke-linejoin="round"/>
<path d="M22.5001 20.9102C19.4053 18.4 16.9915 16.3956 17.2305 16.4316L27.7868 16.4316C28.0856 16.3195 25.2568 18.6116 22.5001 20.9102Z" fill="#1890FF"/>
<rect x="16.7319" y="31.3574" width="11.5357" height="1.35714" fill="#1890FF"/>
</svg>
