<svg width="46" height="46" viewBox="0 0 46 46" fill="none" xmlns="http://www.w3.org/2000/svg">
<path d="M5.25879 45.5C3.88379 45.5 2.70629 45.0108 1.72629 44.0325C0.747955 43.0525 0.258789 41.875 0.258789 40.5L0.258789 5.5C0.258789 4.125 0.747955 2.9475 1.72629 1.9675C2.70629 0.989166 3.88379 0.5 5.25879 0.5L40.2588 0.5C41.6338 0.5 42.8113 0.989166 43.7913 1.9675C44.7696 2.9475 45.2588 4.125 45.2588 5.5L45.2588 40.5C45.2588 41.875 44.7696 43.0525 43.7913 44.0325C42.8113 45.0108 41.6338 45.5 40.2588 45.5L5.25879 45.5ZM12.7588 35.5C13.4671 35.5 14.0613 35.26 14.5413 34.78C15.0196 34.3017 15.2588 33.7083 15.2588 33C15.2588 32.2917 15.0196 31.6975 14.5413 31.2175C14.0613 30.7392 13.4671 30.5 12.7588 30.5C12.0505 30.5 11.4563 30.7392 10.9763 31.2175C10.498 31.6975 10.2588 32.2917 10.2588 33C10.2588 33.7083 10.498 34.3017 10.9763 34.78C11.4563 35.26 12.0505 35.5 12.7588 35.5ZM12.7588 25.5C13.4671 25.5 14.0613 25.26 14.5413 24.78C15.0196 24.3017 15.2588 23.7083 15.2588 23C15.2588 22.2917 15.0196 21.6975 14.5413 21.2175C14.0613 20.7392 13.4671 20.5 12.7588 20.5C12.0505 20.5 11.4563 20.7392 10.9763 21.2175C10.498 21.6975 10.2588 22.2917 10.2588 23C10.2588 23.7083 10.498 24.3017 10.9763 24.78C11.4563 25.26 12.0505 25.5 12.7588 25.5ZM12.7588 15.5C13.4671 15.5 14.0613 15.26 14.5413 14.78C15.0196 14.3017 15.2588 13.7083 15.2588 13C15.2588 12.2917 15.0196 11.6975 14.5413 11.2175C14.0613 10.7392 13.4671 10.5 12.7588 10.5C12.0505 10.5 11.4563 10.7392 10.9763 11.2175C10.498 11.6975 10.2588 12.2917 10.2588 13C10.2588 13.7083 10.498 14.3017 10.9763 14.78C11.4563 15.26 12.0505 15.5 12.7588 15.5ZM22.7588 35.5L32.7588 35.5C33.4671 35.5 34.0605 35.26 34.5388 34.78C35.0188 34.3017 35.2588 33.7083 35.2588 33C35.2588 32.2917 35.0188 31.6975 34.5388 31.2175C34.0605 30.7392 33.4671 30.5 32.7588 30.5H22.7588C22.0505 30.5 21.4571 30.7392 20.9788 31.2175C20.4988 31.6975 20.2588 32.2917 20.2588 33C20.2588 33.7083 20.4988 34.3017 20.9788 34.78C21.4571 35.26 22.0505 35.5 22.7588 35.5ZM22.7588 25.5H32.7588C33.4671 25.5 34.0605 25.26 34.5388 24.78C35.0188 24.3017 35.2588 23.7083 35.2588 23C35.2588 22.2917 35.0188 21.6975 34.5388 21.2175C34.0605 20.7392 33.4671 20.5 32.7588 20.5H22.7588C22.0505 20.5 21.4571 20.7392 20.9788 21.2175C20.4988 21.6975 20.2588 22.2917 20.2588 23C20.2588 23.7083 20.4988 24.3017 20.9788 24.78C21.4571 25.26 22.0505 25.5 22.7588 25.5ZM22.7588 15.5L32.7588 15.5C33.4671 15.5 34.0605 15.26 34.5388 14.78C35.0188 14.3017 35.2588 13.7083 35.2588 13C35.2588 12.2917 35.0188 11.6975 34.5388 11.2175C34.0605 10.7392 33.4671 10.5 32.7588 10.5L22.7588 10.5C22.0505 10.5 21.4571 10.7392 20.9788 11.2175C20.4988 11.6975 20.2588 12.2917 20.2588 13C20.2588 13.7083 20.4988 14.3017 20.9788 14.78C21.4571 15.26 22.0505 15.5 22.7588 15.5Z" fill="url(#paint0_linear_28_6034)"/>
<defs>
<linearGradient id="paint0_linear_28_6034" x1="22.7588" y1="0.5" x2="22.7588" y2="45.5" gradientUnits="userSpaceOnUse">
<stop stop-color="white" stop-opacity="0.65"/>
<stop offset="1" stop-color="#1890FF" stop-opacity="0.5"/>
</linearGradient>
</defs>
</svg>
