<svg width="19" height="21" viewBox="0 0 19 21" fill="none" xmlns="http://www.w3.org/2000/svg">
<path d="M16.9996 8.63078C16.9996 5.40678 14.8196 2.69078 11.8536 1.87878C11.7042 1.5095 11.4479 1.19324 11.1176 0.970557C10.7873 0.747873 10.398 0.628906 9.99959 0.628906C9.60122 0.628906 9.21193 0.747873 8.88161 0.970557C8.5513 1.19324 8.29501 1.5095 8.14559 1.87878C7.59157 2.03075 7.05852 2.25075 6.55859 2.53378L8.05059 4.02478C8.81093 3.70295 9.63913 3.57441 10.4613 3.65064C11.2834 3.72687 12.0738 4.00551 12.762 4.46166C13.4502 4.91782 14.0147 5.5373 14.4052 6.26479C14.7956 6.99228 14.9998 7.80514 14.9996 8.63078V10.9738L16.9996 12.9738V8.63078ZM1.17459 16.0648L2.99959 13.3278V8.63078C2.99959 7.58078 3.23059 6.58478 3.64559 5.69078L1.29259 3.33778C1.19708 3.24554 1.1209 3.13519 1.06849 3.01319C1.01608 2.89118 0.988496 2.75996 0.987342 2.62718C0.986189 2.49441 1.01149 2.36273 1.06177 2.23983C1.11205 2.11693 1.18631 2.00528 1.2802 1.91139C1.37409 1.8175 1.48574 1.74324 1.60864 1.69296C1.73154 1.64268 1.86321 1.61738 1.99599 1.61853C2.12877 1.61969 2.25999 1.64727 2.382 1.69968C2.504 1.75209 2.61435 1.82827 2.70659 1.92378L18.7066 17.9238C18.8888 18.1124 18.9895 18.365 18.9873 18.6272C18.985 18.8894 18.8798 19.1402 18.6944 19.3256C18.509 19.511 18.2582 19.6162 17.996 19.6185C17.7338 19.6207 17.4812 19.5199 17.2926 19.3378L15.5856 17.6308H13.4646C13.3457 18.4651 12.9298 19.2285 12.2933 19.7807C11.6567 20.333 10.8423 20.637 9.99959 20.637C9.15687 20.637 8.34245 20.333 7.70591 19.7807C7.06938 19.2285 6.65347 18.4651 6.53459 17.6308H2.01259C1.7831 17.6343 1.55944 17.5584 1.37959 17.4158C1.18048 17.2588 1.04851 17.032 1.01044 16.7813C0.972377 16.5306 1.03106 16.2748 1.17459 16.0658V16.0648ZM3.86959 15.6308H13.5866L5.19659 7.24078C5.06591 7.69255 4.99959 8.16049 4.99959 8.63078V13.6308C4.99964 13.8283 4.94118 14.0214 4.83159 14.1858L3.86959 15.6308ZM8.58559 17.6308C8.68866 17.9238 8.88014 18.1776 9.1336 18.3571C9.38706 18.5366 9.69 18.633 10.0006 18.633C10.3112 18.633 10.6141 18.5366 10.8676 18.3571C11.121 18.1776 11.3125 17.9238 11.4156 17.6308H8.58559Z" fill="#A8B7CF"/>
</svg>
