<svg width="46" height="43" viewBox="0 0 46 43" fill="none" xmlns="http://www.w3.org/2000/svg">
<path d="M26.7262 18.6959L25.7262 23.368H19.5512L20.5512 18.6959H26.7262ZM8.76123 0.0078125C6.60635 0.0078125 4.53972 0.807686 3.01599 2.23147C1.49225 3.65526 0.63623 5.58632 0.63623 7.59986L0.63623 34.464C0.63623 36.4776 1.49225 38.4086 3.01599 39.8324C4.53972 41.2562 6.60635 42.0561 8.76123 42.0561L37.5112 42.0561C39.6661 42.0561 41.7327 41.2562 43.2565 39.8324C44.7802 38.4086 45.6362 36.4776 45.6362 34.464L45.6362 7.59986C45.6362 5.58632 44.7802 3.65526 43.2565 2.23147C41.7327 0.807686 39.6661 0.0078125 37.5112 0.0078125L8.76123 0.0078125ZM20.3812 10.5549C20.8684 10.6462 21.2969 10.9145 21.5725 11.3009C21.8481 11.6872 21.9484 12.1599 21.8512 12.6153L21.3012 15.1919H27.4762L28.1762 11.9285C28.2879 11.4864 28.579 11.1022 28.988 10.8567C29.3971 10.6113 29.8921 10.5239 30.3688 10.613C30.8455 10.7021 31.2665 10.9607 31.543 11.3342C31.8196 11.7078 31.9301 12.1671 31.8512 12.6153L31.3012 15.1919H33.7612C34.2585 15.1919 34.7354 15.3765 35.0871 15.7051C35.4387 16.0336 35.6362 16.4793 35.6362 16.9439C35.6362 17.4086 35.4387 17.8542 35.0871 18.1828C34.7354 18.5113 34.2585 18.6959 33.7612 18.6959H30.5487L29.5487 23.368H32.5112C33.0085 23.368 33.4854 23.5525 33.8371 23.8811C34.1887 24.2097 34.3862 24.6553 34.3862 25.12C34.3862 25.5846 34.1887 26.0303 33.8371 26.3588C33.4854 26.6874 33.0085 26.872 32.5112 26.872H28.7987L28.0987 30.1377C27.9884 30.5813 27.6974 30.9674 27.2877 31.214C26.8779 31.4606 26.3814 31.5484 25.9035 31.4588C25.4256 31.3692 25.0039 31.1092 24.7276 30.7339C24.4514 30.3587 24.3424 29.8977 24.4237 29.4486L24.9737 26.872H18.7987L18.0987 30.1377C17.9884 30.5813 17.6974 30.9674 17.2877 31.214C16.8779 31.4606 16.3814 31.5484 15.9035 31.4588C15.4256 31.3692 15.0039 31.1092 14.7276 30.7339C14.4514 30.3587 14.3424 29.8977 14.4237 29.4486L14.9737 26.872H12.5112C12.0139 26.872 11.537 26.6874 11.1854 26.3588C10.8338 26.0303 10.6362 25.5846 10.6362 25.12C10.6362 24.6553 10.8338 24.2097 11.1854 23.8811C11.537 23.5525 12.0139 23.368 12.5112 23.368H15.7262L16.7262 18.6959H13.7612C13.2639 18.6959 12.787 18.5113 12.4354 18.1828C12.0838 17.8542 11.8862 17.4086 11.8862 16.9439C11.8862 16.4793 12.0838 16.0336 12.4354 15.7051C12.787 15.3765 13.2639 15.1919 13.7612 15.1919H17.4762L18.1762 11.9285C18.274 11.4733 18.5611 11.0729 18.9745 10.8153C19.388 10.5578 19.8939 10.4641 20.3812 10.5549Z" fill="url(#paint0_linear_28_5520)"/>
<defs>
<linearGradient id="paint0_linear_28_5520" x1="23.1362" y1="0.0078125" x2="23.1362" y2="42.0561" gradientUnits="userSpaceOnUse">
<stop stop-color="white" stop-opacity="0.66"/>
<stop offset="1" stop-color="#0069CC" stop-opacity="0.66"/>
</linearGradient>
</defs>
</svg>
