<svg width="14" height="14" viewBox="0 0 14 14" fill="none" xmlns="http://www.w3.org/2000/svg">
<g clip-path="url(#clip0_186_4211)">
<path d="M10.5 5.5L2.6875 5.5L2.6875 2C2.6875 1.51719 3.07969 1.125 3.5625 1.125L7.4375 1.125C7.92031 1.125 8.3125 1.51719 8.3125 2L8.3125 3.0625C8.3125 3.13125 8.36875 3.1875 8.4375 3.1875L9.3125 3.1875C9.38125 3.1875 9.4375 3.13125 9.4375 3.0625L9.4375 2C9.4375 0.895313 8.54219 1.53771e-08 7.4375 1.33885e-08L3.5625 6.41297e-09C2.45781 4.42439e-09 1.5625 0.895313 1.5625 2L1.5625 5.5L0.5 5.5C0.223438 5.5 -1.03029e-08 5.72344 -1.08008e-08 6L-2.16016e-08 12C-2.20994e-08 12.2766 0.223437 12.5 0.5 12.5L10.5 12.5C10.7766 12.5 11 12.2766 11 12L11 6C11 5.72344 10.7766 5.5 10.5 5.5ZM9.875 11.375L1.125 11.375L1.125 6.625L9.875 6.625L9.875 11.375ZM5.0625 9.20313L5.0625 10.0313C5.0625 10.1 5.11875 10.1563 5.1875 10.1563L5.8125 10.1563C5.88125 10.1563 5.9375 10.1 5.9375 10.0313L5.9375 9.20313C6.06648 9.11052 6.16275 8.97938 6.21245 8.82859C6.26216 8.67779 6.26273 8.51511 6.21409 8.36396C6.16545 8.21281 6.07011 8.081 5.94179 7.98749C5.81346 7.89398 5.65878 7.8436 5.5 7.8436C5.34122 7.8436 5.18654 7.89398 5.05821 7.98749C4.92989 8.081 4.83455 8.21281 4.78591 8.36396C4.73727 8.51511 4.73784 8.67779 4.78755 8.82859C4.83725 8.97938 4.93352 9.11052 5.0625 9.20313Z" fill="#4CAF50"/>
</g>
<defs>
<clipPath id="clip0_186_4211">
<rect width="14" height="14" fill="white"/>
</clipPath>
</defs>
</svg>
