<svg width="16" height="17" viewBox="0 0 16 17" fill="none" xmlns="http://www.w3.org/2000/svg">
<path d="M12.675 7.55058H4.06382V3.69275C4.06382 3.16058 4.49611 2.7283 5.02828 2.7283H9.29945C9.83162 2.7283 10.2639 3.16058 10.2639 3.69275V4.86388C10.2639 4.93966 10.3259 5.00166 10.4017 5.00166H11.3661C11.4419 5.00166 11.5039 4.93966 11.5039 4.86388V3.69275C11.5039 2.47513 10.5171 1.48828 9.29945 1.48828H5.02828C3.81065 1.48828 2.82381 2.47513 2.82381 3.69275V7.55058H1.65268C1.34784 7.55058 1.10156 7.79686 1.10156 8.1017V14.7151C1.10156 15.02 1.34784 15.2662 1.65268 15.2662H12.675C12.9799 15.2662 13.2262 15.02 13.2262 14.7151V8.1017C13.2262 7.79686 12.9799 7.55058 12.675 7.55058ZM11.9861 14.0262H2.34158V8.7906H11.9861V14.0262ZM6.68163 11.6323V12.5451C6.68163 12.6209 6.74363 12.6829 6.81941 12.6829H7.50831C7.58409 12.6829 7.64609 12.6209 7.64609 12.5451V11.6323C7.78826 11.5302 7.89437 11.3857 7.94915 11.2195C8.00394 11.0533 8.00457 10.8739 7.95096 10.7073C7.89735 10.5407 7.79226 10.3955 7.65081 10.2924C7.50937 10.1893 7.33887 10.1338 7.16386 10.1338C6.98885 10.1338 6.81835 10.1893 6.67691 10.2924C6.53547 10.3955 6.43038 10.5407 6.37676 10.7073C6.32315 10.8739 6.32378 11.0533 6.37857 11.2195C6.43335 11.3857 6.53947 11.5302 6.68163 11.6323Z" fill="#FA4B14"/>
</svg>
