<svg width="24" height="22" viewBox="0 0 24 22" fill="none" xmlns="http://www.w3.org/2000/svg">
<path d="M21.7709 7.53052H19.2006V3.41003C19.2006 2.00575 18.0582 0.863281 16.654 0.863281H2.54634C1.1423 0.863281 0 2.00575 0 3.41003V11.1198C0 12.5241 1.1423 13.6665 2.54634 13.6665H4.39952V16.3323C4.39952 16.6564 4.59467 16.9485 4.89414 17.0725C4.99329 17.1135 5.09738 17.1335 5.20057 17.1335C5.40905 17.1335 5.61406 17.0521 5.76727 16.8988L7.99911 14.6664V16.0679C7.99911 17.2972 8.99911 18.2974 10.2284 18.2974H16.4314L19.0327 20.8991C19.1859 21.0525 19.3909 21.1338 19.5994 21.1338C19.7026 21.1338 19.8066 21.1139 19.9058 21.0728C20.2053 20.9489 20.4004 20.6567 20.4004 20.3326V18.2974H21.771C23.0002 18.2974 24.0001 17.2972 24.0001 16.0679V9.75993C24 8.5306 23.0001 7.53052 21.7709 7.53052ZM5.20057 12.0641H2.54634C2.02594 12.0641 1.60242 11.6405 1.60242 11.1199V3.41003C1.60242 2.88938 2.02586 2.46571 2.54634 2.46571H16.6541C17.1746 2.46571 17.5982 2.8893 17.5982 3.41003V11.1198C17.5982 11.6404 17.1747 12.064 16.6541 12.064H8.66691C8.45447 12.064 8.25067 12.1485 8.10028 12.2988L6.00178 14.3977V12.8652C6.00178 12.4228 5.64307 12.0641 5.20057 12.0641ZM22.3976 16.0678C22.3976 16.4135 22.1165 16.695 21.7709 16.695H19.5992C19.1568 16.695 18.798 17.0536 18.798 17.4961V18.3981L17.3297 16.9296C17.1796 16.7793 16.9757 16.695 16.7632 16.695H10.2283C9.88267 16.695 9.60146 16.4136 9.60146 16.0678V13.6664H16.654C18.0582 13.6664 19.2006 12.524 19.2006 11.1198V9.13286H21.7709C22.1165 9.13286 22.3976 9.41407 22.3976 9.75985V16.0678Z" fill="white" fill-opacity="0.5"/>
</svg>
