<svg width="32" height="32" viewBox="0 0 32 32" fill="none" xmlns="http://www.w3.org/2000/svg">
<path d="M15.75 0C7.05234 0 0 7.05234 0 15.75C0 24.4477 7.05234 31.5 15.75 31.5C24.4477 31.5 31.5 24.4477 31.5 15.75C31.5 7.05234 24.4477 0 15.75 0ZM14.625 8.15625C14.625 8.00156 14.7516 7.875 14.9062 7.875H16.5938C16.7484 7.875 16.875 8.00156 16.875 8.15625V17.7188C16.875 17.8734 16.7484 18 16.5938 18H14.9062C14.7516 18 14.625 17.8734 14.625 17.7188V8.15625ZM15.75 23.625C15.3084 23.616 14.888 23.4342 14.5788 23.1187C14.2697 22.8033 14.0966 22.3792 14.0966 21.9375C14.0966 21.4958 14.2697 21.0717 14.5788 20.7563C14.888 20.4408 15.3084 20.259 15.75 20.25C16.1916 20.259 16.6121 20.4408 16.9212 20.7563C17.2303 21.0717 17.4034 21.4958 17.4034 21.9375C17.4034 22.3792 17.2303 22.8033 16.9212 23.1187C16.6121 23.4342 16.1916 23.616 15.75 23.625Z" fill="#FF4747"/>
</svg>
