<svg width="45" height="45" viewBox="0 0 45 45" fill="none" xmlns="http://www.w3.org/2000/svg">
<circle cx="22.5" cy="22.5" r="22.5" fill="#60EFDB"/>
<g clip-path="url(#clip0_28_7961)">
<path d="M14.3245 26.827C14.3245 26.827 13.7355 29.7164 16.7422 28.8432C21.6967 27.4033 21.935 28.9743 23.4548 29.5159C25.7247 30.3236 28.277 30.2349 30.9153 27.7445C33.6639 25.1481 23.9953 24.4271 21.357 24.1862C18.7209 23.9472 14.6002 26.7788 14.6002 26.7788" fill="#E2E2E2"/>
<path d="M9.96769 28.6078L8.60884 32.0312V32.2471C8.60884 32.2471 7.95589 33.6735 9.3368 32.6654C9.42945 32.6576 9.5243 32.6287 9.5243 32.6287C9.5243 32.6287 13.2303 30.0149 13.3538 29.9802C13.4773 29.9455 15.1362 27.6652 15.1362 27.6652C15.1362 27.6652 11.9927 25.4697 11.4743 26.1656C10.9582 26.8576 9.96769 28.6078 9.96769 28.6078Z" fill="#3C3C3C"/>
<path d="M24.2162 17.4481C24.2162 17.4481 19.3918 15.2969 17.2454 16.65C15.3572 17.8413 13.802 18.5217 12.8512 19.0017C11.9005 19.4816 10.5151 19.3891 10.3232 21.6425C10.16 23.5874 10.1578 25.2297 9.80263 25.8928C8.79673 27.7644 11.4924 29.0424 12.4939 25.5323C13.5218 22.5561 16.4778 25.1005 18.783 24.6206C21.0904 24.1406 25.3654 20.5264 25.853 19.5568C26.5236 18.2229 24.2162 17.4481 24.2162 17.4481Z" fill="#E2E2E2"/>
<path d="M12.3372 24.7396C12.3372 24.7396 23.3029 10.038 24.2801 9.07804C25.1536 8.22026 24.4941 8.18364 27.675 9.94159C28.4736 10.383 15.7917 25.3738 15.7917 25.3738L12.1387 25.0846L12.3372 24.7396Z" fill="#3C3C3C"/>
<path d="M20.7614 19.8185C20.7614 19.8185 18.893 22.2183 16.5856 23.1783C14.2782 24.1382 11.4215 24.5218 11.8605 26.1544C12.2995 27.7871 14.4966 28.9398 18.0128 26.6344C19.8812 25.5781 20.9798 26.4417 22.6276 27.1144C24.2755 27.7871 24.6041 28.9379 28.6697 28.3615C32.7352 27.7852 33.1389 28.4444 34.9323 29.2251C36.6904 28.2651 36.9088 25.3853 36.9088 23.5599C36.9088 21.7345 36.6551 21.9697 34.1624 21.7364C32.1859 21.1601 26.8807 18.8489 25.4622 18.0721C24.8909 17.7598 23.5343 16.9001 21.8313 18.6099" fill="white"/>
</g>
<defs>
<clipPath id="clip0_28_7961">
<rect width="30.6" height="30.6" fill="white" transform="translate(6.2998 6.30078)"/>
</clipPath>
</defs>
</svg>
